<svg width="44" height="44" viewBox="0 0 44 44" fill="none" xmlns="http://www.w3.org/2000/svg">
<path d="M0 19.2C0 12.4794 0 9.11905 1.30792 6.55211C2.4584 4.29417 4.29417 2.4584 6.55211 1.30792C9.11905 0 12.4794 0 19.2 0H24.8C31.5206 0 34.8809 0 37.4479 1.30792C39.7058 2.4584 41.5416 4.29417 42.6921 6.55211C44 9.11905 44 12.4794 44 19.2V24.8C44 31.5206 44 34.8809 42.6921 37.4479C41.5416 39.7058 39.7058 41.5416 37.4479 42.6921C34.8809 44 31.5206 44 24.8 44H19.2C12.4794 44 9.11905 44 6.55211 42.6921C4.29417 41.5416 2.4584 39.7058 1.30792 37.4479C0 34.8809 0 31.5206 0 24.8V19.2Z" fill="url(#paint0_linear_3224_6660)"/>
<g clip-path="url(#clip0_3224_6660)">
<path d="M25.9774 11.01C25.9349 10.9625 24.4037 11.0288 23.0712 12.475C21.7387 13.92 21.9437 15.5775 21.9737 15.62C22.0037 15.6625 23.8737 15.7288 25.0674 14.0475C26.2612 12.3663 26.0199 11.0588 25.9774 11.01ZM30.1199 25.6763C30.0599 25.5563 27.2137 24.1338 27.4787 21.3988C27.7437 18.6625 29.5724 17.9125 29.6012 17.8313C29.6299 17.75 28.8549 16.8438 28.0337 16.385C27.4307 16.0616 26.7633 15.8763 26.0799 15.8425C25.9449 15.8388 25.4762 15.7238 24.5124 15.9875C23.8774 16.1613 22.4462 16.7238 22.0524 16.7463C21.6574 16.7688 20.4824 16.0938 19.2187 15.915C18.4099 15.7588 17.5524 16.0788 16.9387 16.325C16.3262 16.57 15.1612 17.2675 14.3462 19.1213C13.5312 20.9738 13.9574 23.9088 14.2624 24.8213C14.5674 25.7325 15.0437 27.2263 15.8537 28.3163C16.5737 29.5463 17.5287 30.4 17.9274 30.69C18.3262 30.98 19.4512 31.1725 20.2312 30.7738C20.8587 30.3888 21.9912 30.1675 22.4387 30.1838C22.8849 30.2 23.7649 30.3763 24.6662 30.8575C25.3799 31.1038 26.0549 31.0013 26.7312 30.7263C27.4074 30.45 28.3862 29.4025 29.5287 27.2788C29.9624 26.2913 30.1599 25.7575 30.1199 25.6763Z" fill="black"/>
<path d="M25.9774 11.01C25.9349 10.9625 24.4037 11.0288 23.0712 12.475C21.7387 13.92 21.9437 15.5775 21.9737 15.62C22.0037 15.6625 23.8737 15.7288 25.0674 14.0475C26.2612 12.3663 26.0199 11.0588 25.9774 11.01ZM30.1199 25.6763C30.0599 25.5563 27.2137 24.1338 27.4787 21.3988C27.7437 18.6625 29.5724 17.9125 29.6012 17.8313C29.6299 17.75 28.8549 16.8438 28.0337 16.385C27.4307 16.0616 26.7633 15.8763 26.0799 15.8425C25.9449 15.8388 25.4762 15.7238 24.5124 15.9875C23.8774 16.1613 22.4462 16.7238 22.0524 16.7463C21.6574 16.7688 20.4824 16.0938 19.2187 15.915C18.4099 15.7588 17.5524 16.0788 16.9387 16.325C16.3262 16.57 15.1612 17.2675 14.3462 19.1213C13.5312 20.9738 13.9574 23.9088 14.2624 24.8213C14.5674 25.7325 15.0437 27.2263 15.8537 28.3163C16.5737 29.5463 17.5287 30.4 17.9274 30.69C18.3262 30.98 19.4512 31.1725 20.2312 30.7738C20.8587 30.3888 21.9912 30.1675 22.4387 30.1838C22.8849 30.2 23.7649 30.3763 24.6662 30.8575C25.3799 31.1038 26.0549 31.0013 26.7312 30.7263C27.4074 30.45 28.3862 29.4025 29.5287 27.2788C29.9624 26.2913 30.1599 25.7575 30.1199 25.6763Z" fill="white"/>
</g>
<defs>
<linearGradient id="paint0_linear_3224_6660" x1="22" y1="0" x2="22" y2="44" gradientUnits="userSpaceOnUse">
<stop stop-color="#484848"/>
<stop offset="1" stop-color="#292929"/>
</linearGradient>
<clipPath id="clip0_3224_6660">
<rect width="20" height="20" fill="white" transform="translate(12 11)"/>
</clipPath>
</defs>
</svg>
