<svg width="20" height="20" viewBox="0 0 20 20" fill="none" xmlns="http://www.w3.org/2000/svg">
<g clip-path="url(#clip0_5782_15848)">
<path d="M13.9774 0.0100088C13.9349 -0.0374912 12.4037 0.0287588 11.0712 1.47501C9.73866 2.92001 9.94366 4.57751 9.97366 4.62001C10.0037 4.66251 11.8737 4.72876 13.0674 3.04751C14.2612 1.36626 14.0199 0.0587588 13.9774 0.0100088ZM18.1199 14.6763C18.0599 14.5563 15.2137 13.1338 15.4787 10.3988C15.7437 7.66251 17.5724 6.91251 17.6012 6.83126C17.6299 6.75001 16.8549 5.84376 16.0337 5.38501C15.4307 5.06157 14.7633 4.87627 14.0799 4.84251C13.9449 4.83876 13.4762 4.72376 12.5124 4.98751C11.8774 5.16126 10.4462 5.72376 10.0524 5.74626C9.65741 5.76876 8.48241 5.09376 7.21866 4.91501C6.40991 4.75876 5.55241 5.07876 4.93866 5.32501C4.32616 5.57001 3.16116 6.26751 2.34616 8.12126C1.53116 9.97376 1.95741 12.9088 2.26241 13.8213C2.56741 14.7325 3.04366 16.2263 3.85366 17.3163C4.57366 18.5463 5.52866 19.4 5.92741 19.69C6.32616 19.98 7.45116 20.1725 8.23116 19.7738C8.85866 19.3888 9.99116 19.1675 10.4387 19.1838C10.8849 19.2 11.7649 19.3763 12.6662 19.8575C13.3799 20.1038 14.0549 20.0013 14.7312 19.7263C15.4074 19.45 16.3862 18.4025 17.5287 16.2788C17.9624 15.2913 18.1599 14.7575 18.1199 14.6763Z" fill="black"/>
<path d="M13.9774 0.0100088C13.9349 -0.0374912 12.4037 0.0287588 11.0712 1.47501C9.73866 2.92001 9.94366 4.57751 9.97366 4.62001C10.0037 4.66251 11.8737 4.72876 13.0674 3.04751C14.2612 1.36626 14.0199 0.0587588 13.9774 0.0100088ZM18.1199 14.6763C18.0599 14.5563 15.2137 13.1338 15.4787 10.3988C15.7437 7.66251 17.5724 6.91251 17.6012 6.83126C17.6299 6.75001 16.8549 5.84376 16.0337 5.38501C15.4307 5.06157 14.7633 4.87627 14.0799 4.84251C13.9449 4.83876 13.4762 4.72376 12.5124 4.98751C11.8774 5.16126 10.4462 5.72376 10.0524 5.74626C9.65741 5.76876 8.48241 5.09376 7.21866 4.91501C6.40991 4.75876 5.55241 5.07876 4.93866 5.32501C4.32616 5.57001 3.16116 6.26751 2.34616 8.12126C1.53116 9.97376 1.95741 12.9088 2.26241 13.8213C2.56741 14.7325 3.04366 16.2263 3.85366 17.3163C4.57366 18.5463 5.52866 19.4 5.92741 19.69C6.32616 19.98 7.45116 20.1725 8.23116 19.7738C8.85866 19.3888 9.99116 19.1675 10.4387 19.1838C10.8849 19.2 11.7649 19.3763 12.6662 19.8575C13.3799 20.1038 14.0549 20.0013 14.7312 19.7263C15.4074 19.45 16.3862 18.4025 17.5287 16.2788C17.9624 15.2913 18.1599 14.7575 18.1199 14.6763Z" fill="white"/>
</g>
<defs>
<clipPath id="clip0_5782_15848">
<rect width="20" height="20" fill="white"/>
</clipPath>
</defs>
</svg>
