<svg width="24" height="24" viewBox="0 0 24 24" fill="none" xmlns="http://www.w3.org/2000/svg">
<path d="M13.83 19.0013C13.6806 19.0018 13.533 18.9688 13.398 18.9048C13.263 18.8407 13.1441 18.7473 13.05 18.6313L8.21998 12.6313C8.0729 12.4523 7.99249 12.2279 7.99249 11.9963C7.99249 11.7646 8.0729 11.5402 8.21998 11.3613L13.22 5.36125C13.3897 5.15704 13.6336 5.02861 13.8981 5.00423C14.1625 4.97985 14.4258 5.06151 14.63 5.23125C14.8342 5.40099 14.9626 5.6449 14.987 5.90933C15.0114 6.17375 14.9297 6.43704 14.76 6.64125L10.29 12.0013L14.61 17.3613C14.7323 17.508 14.8099 17.6868 14.8338 17.8763C14.8577 18.0659 14.8268 18.2583 14.7447 18.4308C14.6627 18.6034 14.5329 18.7488 14.3708 18.8499C14.2087 18.9509 14.021 19.0035 13.83 19.0013Z" fill="black"/>
</svg>
