<svg width="5" height="10" viewBox="0 0 5 10" fill="none" xmlns="http://www.w3.org/2000/svg">
<path d="M1.10053 9.6701C1.20013 9.67044 1.29853 9.64846 1.38852 9.60578C1.47851 9.56309 1.55778 9.50078 1.62053 9.42344L4.84053 5.42344C4.93858 5.30415 4.99219 5.15452 4.99219 5.00011C4.99219 4.84569 4.93858 4.69606 4.84053 4.57677L1.5072 0.576772C1.39404 0.440628 1.23143 0.355012 1.05515 0.338758C0.878861 0.322505 0.703341 0.376947 0.567196 0.490106C0.431052 0.603265 0.345436 0.765872 0.329183 0.942156C0.31293 1.11844 0.367371 1.29396 0.480529 1.43011L3.46053 5.00344L0.58053 8.57677C0.499008 8.67463 0.447223 8.79379 0.431304 8.92015C0.415384 9.04652 0.435995 9.1748 0.490699 9.28982C0.545403 9.40484 0.631909 9.50178 0.739983 9.56917C0.848056 9.63657 0.973174 9.67159 1.10053 9.6701Z" fill="black"/>
</svg>
