<svg width="24" height="24" viewBox="0 0 24 24" fill="none" xmlns="http://www.w3.org/2000/svg">
<path d="M4.99875 13.8297C4.99824 13.6803 5.03121 13.5327 5.09524 13.3977C5.15927 13.2627 5.25273 13.1438 5.36875 13.0497L11.3687 8.21968C11.5477 8.07259 11.7721 7.99219 12.0037 7.99219C12.2354 7.99219 12.4598 8.07259 12.6387 8.21968L18.6387 13.2197C18.843 13.3894 18.9714 13.6333 18.9958 13.8978C19.0201 14.1622 18.9385 14.4255 18.7687 14.6297C18.599 14.8339 18.3551 14.9623 18.0907 14.9867C17.8262 15.0111 17.563 14.9294 17.3587 14.7597L11.9987 10.2897L6.63875 14.6097C6.49196 14.732 6.31322 14.8096 6.12367 14.8335C5.93412 14.8574 5.7417 14.8265 5.56917 14.7444C5.39665 14.6624 5.25123 14.5326 5.15014 14.3705C5.04905 14.2084 4.99652 14.0207 4.99875 13.8297Z" fill="black"/>
</svg>
