<svg width="16" height="12" viewBox="0 0 16 12" fill="none" xmlns="http://www.w3.org/2000/svg">
<path fill-rule="evenodd" clip-rule="evenodd" d="M5.42293 9.98038L4.18298 8.72427C3.93257 8.43157 3.41385 7.95516 3.21645 7.70606C3.06888 7.51985 2.57188 7.05278 2.38343 6.85474C2.08255 6.53776 1.57916 5.93181 1.26294 5.71945C0.759555 5.38191 0 5.76366 0 6.32664C0 6.92449 0.38393 7.07831 0.696312 7.46007C0.749973 7.52608 0.797884 7.56531 0.860489 7.62634L1.19523 7.98319C1.30638 8.10026 1.42329 8.19119 1.53061 8.30951C1.59641 8.38238 1.60791 8.41476 1.68265 8.48825L3.20687 10.062C3.66362 10.5066 4.07502 10.9986 4.53242 11.4433C4.85374 11.7559 4.98151 12 5.51492 12C5.94996 12 6.48656 11.272 6.77275 10.9394C6.83344 10.8697 6.87241 10.8466 6.93374 10.7694L9.27948 8.15569C9.34975 8.06726 9.36444 8.05854 9.43727 7.98256C9.5069 7.91032 9.51584 7.87732 9.58867 7.80383L10.0614 7.28445C10.2856 7.05963 10.476 6.79682 10.7015 6.57138C10.775 6.4979 10.7839 6.46489 10.8529 6.39265L11.7977 5.35326C11.8641 5.2804 11.8744 5.24988 11.9504 5.17515L12.4231 4.65577C12.4927 4.58353 12.5017 4.55052 12.5751 4.47704L15.0768 1.68831C15.3259 1.38502 15.5993 1.21439 15.5993 0.742332C15.5993 0.322591 15.2314 0 14.8072 0C14.3543 0 14.2348 0.209871 13.962 0.483263L11.2598 3.49245C11.2023 3.56469 11.171 3.58337 11.1129 3.64627L7.27359 7.9234C7.21162 7.9919 7.20651 8.01681 7.13624 8.08656L6.84686 8.39857C6.63158 8.63459 5.56347 9.88759 5.42229 9.97976L5.42293 9.98038Z" fill="white"/>
</svg>
