<svg width="11" height="11" viewBox="0 0 11 11" fill="none" xmlns="http://www.w3.org/2000/svg">
<path fill-rule="evenodd" clip-rule="evenodd" d="M1.15119 1.54204C1.01429 1.40379 0.9375 1.21709 0.9375 1.02252C0.9375 0.827958 1.01429 0.641257 1.15119 0.503C1.21841 0.43474 1.29854 0.380532 1.38691 0.343531C1.47528 0.30653 1.57012 0.287476 1.66593 0.287476C1.76173 0.287476 1.85658 0.30653 1.94495 0.343531C2.03332 0.380532 2.11345 0.43474 2.18067 0.503L5.73828 4.13307L9.29589 0.503C9.36312 0.43474 9.44324 0.380532 9.53162 0.343531C9.61999 0.30653 9.71483 0.287476 9.81063 0.287476C9.90644 0.287476 10.0013 0.30653 10.0897 0.343531C10.178 0.380532 10.2582 0.43474 10.3254 0.503C10.4623 0.641257 10.5391 0.827958 10.5391 1.02252C10.5391 1.21709 10.4623 1.40379 10.3254 1.54204L6.96858 5.17498L10.3254 8.80791C10.4623 8.94616 10.5391 9.13286 10.5391 9.32743C10.5391 9.52199 10.4623 9.70869 10.3254 9.84695C10.2582 9.91521 10.178 9.96942 10.0897 10.0064C10.0013 10.0434 9.90644 10.0625 9.81063 10.0625C9.71483 10.0625 9.61998 10.0434 9.53161 10.0064C9.44324 9.96942 9.36312 9.91521 9.29589 9.84695L5.73828 6.21688L2.18067 9.84695C2.11345 9.91521 2.03332 9.96942 1.94495 10.0064C1.85658 10.0434 1.76173 10.0625 1.66593 10.0625C1.57012 10.0625 1.47528 10.0434 1.38691 10.0064C1.29854 9.96942 1.21841 9.91521 1.15119 9.84695C1.01429 9.70869 0.9375 9.52199 0.9375 9.32743C0.9375 9.13286 1.01429 8.94616 1.15119 8.80791L4.50798 5.17498L1.15119 1.54204Z" fill="#FC133D"/>
</svg>
