<svg width="20" height="20" viewBox="0 0 20 20" fill="none" xmlns="http://www.w3.org/2000/svg">
<g clip-path="url(#clip0_1684_2476)">
<path d="M2.34467 12.8872L1.28911 17.4427C1.2527 17.6092 1.25395 17.7818 1.29276 17.9478C1.33158 18.1138 1.40699 18.269 1.51348 18.4021C1.61997 18.5352 1.75485 18.6429 1.90826 18.7172C2.06168 18.7915 2.22976 18.8306 2.40022 18.8316C2.47965 18.8396 2.55968 18.8396 2.63911 18.8316L7.22244 17.776L16.0224 9.00938L11.1113 4.10938L2.34467 12.8872Z" fill="#828282"/>
<path d="M18.7891 4.62036L15.5113 1.34258C15.2958 1.12817 15.0042 1.00781 14.7002 1.00781C14.3962 1.00781 14.1046 1.12817 13.8891 1.34258L12.0669 3.16481L16.9725 8.07036L18.7947 6.24814C18.9013 6.14096 18.9858 6.01381 19.0432 5.87395C19.1007 5.7341 19.13 5.58429 19.1294 5.4331C19.1289 5.28191 19.0986 5.1323 19.0402 4.99284C18.9818 4.85338 18.8965 4.72681 18.7891 4.62036Z" fill="#828282"/>
</g>
<defs>
<clipPath id="clip0_1684_2476">
<rect width="20" height="20" fill="white"/>
</clipPath>
</defs>
</svg>
