<svg width="20" height="20" viewBox="0 0 20 20" fill="none" xmlns="http://www.w3.org/2000/svg">
<path d="M19.8026 8.04159H18.9977V7.99963H9.99858V11.9988H15.6496C14.8256 14.3271 12.6104 15.998 9.99858 15.998C6.68607 15.998 3.99918 13.3124 3.99918 9.99858C3.99918 6.68607 6.6848 3.99918 9.99858 3.99918C11.5283 3.99918 12.9194 4.57649 13.9787 5.51874L16.8067 2.6907C15.0214 1.02618 12.6321 0 9.99858 0C4.4773 0 0 4.4773 0 9.99858C0 15.5199 4.4773 19.9972 9.99858 19.9972C15.5211 19.9972 19.9972 15.5199 19.9972 9.99858C19.9972 9.32845 19.9285 8.67358 19.8026 8.04032V8.04159Z" fill="#FBC02D"/>
<path d="M1.15625 5.34453L4.44079 7.75421C5.32964 5.55307 7.48246 3.99918 10.0015 3.99918C11.5312 3.99918 12.9224 4.57648 13.9816 5.51874L16.8096 2.6907C15.0243 1.02618 12.635 0 10.0015 0C6.16126 0 2.83095 2.16808 1.15625 5.34453Z" fill="#FC133D"/>
<path d="M9.99494 19.999C12.5776 19.999 14.9249 19.011 16.6988 17.4037L13.6037 14.7854C12.6005 15.5459 11.3517 15.9998 9.99494 15.9998C7.39452 15.9998 5.18576 14.3417 4.35413 12.0273L1.09375 14.54C2.7481 17.7788 6.10894 20.0003 9.99494 20.0003V19.999Z" fill="#4CAF50"/>
<path d="M19.804 8.04196L19.7964 8H18.9991H10V11.9992H15.651C15.2555 13.1182 14.5358 14.0821 13.6075 14.784C13.6075 14.784 13.6088 14.784 13.6088 14.7827L16.7039 17.4009C16.4852 17.5993 19.9986 14.9976 19.9986 9.99768C19.9986 9.32755 19.9299 8.67268 19.804 8.03942V8.04196Z" fill="#1565C0"/>
</svg>
