<svg width="36" height="14" viewBox="0 0 36 14" fill="none" xmlns="http://www.w3.org/2000/svg">
<path d="M16.558 6.83872V10.9435H15.2656V0.810895H18.6931C19.5199 0.794735 20.3145 1.10986 20.9166 1.69164C21.5186 2.23301 21.8557 3.01679 21.8397 3.82481C21.8557 4.64091 21.5186 5.42469 20.9166 5.97414C20.3145 6.54783 19.5761 6.83872 18.7011 6.83872H16.558ZM16.558 2.05525V5.59437H18.7252C19.2068 5.61053 19.6724 5.41661 20.0015 5.06916C20.6838 4.40658 20.6918 3.31576 20.0336 2.62894L20.0015 2.59662C19.6724 2.24109 19.2068 2.04716 18.7252 2.06333L16.558 2.05525ZM24.8176 3.78441C25.7728 3.78441 26.5274 4.04297 27.0812 4.55203C27.6351 5.06916 27.908 5.77214 27.908 6.66904V10.9354H26.6719V9.97384H26.6157C26.0779 10.7657 25.3715 11.1616 24.4805 11.1616C23.726 11.1616 23.0838 10.9354 22.5781 10.4829C22.0805 10.0627 21.7995 9.44054 21.8156 8.78605C21.8156 8.06691 22.0885 7.5013 22.6263 7.07305C23.1641 6.6448 23.8865 6.43471 24.7855 6.43471C25.5561 6.43471 26.1822 6.58015 26.6799 6.85488V6.55591C26.6799 6.1115 26.4872 5.69133 26.1501 5.40853C25.805 5.10148 25.3635 4.93179 24.9059 4.93179C24.1835 4.93179 23.6136 5.23884 23.1882 5.85294L22.0484 5.1338C22.6664 4.2369 23.5895 3.78441 24.8176 3.78441ZM23.148 8.81837C23.148 9.15774 23.3086 9.47287 23.5735 9.66679C23.8624 9.89303 24.2156 10.0142 24.5768 10.0062C25.1227 10.0062 25.6444 9.78799 26.0297 9.40014C26.4551 8.99613 26.6719 8.5194 26.6719 7.96995C26.2705 7.64674 25.7086 7.48514 24.9862 7.48514C24.4645 7.48514 24.023 7.61442 23.6698 7.86491C23.3246 8.12347 23.148 8.4386 23.148 8.81837ZM35.0038 4.01065L30.6853 13.9978H29.3528L30.9582 10.5071L28.1167 4.01873H29.5214L31.5683 8.99613H31.6004L33.5991 4.01873L35.0038 4.01065Z" fill="#5F6368"/>
<path d="M11.3317 5.94997C11.3317 5.55404 11.2996 5.15811 11.2354 4.77026H5.78516V7.00848H8.90762C8.77919 7.72761 8.36179 8.37403 7.75175 8.77804V10.2325H9.61399C10.7056 9.22245 11.3317 7.72762 11.3317 5.94997Z" fill="#4285F4"/>
<path d="M5.7863 11.6382C7.34352 11.6382 8.65993 11.1211 9.61513 10.2323L7.75289 8.77783C7.23114 9.13336 6.56491 9.33536 5.7863 9.33536C4.27724 9.33536 3.00096 8.30918 2.54343 6.93555H0.625V8.43846C1.60428 10.3939 3.60298 11.6382 5.7863 11.6382Z" fill="#34A853"/>
<path d="M2.54241 6.93566C2.3016 6.21653 2.3016 5.43275 2.54241 4.70553V3.21069H0.623978C0.216345 4.0195 0.00390625 4.91366 0.00390625 5.8206C0.00390625 6.72754 0.216345 7.6217 0.623978 8.4305L2.54241 6.93566Z" fill="#FBBC04"/>
<path d="M5.7863 2.30565C6.61307 2.28949 7.40773 2.60462 8.00173 3.17831L9.64724 1.52187C8.60374 0.528006 7.22312 -0.0133674 5.7863 0.00279304C3.60298 0.00279304 1.60428 1.24714 0.625 3.21063L2.54343 4.71355C3.00096 3.33183 4.27724 2.30565 5.7863 2.30565Z" fill="#EA4335"/>
</svg>
