<svg width="14" height="18" viewBox="0 0 14 18" fill="none" xmlns="http://www.w3.org/2000/svg">
<path d="M1.16536 17.3307C0.944351 17.3307 0.732389 17.2429 0.576109 17.0867C0.419829 16.9304 0.332031 16.7184 0.332031 16.4974V1.4974C0.332031 1.27638 0.419829 1.06442 0.576109 0.90814C0.732389 0.75186 0.944351 0.664063 1.16536 0.664062H12.832C13.053 0.664063 13.265 0.75186 13.4213 0.90814C13.5776 1.06442 13.6654 1.27638 13.6654 1.4974V16.4974C13.6654 16.7184 13.5776 16.9304 13.4213 17.0867C13.265 17.2429 13.053 17.3307 12.832 17.3307H1.16536ZM9.4987 12.3307L13.6654 8.9974L9.4987 5.66406V8.16406H4.4987V9.83073H9.4987V12.3307Z" fill="#FC133D"/>
</svg>
