<svg width="28" height="22" viewBox="0 0 28 22" fill="none" xmlns="http://www.w3.org/2000/svg">
<path d="M27.4405 21.6995V21.756H27.4927C27.5025 21.7562 27.5122 21.7537 27.5207 21.7488C27.5241 21.7464 27.5269 21.7431 27.5287 21.7394C27.5305 21.7356 27.5314 21.7314 27.5312 21.7272C27.5314 21.7231 27.5305 21.719 27.5287 21.7153C27.5268 21.7116 27.5241 21.7084 27.5207 21.7061C27.5123 21.701 27.5026 21.6985 27.4927 21.6989H27.4405V21.6995ZM27.4933 21.6595C27.5157 21.6581 27.5378 21.6646 27.556 21.6779C27.5633 21.6839 27.5691 21.6915 27.5729 21.7002C27.5767 21.7089 27.5784 21.7184 27.578 21.7279C27.5783 21.7361 27.5769 21.7442 27.5739 21.7518C27.5708 21.7594 27.5662 21.7662 27.5603 21.7719C27.5463 21.7842 27.5287 21.7916 27.5102 21.7929L27.5802 21.8735H27.5263L27.4619 21.7935H27.4411V21.8735H27.396V21.6596H27.494L27.4933 21.6595ZM27.4793 21.9473C27.5029 21.9475 27.5263 21.9427 27.548 21.9332C27.5689 21.9241 27.5879 21.9111 27.604 21.8949C27.6201 21.8787 27.633 21.8595 27.6419 21.8383C27.6603 21.7935 27.6603 21.7432 27.6419 21.6984C27.6329 21.6773 27.62 21.6581 27.604 21.6418C27.5879 21.6256 27.5689 21.6126 27.548 21.6035C27.5262 21.5945 27.5028 21.5899 27.4793 21.5902C27.4553 21.59 27.4315 21.5945 27.4093 21.6035C27.3879 21.6124 27.3685 21.6254 27.352 21.6418C27.3273 21.6675 27.3105 21.6999 27.3039 21.7351C27.2972 21.7703 27.301 21.8067 27.3147 21.8397C27.3232 21.8609 27.3359 21.8802 27.352 21.8963C27.3685 21.9127 27.3879 21.9257 27.4093 21.9346C27.4314 21.9441 27.4552 21.9489 27.4793 21.9487M27.4793 21.5387C27.5408 21.5387 27.5999 21.5631 27.6438 21.6066C27.6649 21.6275 27.6818 21.6525 27.6933 21.68C27.7053 21.7082 27.7114 21.7387 27.7114 21.7694C27.7114 21.8001 27.7053 21.8306 27.6933 21.8588C27.6815 21.8862 27.6647 21.9111 27.6438 21.9322C27.6223 21.953 27.5973 21.9697 27.57 21.9817C27.5413 21.994 27.5104 22.0002 27.4793 22C27.4478 22.0003 27.4165 21.994 27.3875 21.9817C27.3598 21.97 27.3346 21.9532 27.3131 21.9322C27.2922 21.9103 27.2756 21.8846 27.2643 21.8564C27.2523 21.8281 27.2461 21.7977 27.2461 21.767C27.2461 21.7363 27.2523 21.7058 27.2643 21.6776C27.2758 21.65 27.2927 21.6251 27.3138 21.6042C27.335 21.5828 27.3603 21.566 27.3882 21.5547C27.4172 21.5424 27.4485 21.5361 27.48 21.5363M6.04514 20.7127C6.04514 20.3048 6.30971 19.9698 6.74212 19.9698C7.15534 19.9698 7.43419 20.2904 7.43419 20.7127C7.43419 21.135 7.15534 21.4556 6.74212 21.4556C6.30971 21.4556 6.04514 21.1206 6.04514 20.7127ZM7.90523 20.7127V19.552H7.40563V19.8348C7.24717 19.6258 7.00682 19.4948 6.67996 19.4948C6.03604 19.4948 5.53071 20.0048 5.53071 20.7133C5.53071 21.4217 6.03576 21.9318 6.67996 21.9318C7.00668 21.9318 7.24717 21.8006 7.40563 21.5918V21.8735H7.90467V20.7127H7.90523ZM24.786 20.7127C24.786 20.3048 25.0506 19.9698 25.4831 19.9698C25.8968 19.9698 26.1752 20.2904 26.1752 20.7127C26.1752 21.135 25.8968 21.4556 25.4831 21.4556C25.0507 21.4556 24.786 21.1206 24.786 20.7127ZM26.6467 20.7127V18.6204H26.1466V19.8348C25.9882 19.6258 25.7478 19.4948 25.421 19.4948C24.7771 19.4948 24.2717 20.0048 24.2717 20.7133C24.2717 21.4217 24.7768 21.9318 25.421 21.9318C25.7478 21.9318 25.9882 21.8006 26.1466 21.5918V21.8735H26.6467V20.7127ZM14.1059 19.9459C14.4279 19.9459 14.6346 20.1497 14.6874 20.5087H13.4953C13.5486 20.1736 13.7501 19.9459 14.106 19.9459M14.116 19.4935C13.4427 19.4935 12.9716 19.9883 12.9716 20.712C12.9716 21.4498 13.4616 21.9305 14.1494 21.9305C14.4955 21.9305 14.8124 21.8433 15.0912 21.6053L14.8464 21.2314C14.6538 21.3869 14.4085 21.4741 14.178 21.4741C13.856 21.4741 13.5629 21.3236 13.4908 20.9058H15.1968C15.2017 20.843 15.2067 20.7797 15.2067 20.7118C15.2017 19.9884 14.7588 19.4933 14.1157 19.4933M20.1476 20.7118C20.1476 20.304 20.4121 19.9689 20.8445 19.9689C21.2578 19.9689 21.5366 20.2896 21.5366 20.7118C21.5366 21.1341 21.2578 21.4548 20.8445 21.4548C20.4121 21.4548 20.1474 21.1197 20.1474 20.7118M22.0075 20.7118V19.552H21.5082V19.8348C21.3492 19.6258 21.1094 19.4948 20.7825 19.4948C20.1386 19.4948 19.6333 20.0048 19.6333 20.7133C19.6333 21.4217 20.1383 21.9318 20.7825 21.9318C21.1094 21.9318 21.3492 21.8006 21.5082 21.5918V21.8735H22.0076V20.7127L22.0075 20.7118ZM17.3262 20.7118C17.3262 21.4157 17.8114 21.9303 18.5519 21.9303C18.8979 21.9303 19.1285 21.8526 19.3778 21.6537L19.1379 21.2458C18.9503 21.382 18.7533 21.4548 18.5359 21.4548C18.1371 21.4498 17.8439 21.1586 17.8439 20.7118C17.8439 20.2651 18.1371 19.974 18.5359 19.9689C18.7528 19.9689 18.9497 20.0417 19.1379 20.1779L19.3778 19.77C19.1281 19.5711 18.8975 19.4933 18.5519 19.4933C17.8114 19.4933 17.3262 20.0078 17.3262 20.7118ZM23.7668 19.4933C23.4786 19.4933 23.2909 19.6295 23.1611 19.8333V19.552H22.666V21.8722H23.1661V20.5716C23.1661 20.1876 23.3295 19.9743 23.6561 19.9743C23.763 19.9727 23.8692 19.9926 23.9685 20.0327L24.1225 19.5571C24.0119 19.5131 23.8677 19.4938 23.7665 19.4938M10.3752 19.7365C10.1349 19.5765 9.80367 19.4938 9.43832 19.4938C8.85627 19.4938 8.48154 19.7755 8.48154 20.2365C8.48154 20.6149 8.76052 20.8483 9.27426 20.9211L9.51027 20.955C9.78422 20.9939 9.91356 21.0667 9.91356 21.1977C9.91356 21.3772 9.73158 21.4795 9.38989 21.4795C9.04385 21.4795 8.79412 21.3678 8.62572 21.2368L8.39097 21.6302C8.66492 21.8341 9.01095 21.9313 9.38569 21.9313C10.0492 21.9313 10.4337 21.6158 10.4337 21.174C10.4337 20.7661 10.1311 20.5528 9.63108 20.48L9.39563 20.4455C9.17935 20.4172 9.00605 20.3733 9.00605 20.2177C9.00605 20.0481 9.16941 19.946 9.4435 19.946C9.73676 19.946 10.0206 20.0577 10.1598 20.1449L10.3761 19.7371L10.3752 19.7365ZM16.8216 19.4942C16.5333 19.4942 16.3456 19.6303 16.2164 19.8342V19.552H15.7213V21.8722H16.2209V20.5716C16.2209 20.1876 16.3843 19.9743 16.7108 19.9743C16.8178 19.9727 16.924 19.9926 17.0233 20.0327L17.1773 19.5571C17.0667 19.5131 16.9225 19.4938 16.8213 19.4938M12.5583 19.552H11.7413V18.8481H11.2363V19.552H10.7703V20.0132H11.2363V21.0716C11.2363 21.61 11.4432 21.9306 12.0342 21.9306C12.251 21.9306 12.5007 21.8628 12.6592 21.7512L12.5149 21.3192C12.3658 21.4064 12.2024 21.4504 12.0725 21.4504C11.8228 21.4504 11.7413 21.2949 11.7413 21.062V20.0136H12.5583V19.552ZM5.08892 21.8728V20.4167C5.08892 19.8683 4.74288 19.4993 4.18505 19.4943C3.89179 19.4894 3.58929 19.5816 3.37749 19.9071C3.21903 19.6498 2.9693 19.4943 2.61823 19.4943C2.37284 19.4943 2.13305 19.5671 1.94533 19.8389V19.552H1.44531V21.8722H1.94925V20.5857C1.94925 20.183 2.17042 19.9689 2.51198 19.9689C2.84374 19.9689 3.01158 20.1873 3.01158 20.5807V21.872H3.51664V20.5855C3.51664 20.1827 3.74719 19.9686 4.07881 19.9686C4.41994 19.9686 4.58274 20.1871 4.58274 20.5804V21.8717L5.08892 21.8728Z" fill="#231F20"/>
<path d="M27.7292 14.1547V13.8154H27.6417L27.5405 14.0483L27.4398 13.8154H27.3521V14.1547H27.4142V13.8991L27.5088 14.1197H27.5732L27.6679 13.8986V14.1547H27.7294H27.7292ZM27.1741 14.1547V13.8735H27.2861V13.8163H27V13.8735H27.112V14.1547H27.1736H27.1741Z" fill="#F79410"/>
<path d="M17.782 15.6099H10.2109V1.86841H17.7822L17.782 15.6099Z" fill="#FF5F00"/>
<path d="M10.6947 8.73932C10.6947 5.95185 11.987 3.46876 13.9994 1.86855C12.4761 0.655485 10.592 -0.00288526 8.65219 9.50523e-06C3.8736 9.50523e-06 0 3.91267 0 8.73932C0 13.566 3.8736 17.4786 8.65219 17.4786C10.5921 17.4816 12.4762 16.8232 13.9995 15.6101C11.9873 14.0102 10.6947 11.5269 10.6947 8.73932Z" fill="#EB001B"/>
<path d="M28.0002 8.73932C28.0002 13.566 24.1266 17.4786 19.348 17.4786C17.4079 17.4815 15.5236 16.8231 14 15.6101C16.013 14.0099 17.3053 11.5269 17.3053 8.73932C17.3053 5.95171 16.013 3.46876 14 1.86855C15.5236 0.655522 17.4078 -0.00283452 19.3479 9.17368e-06C24.1265 9.17368e-06 28.0001 3.91267 28.0001 8.73932" fill="#F79E1B"/>
</svg>
