<svg width="32" height="25" viewBox="0 0 32 25" fill="none" xmlns="http://www.w3.org/2000/svg">
<path fill-rule="evenodd" clip-rule="evenodd" d="M1.61007 21.2872V6.43583C1.61007 5.44939 2.29449 4.64918 3.33204 4.50547C4.25528 4.37777 7.39831 4.45516 8.73182 4.4556C9.5085 4.45571 9.82609 4.53277 10.1189 3.98523C10.4255 3.41194 9.71671 1.60907 11.4566 1.60907H20.3742C21.8847 1.60907 21.4552 3.51574 21.5905 3.921C21.7715 4.46316 22.1785 4.45735 22.8513 4.45571C24.0017 4.45275 27.5447 4.38457 28.2144 4.48026C28.8093 4.56511 29.1533 4.66661 29.4952 4.99502C29.7578 5.24725 30.0969 5.71006 30.0969 6.18831V21.2873C30.0969 21.8836 29.9284 22.3486 29.6188 22.666C29.3275 22.9647 28.9234 23.3293 28.3628 23.3293H3.344C2.49788 23.3293 1.60996 22.4606 1.60996 21.2873L1.61007 21.2872ZM8.48412 2.84664C7.08478 2.84664 3.65675 2.70556 2.64773 2.95527C1.96375 3.12463 1.64485 3.39089 1.21877 3.75515C1.09393 3.86191 1.13013 3.80875 1.01967 3.92746C0.962402 3.98907 0.915889 4.05572 0.850398 4.12949C0.432768 4.59931 0 5.38888 0 6.25014V21.5966C0 23.4535 1.763 25 3.65379 25H27.9915C29.1455 25 29.9603 24.6149 30.547 24.0263C31.1808 23.3903 31.7072 22.606 31.7072 21.5966V6.1882C31.7072 5.64516 31.5476 5.24813 31.357 4.86732C30.7552 3.66559 29.5821 2.84653 28.1773 2.84653H23.1611C23.1611 1.10582 21.827 0 20.0648 0H11.7045C10.0884 0 8.98249 0.718868 8.59799 2.15584C8.54544 2.35205 8.53502 2.62872 8.48423 2.84653L8.48412 2.84664Z" fill="#828282"/>
<path fill-rule="evenodd" clip-rule="evenodd" d="M10.094 14.1092C10.094 8.41563 16.5909 6.48911 19.8945 9.82366C22.1979 12.1489 22.1583 15.828 19.9895 17.9946C19.842 18.1419 19.7674 18.1722 19.6171 18.3033C19.4693 18.4322 19.4058 18.488 19.2426 18.6097C16.7938 20.4358 13.0915 19.9723 11.1104 17.2396C10.5145 16.4174 10.094 15.2133 10.094 14.1091V14.1092ZM8.42198 13.7999C8.42198 18.0354 11.7552 21.3493 15.8533 21.3493C18.0401 21.3493 19.9418 20.3364 21.0399 19.23C23.231 17.0224 23.9497 13.7086 22.6451 10.9117C22.2262 10.0138 21.8212 9.39769 21.1637 8.74108L20.2063 7.90306C19.8332 7.62091 19.4712 7.44026 19.0326 7.21938C17.1371 6.26473 14.6149 6.24784 12.7148 7.19855C12.0727 7.51973 11.577 7.79553 11.0409 8.24857C9.52568 9.52934 8.42188 11.6609 8.42188 13.7999H8.42198Z" fill="#828282"/>
<path fill-rule="evenodd" clip-rule="evenodd" d="M25.0782 7.92089C25.0782 8.69216 25.6309 9.34262 26.4742 9.43591C27.2414 9.52064 28.0507 8.86568 28.0507 8.10658V7.79724C28.0507 6.83185 26.8338 6.17119 25.9728 6.58729C25.4929 6.81913 25.0781 7.33762 25.0781 7.92089H25.0782Z" fill="#828282"/>
</svg>
