<svg width="16" height="16" viewBox="0 0 16 16" fill="none" xmlns="http://www.w3.org/2000/svg">
<path fill-rule="evenodd" clip-rule="evenodd" d="M0.827909 2.42517C0.617841 2.21301 0.5 1.92651 0.5 1.62795C0.5 1.32939 0.617841 1.04289 0.827909 0.830728C0.931064 0.725982 1.05402 0.642797 1.18963 0.586018C1.32523 0.529239 1.47078 0.5 1.61779 0.5C1.76481 0.5 1.91035 0.529239 2.04595 0.586018C2.18156 0.642797 2.30452 0.725982 2.40768 0.830728L7.86426 6.39844L13.3208 0.830728C13.424 0.725982 13.547 0.642797 13.6826 0.586018C13.8182 0.529239 13.9637 0.5 14.1107 0.5C14.2577 0.5 14.4033 0.529239 14.5389 0.586018C14.6745 0.642797 14.7975 0.725982 14.9006 0.830728C15.1107 1.04289 15.2285 1.32939 15.2285 1.62795C15.2285 1.92651 15.1107 2.21301 14.9006 2.42517L9.74951 8L14.9006 13.5748C15.1107 13.787 15.2285 14.0735 15.2285 14.3721C15.2285 14.6706 15.1107 14.9571 14.9006 15.1693C14.7975 15.274 14.6745 15.3572 14.5389 15.414C14.4033 15.4708 14.2577 15.5 14.1107 15.5C13.9637 15.5 13.8182 15.4708 13.6826 15.414C13.547 15.3572 13.424 15.274 13.3208 15.1693L7.86426 9.60156L2.40768 15.1693C2.30452 15.274 2.18156 15.3572 2.04596 15.414C1.91035 15.4708 1.76481 15.5 1.61779 15.5C1.47078 15.5 1.32524 15.4708 1.18963 15.414C1.05402 15.3572 0.931065 15.274 0.82791 15.1693C0.617841 14.9571 0.5 14.6706 0.5 14.3721C0.5 14.0735 0.617841 13.787 0.82791 13.5748L5.979 8L0.827909 2.42517Z" fill="#FC133D"/>
</svg>
