<svg width="48" height="48" viewBox="0 0 48 48" fill="none" xmlns="http://www.w3.org/2000/svg">
<path fill-rule="evenodd" clip-rule="evenodd" d="M18.7496 2.75015H29.2496V15.9994H18.7496V2.75015V2.75015ZM0 6.12485V41.8743C0 42.6558 0.371754 43.7075 0.624546 44.2502C0.7749 44.5716 0.975647 44.8591 1.19787 45.1771C1.36144 45.4118 1.73485 45.8992 1.91742 46.0826C2.07769 46.2428 2.57667 46.6262 2.74932 46.7509C3.00294 46.9343 3.34991 47.1772 3.66549 47.335C4.22808 47.6159 5.34912 48 6.12567 48H25.5006C26.5812 48 27.0678 46.6072 26.3491 45.7761C25.7171 45.0458 24.1987 45.2498 22.8752 45.2498H7.12528C5.51682 45.2565 5.03024 45.0739 4.12068 44.3791C3.52505 43.9239 2.75098 42.7773 2.75098 41.7496V6.25042C2.75098 4.55357 4.55439 2.75015 6.25124 2.75015H16.0011V17.4997C16.0011 18.3118 16.8041 18.7496 17.6261 18.7496H30.3756C31.1976 18.7496 32.0005 18.3109 32.0005 17.4997V2.75015H41.7504C43.6141 2.75015 45.2664 4.42552 45.2515 6.99888C45.2399 8.98983 45.0739 27.618 45.3985 28.4763C45.9719 29.9931 48.0008 29.3875 48.0008 28.1244V6.37516C48.0008 4.00172 46.4163 1.70346 44.3362 0.665026C43.7736 0.384145 42.6525 0 41.876 0H6.1265C5.34499 0 4.29334 0.371754 3.75058 0.624546C1.76624 1.5498 0.000826119 3.9505 0.000826119 6.12485H0Z" fill="#FC133D"/>
<path fill-rule="evenodd" clip-rule="evenodd" d="M37.2513 43.3732C36.9201 42.8792 35.1877 41.26 34.5359 40.5892C33.01 39.0195 30.929 40.9163 32.6556 42.5941L35.6569 45.5921C36.3145 46.2506 37.0316 47.2295 38.1502 46.3984L47.1573 37.4045C47.7571 36.8088 48.0008 36.7766 48.0008 35.8728C48.0008 35.2293 47.2812 34.6229 46.7509 34.6229C45.7405 34.6229 44.7442 35.9414 44.1577 36.5288C43.2291 37.4573 37.7685 43.0262 37.2513 43.3724V43.3732Z" fill="#FC133D"/>
</svg>
