<svg width="48" height="48" viewBox="0 0 48 48" fill="none" xmlns="http://www.w3.org/2000/svg">
<path fill-rule="evenodd" clip-rule="evenodd" d="M18.7402 2.75047H29.2345V16.0003H18.7402V2.75047ZM0 6.12554V41.8751C0 42.6565 0.371034 43.708 0.623952 44.2508C0.773805 44.5722 0.9747 44.8596 1.19686 45.1775C1.36078 45.4119 1.73345 45.8997 1.91635 46.0827C2.07668 46.2431 2.57532 46.6264 2.74742 46.7511C3.00066 46.9348 3.34748 47.1777 3.6629 47.3351C4.22468 47.6157 5.34564 48 6.12206 48H25.4868C26.5669 48 27.0537 46.6071 26.3356 45.7762C25.7041 45.0462 24.1856 45.2499 22.8634 45.2499L7.12097 45.2502C5.51349 45.2567 5.02728 45.0741 4.11802 44.3797C3.52253 43.925 2.74873 42.7783 2.74873 41.7501V6.25027C2.74873 4.55356 4.55122 2.75014 6.24705 2.75014H15.9921V17.5C15.9921 18.3118 16.7944 18.7498 17.6163 18.7498H30.3593C31.1816 18.7498 31.9835 18.3115 31.9835 17.5V2.75014H41.7286C43.5909 2.75014 45.2423 4.42589 45.2275 6.99926C45.2161 8.99026 45.0499 27.6183 45.3741 28.477C45.947 29.9939 47.9753 29.388 47.9753 28.1247V6.37499C47.9753 4.00196 46.3913 1.70325 44.3124 0.664866C43.7506 0.38432 42.6296 0 41.8532 0H6.12206C5.34106 0 4.29012 0.371225 3.74764 0.624274C1.76388 1.55005 0.00032719 3.95057 0.00032719 6.12489L0 6.12554Z" fill="#FC133D"/>
<path fill-rule="evenodd" clip-rule="evenodd" d="M41.3545 37.0003C41.3545 38.7949 42.5314 38.7723 43.3536 40.0006L33.9815 39.9986C32.8612 39.9894 31.9844 40.0094 31.9844 41.5005C31.9844 43.2702 35.2193 42.7504 36.9819 42.7504C39.0641 42.7504 41.1464 42.7504 43.2286 42.7504C42.5196 43.8094 41.3545 43.9567 41.3545 45.5002C41.3545 46.4581 42.1463 46.625 42.8536 46.625C43.5594 46.625 44.9038 45.0115 45.6335 44.2814C46.0804 43.8343 46.4357 43.4784 46.8827 43.0316C48.1603 41.7539 48.5494 41.2557 46.9452 39.6565C46.174 38.8879 43.6821 36.0002 42.7287 36.0002C42.3547 36.0002 42.0438 36.084 41.7788 36.3001C41.6313 36.4199 41.3545 36.7921 41.3545 37.0003V37.0003Z" fill="#FC133D"/>
</svg>
