<svg width="50" height="48" viewBox="0 0 50 48" fill="none" xmlns="http://www.w3.org/2000/svg">
<path fill-rule="evenodd" clip-rule="evenodd" d="M3.0291 19.0032C4.36847 18.6915 9.58745 17.9829 11.2489 17.7477C12.6392 17.5521 14.0124 17.3481 15.3518 17.161C18.7313 16.6877 17.9034 17.1809 20.2176 12.5413L24.1226 4.60839C24.3261 4.20027 24.6765 3.27916 25.0014 3.04108C25.3207 3.27632 25.6344 4.11524 25.8491 4.5432L28.2255 9.31031C28.7454 10.3561 29.2201 11.4019 29.7542 12.4761C30.3023 13.5758 30.8194 14.6017 31.3478 15.6759C31.6361 16.2654 31.848 16.6679 32.5403 16.8322L42.8426 18.3514C44.1509 18.5413 45.705 18.7113 46.9737 19.0089C46.8268 19.6381 44.9958 21.1402 44.312 21.8261L42.2605 23.8837C41.9638 24.1841 41.8508 24.2578 41.5315 24.5242L38.1096 27.9508C35.6909 30.2861 36.0045 29.1014 36.8692 34.3334L38.2509 42.3513C38.3724 43.0768 38.4798 43.6663 38.5872 44.3834C38.7172 45.2677 38.2933 45.0268 37.4569 44.5194L30.5312 40.8888C30.2091 40.7245 30.0735 40.6139 29.7853 40.4609C29.2682 40.1916 28.7482 39.9706 28.2396 39.6588C27.7395 39.3527 25.4705 38.1312 24.9986 38.1312C24.4928 38.1312 22.3566 39.3215 21.831 39.6361C21.3083 39.9507 20.811 40.1293 20.2797 40.4297C18.4431 41.4613 15.9 42.6715 14.1537 43.689C13.6592 43.9781 13.0941 44.1907 12.5996 44.4826C10.9381 45.4576 11.2913 45.0891 11.7293 42.4363C11.9441 41.1411 13.7666 31.0854 13.7666 30.2748C13.7666 29.3905 12.1164 28.1803 11.2518 27.3131C10.3221 26.3806 9.46595 25.4822 8.51936 24.5696L3.29754 19.5219C3.27776 19.4992 3.13931 19.2895 3.13931 19.2895C3.05454 19.1308 3.04888 19.0599 3.02345 19.0146L3.0291 19.0032ZM0.00282566 18.7085C0.00282566 20.4288 0.647076 21.0694 1.73495 22.1605L9.01102 29.263C10.9833 31.2384 10.7234 30.5781 10.4521 32.2247C10.2232 33.605 9.98587 34.92 9.75417 36.3258C9.52811 37.6834 8.40068 43.6068 8.40068 44.8624C8.40068 45.8203 8.69455 46.5147 9.15795 47.0419C11.232 49.3971 14.4758 46.8095 16.7335 45.6758C17.05 45.5171 17.293 45.398 17.5812 45.2535L25.0014 41.3792C25.1625 41.3792 27.8864 42.8303 28.265 43.057L31.6106 44.7972C31.9158 44.9616 32.0316 45.0608 32.3566 45.2223L36.5244 47.4103C39.2286 48.7736 41.6021 47.6711 41.6021 44.6668C41.6021 43.9328 41.427 43.2299 41.3224 42.595C41.2009 41.8638 41.0907 41.2403 40.9579 40.5119L39.384 31.3008C39.2992 30.6716 40.0113 30.2465 40.9409 29.314C41.3563 28.8974 41.6982 28.5545 42.1136 28.1378C42.3312 27.9196 42.4781 27.7637 42.6985 27.5483C42.9641 27.2847 43.1195 27.2195 43.3851 26.9645C44.2159 26.1624 44.959 25.3802 45.7756 24.5639C47.3072 23.0278 50 21.0609 50 19.1024C50 18.2125 49.7768 17.4983 49.1467 16.9201C48.6832 16.495 48.0446 16.1861 47.3269 16.0047L34.2978 14.0859C33.7073 14.0037 33.8005 13.9697 33.5603 13.4567L28.2227 2.54794C27.3919 0.875764 26.5866 0 24.7075 0C23.3654 0 22.3396 1.40859 21.8112 2.47992L16.4425 13.4539C16.0836 14.2163 16.2362 13.9924 14.5804 14.2333L2.75219 15.9848C1.41848 16.3164 0 17.2404 0 18.7113L0.00282566 18.7085Z" fill="#FC133D"/>
</svg>
