<svg width="5" height="10" viewBox="0 0 5 10" fill="none" xmlns="http://www.w3.org/2000/svg">
<path d="M1.10053 9.66864C1.20013 9.66898 1.29853 9.647 1.38852 9.60431C1.47851 9.56163 1.55778 9.49932 1.62053 9.42197L4.84053 5.42197C4.93858 5.30269 4.99219 5.15306 4.99219 4.99864C4.99219 4.84422 4.93858 4.6946 4.84053 4.57531L1.5072 0.575308C1.39404 0.439163 1.23143 0.353547 1.05515 0.337294C0.878861 0.321041 0.703341 0.375482 0.567196 0.488641C0.431052 0.6018 0.345436 0.764407 0.329183 0.940692C0.31293 1.11698 0.367371 1.2925 0.480529 1.42864L3.46053 5.00197L0.58053 8.57531C0.499008 8.67316 0.447223 8.79232 0.431304 8.91869C0.415384 9.04506 0.435995 9.17334 0.490699 9.28836C0.545403 9.40338 0.631909 9.50032 0.739983 9.56771C0.848056 9.6351 0.973174 9.67013 1.10053 9.66864Z" fill="black"/>
</svg>
