<svg width="14" height="8" viewBox="0 0 14 8" fill="none" xmlns="http://www.w3.org/2000/svg">
<path d="M14.0013 6.67262C14.0018 6.50185 13.9688 6.33312 13.9048 6.17883C13.8407 6.02454 13.7473 5.88861 13.6313 5.78103L7.63125 0.260034C7.45232 0.0919101 7.22788 6.31881e-07 6.99625 6.11632e-07C6.76463 5.91382e-07 6.54018 0.09191 6.36125 0.260034L0.361252 5.97535C0.157035 6.16937 0.0286107 6.44818 0.00423091 6.75043C-0.0201488 7.05269 0.061513 7.35363 0.231252 7.58707C0.40099 7.8205 0.644902 7.9673 0.909328 7.99516C1.17375 8.02303 1.43703 7.92969 1.64125 7.73566L7.00125 2.62617L12.3613 7.56421C12.508 7.70398 12.6868 7.79277 12.8763 7.82007C13.0659 7.84736 13.2583 7.81202 13.4308 7.71823C13.6034 7.62443 13.7488 7.47611 13.8499 7.29081C13.9509 7.10551 14.0035 6.89098 14.0013 6.67262Z" fill="black"/>
</svg>
