<svg width="25" height="16" viewBox="0 0 25 16" fill="none" xmlns="http://www.w3.org/2000/svg">
<g clip-path="url(#clip0_4620_54407)">
<path d="M24.3656 3.30179C24.5573 3.83512 23.9323 5.06012 22.4906 6.97679C22.2906 7.24345 22.0198 7.59762 21.6781 8.03929C21.3448 8.46429 21.1156 8.76429 20.9906 8.93929C20.8656 9.11429 20.7385 9.32054 20.6094 9.55804C20.4802 9.79554 20.4302 9.97054 20.4594 10.083C20.4885 10.1955 20.5427 10.3393 20.6219 10.5143C20.701 10.6893 20.8365 10.8685 21.0281 11.0518C21.2198 11.2351 21.4573 11.456 21.7406 11.7143C21.774 11.731 21.7948 11.7476 21.8031 11.7643C22.9781 12.856 23.774 13.7768 24.1906 14.5268C24.2156 14.5685 24.2427 14.6205 24.2719 14.683C24.301 14.7455 24.3302 14.856 24.3594 15.0143C24.3885 15.1726 24.3865 15.3143 24.3531 15.4393C24.3198 15.5643 24.2156 15.6789 24.0406 15.783C23.8656 15.8872 23.6198 15.9393 23.3031 15.9393L20.1031 15.9893C19.9031 16.031 19.6698 16.0101 19.4031 15.9268C19.1365 15.8435 18.9198 15.7518 18.7531 15.6518L18.5031 15.5018C18.2531 15.3268 17.9615 15.0601 17.6281 14.7018C17.2948 14.3435 17.0094 14.0205 16.7719 13.733C16.5344 13.4455 16.2802 13.2039 16.0094 13.008C15.7385 12.8122 15.5031 12.7476 15.3031 12.8143C15.2781 12.8226 15.2448 12.8372 15.2031 12.858C15.1615 12.8789 15.0906 12.9393 14.9906 13.0393C14.8906 13.1393 14.801 13.2622 14.7219 13.408C14.6427 13.5539 14.5719 13.7705 14.5094 14.058C14.4469 14.3455 14.4198 14.6685 14.4281 15.0268C14.4281 15.1518 14.4135 15.2664 14.3844 15.3705C14.3552 15.4747 14.324 15.5518 14.2906 15.6018L14.2406 15.6643C14.0906 15.8226 13.8698 15.9143 13.5781 15.9393H12.1406C11.549 15.9726 10.9406 15.9039 10.3156 15.733C9.69062 15.5622 9.14271 15.3414 8.67187 15.0705C8.20104 14.7997 7.77187 14.5247 7.38437 14.2455C6.99687 13.9664 6.70312 13.7268 6.50312 13.5268L6.19062 13.2268C6.10729 13.1435 5.99271 13.0185 5.84687 12.8518C5.70104 12.6851 5.40312 12.306 4.95312 11.7143C4.50312 11.1226 4.06146 10.4935 3.62812 9.82679C3.19479 9.16012 2.68437 8.28095 2.09687 7.18929C1.50937 6.09762 0.965625 4.96429 0.465625 3.78929C0.415625 3.65595 0.390625 3.54345 0.390625 3.45179C0.390625 3.36012 0.403125 3.29345 0.428125 3.25179L0.478125 3.17679C0.603125 3.01845 0.840625 2.93929 1.19062 2.93929L4.61562 2.91429C4.71562 2.93095 4.81146 2.95804 4.90312 2.99554C4.99479 3.03304 5.06146 3.06845 5.10312 3.10179L5.16562 3.13929C5.29896 3.23095 5.39896 3.36429 5.46562 3.53929C5.63229 3.95595 5.82396 4.3872 6.04062 4.83304C6.25729 5.27887 6.42812 5.61845 6.55312 5.85179L6.75312 6.21429C6.99479 6.71429 7.22812 7.14762 7.45312 7.51429C7.67812 7.88095 7.88021 8.16637 8.05937 8.37054C8.23854 8.5747 8.41146 8.73512 8.57812 8.85179C8.74479 8.96845 8.88646 9.02679 9.00312 9.02679C9.11979 9.02679 9.23229 9.00595 9.34062 8.96429C9.35729 8.95595 9.37812 8.93512 9.40312 8.90179C9.42812 8.86845 9.47812 8.77679 9.55312 8.62679C9.62812 8.47679 9.68437 8.28095 9.72187 8.03929C9.75937 7.79762 9.79896 7.46012 9.84062 7.02679C9.88229 6.59345 9.88229 6.07262 9.84062 5.46429C9.82396 5.13095 9.78646 4.82679 9.72812 4.55179C9.66979 4.27679 9.61146 4.08512 9.55312 3.97679L9.47812 3.82679C9.26979 3.54345 8.91562 3.36429 8.41562 3.28929C8.30729 3.27262 8.32812 3.17262 8.47812 2.98929C8.61146 2.83095 8.76979 2.70595 8.95312 2.61429C9.39479 2.39762 10.3906 2.29762 11.9406 2.31429C12.624 2.32262 13.1865 2.37679 13.6281 2.47679C13.7948 2.51845 13.9344 2.5747 14.0469 2.64554C14.1594 2.71637 14.2448 2.81637 14.3031 2.94554C14.3615 3.0747 14.4052 3.20804 14.4344 3.34554C14.4635 3.48304 14.4781 3.67262 14.4781 3.91429C14.4781 4.15595 14.474 4.38512 14.4656 4.60179C14.4573 4.81845 14.4469 5.1122 14.4344 5.48304C14.4219 5.85387 14.4156 6.19762 14.4156 6.51429C14.4156 6.60595 14.4115 6.78095 14.4031 7.03929C14.3948 7.29762 14.3927 7.49762 14.3969 7.63929C14.401 7.78095 14.4156 7.9497 14.4406 8.14554C14.4656 8.34137 14.5135 8.50387 14.5844 8.63304C14.6552 8.7622 14.749 8.86429 14.8656 8.93929C14.9323 8.95595 15.0031 8.97262 15.0781 8.98929C15.1531 9.00595 15.2615 8.96012 15.4031 8.85179C15.5448 8.74345 15.7031 8.5997 15.8781 8.42054C16.0531 8.24137 16.2698 7.9622 16.5281 7.58304C16.7865 7.20387 17.0698 6.75595 17.3781 6.23929C17.8781 5.37262 18.324 4.43512 18.7156 3.42679C18.749 3.34345 18.7906 3.27054 18.8406 3.20804C18.8906 3.14554 18.9365 3.10179 18.9781 3.07679L19.0281 3.03929L19.0906 3.00804L19.2531 2.97054L19.5031 2.96429L23.1031 2.93929C23.4281 2.89762 23.6948 2.90804 23.9031 2.97054C24.1115 3.03304 24.2406 3.10179 24.2906 3.17679L24.3656 3.30179Z" fill="#3275F6"/>
</g>
<defs>
<clipPath id="clip0_4620_54407">
<rect width="24.4" height="16" fill="white"/>
</clipPath>
</defs>
</svg>
