<svg width="660" height="380" viewBox="0 0 660 380" fill="none" xmlns="http://www.w3.org/2000/svg">
    <g clip-path="url(#clip0_101_394)">
        <path d="M0 0H660V380H0V0Z" fill="#3F9C35"/>
        <path d="M0 0H660V253.333H0V0Z" fill="#ED2939"/>
        <path d="M0 0H660V126.667H0V0Z" fill="#00B9E4"/>
        <path d="M310.5 249C342.809 249 369 222.809 369 190.5C369 158.191 342.809 132 310.5 132C278.191 132 252 158.191 252 190.5C252 222.809 278.191 249 310.5 249Z" fill="white"/>
        <path d="M323.5 240C350.286 240 372 218.062 372 191C372 163.938 350.286 142 323.5 142C296.714 142 275 163.938 275 191C275 218.062 296.714 240 323.5 240Z" fill="#ED2939"/>
        <path d="M375.5 158L381.719 175.487L398.481 167.519L390.513 184.281L408 190.5L390.513 196.719L398.481 213.481L381.719 205.513L375.5 223L369.281 205.513L352.519 213.481L360.487 196.719L343 190.5L360.487 184.281L352.519 167.519L369.281 175.487L375.5 158Z" fill="white"/>
    </g>
    <defs>
        <clipPath id="clip0_101_394">
            <rect width="660" height="380" fill="white"/>
        </clipPath>
    </defs>
</svg>
