<svg width="660" height="380" viewBox="0 0 660 380" fill="none" xmlns="http://www.w3.org/2000/svg">
    <g clip-path="url(#clip0_101_887)">
        <path d="M0 0H660V380H0V0Z" fill="#C8313E"/>
        <path d="M0 253.333H660V380H0V253.333Z" fill="#4AA657"/>
        <path d="M0 0H73.3333V380H0V0Z" fill="white"/>
        <path fill-rule="evenodd" clip-rule="evenodd" d="M12.7534 0H22.3186V6.22951H25.5074V12.459H28.6956V18.6885H31.8844V24.918H35.0726V31.1475H31.8844V37.377H28.6956V43.6066H25.5074V49.8361H22.3186V56.0656H19.1304V62.2951H15.9422V56.0656H12.7534V49.8361H9.56519V43.6066H6.3776V37.377H3.1882V31.1475H0V24.918H3.1882V18.6885H6.37699V12.459H9.56519V6.22951H12.7534V0ZM15.9422 12.459H19.1304V18.6885H22.3186V24.918H25.5074V31.1475H22.3186V37.377H19.1304V43.6066H15.9422V37.377H12.7534V31.1475H9.56519V24.918H12.7534V18.6885H15.9422V12.459ZM15.9422 24.918H19.1304V31.1475H15.9422V24.918ZM0 6.22951H3.1882V12.459H0V6.22951ZM0 43.6066H3.1882V49.8361H0V43.6066ZM35.0726 0H36.9852V12.459H35.0726V0ZM35.0726 43.6066H36.9852V56.0656H35.0726V43.6066ZM6.37639 56.0656H9.56519V62.2951H12.7534V68.5246H15.9422V74.7541H12.7534V80.9836H9.56519V87.2131H6.3776V80.9836H3.1882V74.7541H0V68.5246H3.1882V62.2951H6.37699L6.37639 56.0656ZM6.37639 68.5246H9.56519V74.7541H6.37699L6.37639 68.5246ZM25.5074 56.0656H28.6956V62.2951H31.8844V68.5246H35.0726V74.7541H31.8844V80.9836H28.6956V87.2131H25.5074V80.9836H22.3186V74.7541H19.1304V68.5246H22.3186V62.2951H25.5074V56.0656ZM25.5074 68.5246H28.6956V74.7541H25.5074V68.5246ZM0 93.4426H3.1882V99.6721H0V93.4426ZM35.0726 87.2131H36.9852V99.6721H35.0726V87.2131ZM0 112.131H3.1882V105.902H6.37699V99.6721H9.56519V93.4426H12.7534V87.2131H15.9422V80.9836H19.1304V87.2131H22.3186V93.4426H25.5074V99.6721H28.6956V105.902H31.8844V112.131H35.0726V118.361H36.9852V143.279H35.0726V149.508H31.8844V155.738H28.6956V161.967H25.5074V168.197H22.3186V174.426H19.1304V190.623H12.7534V186.885H9.56519V180.656H6.3776V174.426H3.1882V168.197H0V149.508H3.1882V155.738H6.37699V161.967H9.56519V168.197H12.7534V161.967H15.9422V155.738H19.1304V149.508H22.3186V143.279H25.5074V137.049H28.6956V130.82H25.5074V124.59H22.3186V118.361H12.7534V124.59H19.131V130.82H15.9422V137.049H12.7534V143.279H9.56519V137.049H6.3776V130.82H3.1882V124.59H0V112.131ZM0 137.049H3.1882V143.279H0V137.049ZM35.0726 155.738H36.9852V161.967H35.0726V155.738ZM28.6956 168.197H31.8844V174.426H35.0726V180.656H36.9852V190.623H35.0726V186.885H31.8844V180.656H28.6956V168.197ZM22.3186 186.885H25.5074V190.623H22.3186V186.885Z" fill="#C8313E"/>
        <path fill-rule="evenodd" clip-rule="evenodd" d="M60.5799 0H51.0147V6.22951H47.8259V12.459H44.6377V18.6885H41.4489V24.918H38.2607V31.1475H41.4489V37.377H44.6377V43.6066H47.8259V49.8361H51.0147V56.0656H54.2029V62.2951H57.3911V56.0656H60.5799V49.8361H63.7681V43.6066H66.9557V37.377H70.1451V31.1475H73.3333V24.918H70.1451V18.6885H66.9563V12.459H63.7681V6.22951H60.5799V0ZM57.3911 12.459H54.2029V18.6885H51.0147V24.918H47.8259V31.1475H51.0147V37.377H54.2029V43.6066H57.3911V37.377H60.5799V31.1475H63.7681V24.918H60.5799V18.6885H57.3911V12.459ZM57.3911 24.918H54.2029V31.1475H57.3911V24.918ZM73.3333 6.22951H70.1451V12.459H73.3333V6.22951ZM73.3333 43.6066H70.1451V49.8361H73.3333V43.6066ZM38.2607 0H36.3481V12.459H38.2607V0ZM38.2607 43.6066H36.3481V56.0656H38.2607V43.6066ZM66.9569 56.0656H63.7681V62.2951H60.5799V68.5246H57.3911V74.7541H60.5799V80.9836H63.7681V87.2131H66.9557V80.9836H70.1451V74.7541H73.3333V68.5246H70.1451V62.2951H66.9563L66.9569 56.0656ZM66.9569 68.5246H63.7681V74.7541H66.9563L66.9569 68.5246ZM47.8259 56.0656H44.6377V62.2951H41.4489V68.5246H38.2607V74.7541H41.4489V80.9836H44.6377V87.2131H47.8259V80.9836H51.0147V74.7541H54.2029V68.5246H51.0147V62.2951H47.8259V56.0656ZM47.8259 68.5246H44.6377V74.7541H47.8259V68.5246ZM73.3333 93.4426H70.1451V99.6721H73.3333V93.4426ZM38.2607 87.2131H36.3481V99.6721H38.2607V87.2131ZM73.3333 112.131H70.1451V105.902H66.9563V99.6721H63.7681V93.4426H60.5799V87.2131H57.3911V80.9836H54.2029V87.2131H51.0147V93.4426H47.8259V99.6721H44.6377V105.902H41.4489V112.131H38.2607V118.361H36.3481V143.279H38.2607V149.508H41.4489V155.738H44.6377V161.967H47.8259V168.197H51.0147V174.426H54.2029V190.623H60.5799V186.885H63.7681V180.656H66.9557V174.426H70.1451V168.197H73.3333V149.508H70.1451V155.738H66.9563V161.967H63.7681V168.197H60.5799V161.967H57.3911V155.738H54.2029V149.508H51.0147V143.279H47.8259V137.049H44.6377V130.82H47.8259V124.59H51.0147V118.361H60.5799V124.59H54.2023V130.82H57.3911V137.049H60.5799V143.279H63.7681V137.049H66.9557V130.82H70.1451V124.59H73.3333V112.131ZM73.3333 137.049H70.1451V143.279H73.3333V137.049ZM38.2607 155.738H36.3481V161.967H38.2607V155.738ZM44.6377 168.197H41.4489V174.426H38.2607V180.656H36.3481V190.623H38.2607V186.885H41.4489V180.656H44.6377V168.197ZM51.0147 186.885H47.8259V190.623H51.0147V186.885Z" fill="#C8313E"/>
        <path fill-rule="evenodd" clip-rule="evenodd" d="M12.7534 380H22.3186V373.77H25.5074V367.541H28.6956V361.311H31.8844V355.082H35.0726V348.852H31.8844V342.623H28.6956V336.393H25.5074V330.164H22.3186V323.934H19.1304V317.705H15.9422V323.934H12.7534V330.164H9.56519V336.393H6.3776V342.623H3.1882V348.852H0V355.082H3.1882V361.311H6.37699V367.541H9.56519V373.77H12.7534V380ZM15.9422 367.541H19.1304V361.311H22.3186V355.082H25.5074V348.852H22.3186V342.623H19.1304V336.393H15.9422V342.623H12.7534V348.852H9.56519V355.082H12.7534V361.311H15.9422V367.541ZM15.9422 355.082H19.1304V348.852H15.9422V355.082ZM0 373.77H3.1882V367.541H0V373.77ZM0 336.393H3.1882V330.164H0V336.393ZM35.0726 380H36.9852V367.541H35.0726V380ZM35.0726 336.393H36.9852V323.934H35.0726V336.393ZM6.37639 323.934H9.56519V317.705H12.7534V311.475H15.9422V305.246H12.7534V299.016H9.56519V292.787H6.3776V299.016H3.1882V305.246H0V311.475H3.1882V317.705H6.37699L6.37639 323.934ZM6.37639 311.475H9.56519V305.246H6.37699L6.37639 311.475ZM25.5074 323.934H28.6956V317.705H31.8844V311.475H35.0726V305.246H31.8844V299.016H28.6956V292.787H25.5074V299.016H22.3186V305.246H19.1304V311.475H22.3186V317.705H25.5074V323.934ZM25.5074 311.475H28.6956V305.246H25.5074V311.475ZM0 286.557H3.1882V280.328H0V286.557ZM35.0726 292.787H36.9852V280.328H35.0726V292.787ZM0 267.869H3.1882V274.098H6.37699V280.328H9.56519V286.557H12.7534V292.787H15.9422V299.016H19.1304V292.787H22.3186V286.557H25.5074V280.328H28.6956V274.098H31.8844V267.869H35.0726V261.639H36.9852V236.721H35.0726V230.492H31.8844V224.262H28.6956V218.033H25.5074V211.803H22.3186V205.574H19.1304V189.377H12.7534V193.115H9.56519V199.344H6.3776V205.574H3.1882V211.803H0V230.492H3.1882V224.262H6.37699V218.033H9.56519V211.803H12.7534V218.033H15.9422V224.262H19.1304V230.492H22.3186V236.721H25.5074V242.951H28.6956V249.18H25.5074V255.41H22.3186V261.639H12.7534V255.41H19.131V249.18H15.9422V242.951H12.7534V236.721H9.56519V242.951H6.3776V249.18H3.1882V255.41H0V267.869ZM0 242.951H3.1882V236.721H0V242.951ZM35.0726 224.262H36.9852V218.033H35.0726V224.262ZM28.6956 211.803H31.8844V205.574H35.0726V199.344H36.9852V189.377H35.0726V193.115H31.8844V199.344H28.6956V211.803ZM22.3186 193.115H25.5074V189.377H22.3186V193.115Z" fill="#C8313E"/>
        <path fill-rule="evenodd" clip-rule="evenodd" d="M60.5799 380H51.0147V373.77H47.8259V367.541H44.6377V361.311H41.4489V355.082H38.2607V348.852H41.4489V342.623H44.6377V336.393H47.8259V330.164H51.0147V323.934H54.2029V317.705H57.3911V323.934H60.5799V330.164H63.7681V336.393H66.9557V342.623H70.1451V348.852H73.3333V355.082H70.1451V361.311H66.9563V367.541H63.7681V373.77H60.5799V380ZM57.3911 367.541H54.2029V361.311H51.0147V355.082H47.8259V348.852H51.0147V342.623H54.2029V336.393H57.3911V342.623H60.5799V348.852H63.7681V355.082H60.5799V361.311H57.3911V367.541ZM57.3911 355.082H54.2029V348.852H57.3911V355.082ZM73.3333 373.77H70.1451V367.541H73.3333V373.77ZM73.3333 336.393H70.1451V330.164H73.3333V336.393ZM38.2607 380H36.3481V367.541H38.2607V380ZM38.2607 336.393H36.3481V323.934H38.2607V336.393ZM66.9569 323.934H63.7681V317.705H60.5799V311.475H57.3911V305.246H60.5799V299.016H63.7681V292.787H66.9557V299.016H70.1451V305.246H73.3333V311.475H70.1451V317.705H66.9563L66.9569 323.934ZM66.9569 311.475H63.7681V305.246H66.9563L66.9569 311.475ZM47.8259 323.934H44.6377V317.705H41.4489V311.475H38.2607V305.246H41.4489V299.016H44.6377V292.787H47.8259V299.016H51.0147V305.246H54.2029V311.475H51.0147V317.705H47.8259V323.934ZM47.8259 311.475H44.6377V305.246H47.8259V311.475ZM73.3333 286.557H70.1451V280.328H73.3333V286.557ZM38.2607 292.787H36.3481V280.328H38.2607V292.787ZM73.3333 267.869H70.1451V274.098H66.9563V280.328H63.7681V286.557H60.5799V292.787H57.3911V299.016H54.2029V292.787H51.0147V286.557H47.8259V280.328H44.6377V274.098H41.4489V267.869H38.2607V261.639H36.3481V236.721H38.2607V230.492H41.4489V224.262H44.6377V218.033H47.8259V211.803H51.0147V205.574H54.2029V189.377H60.5799V193.115H63.7681V199.344H66.9557V205.574H70.1451V211.803H73.3333V230.492H70.1451V224.262H66.9563V218.033H63.7681V211.803H60.5799V218.033H57.3911V224.262H54.2029V230.492H51.0147V236.721H47.8259V242.951H44.6377V249.18H47.8259V255.41H51.0147V261.639H60.5799V255.41H54.2023V249.18H57.3911V242.951H60.5799V236.721H63.7681V242.951H66.9557V249.18H70.1451V255.41H73.3333V267.869ZM73.3333 242.951H70.1451V236.721H73.3333V242.951ZM38.2607 224.262H36.3481V218.033H38.2607V224.262ZM44.6377 211.803H41.4489V205.574H38.2607V199.344H36.3481V189.377H38.2607V193.115H41.4489V199.344H44.6377V211.803ZM51.0147 193.115H47.8259V189.377H51.0147V193.115Z" fill="#C8313E"/>
    </g>
    <defs>
        <clipPath id="clip0_101_887">
            <rect width="660" height="380" fill="white"/>
        </clipPath>
    </defs>
</svg>
