<svg width="660" height="380" viewBox="0 0 660 380" fill="none" xmlns="http://www.w3.org/2000/svg">
    <g clip-path="url(#clip0_101_107)">
        <path d="M0 0H660V380H0V0Z" fill="#00AFCA"/>
        <path d="M360 214.511C386.065 214.511 407.196 192.264 407.196 164.821C407.196 137.379 386.065 115.132 360 115.132C333.935 115.132 312.804 137.379 312.804 164.821C312.804 192.264 333.935 214.511 360 214.511Z" fill="#FEC50C"/>
        <path d="M360 108.356C362.806 108.319 363.858 106.472 363.858 104.256C363.858 101.302 360 87.2316 360 87.2316C360 87.2316 356.142 101.302 356.142 104.256C356.142 106.472 357.194 108.356 360 108.356Z" fill="#FEC50C"/>
        <path d="M413.632 164.821C413.667 167.776 415.421 168.884 417.526 168.884C420.332 168.884 433.696 164.821 433.696 164.821C433.696 164.821 420.332 160.759 417.526 160.759C415.421 160.759 413.632 161.867 413.632 164.821Z" fill="#FEC50C"/>
        <path d="M360 221.287C357.194 221.324 356.142 223.171 356.142 225.387C356.142 228.341 360 242.411 360 242.411C360 242.411 363.858 228.341 363.858 225.387C363.858 223.171 362.806 221.287 360 221.287Z" fill="#FEC50C"/>
        <path d="M306.368 164.821C306.333 161.867 304.579 160.759 302.474 160.759C299.668 160.759 286.304 164.821 286.304 164.821C286.304 164.821 299.668 168.884 302.474 168.884C304.579 168.884 306.368 167.776 306.368 164.821Z" fill="#FEC50C"/>
        <path d="M380.707 112.514C383.445 113.713 385.106 112.493 385.873 110.475C386.896 107.785 388.02 93.277 388.02 93.277C388.02 93.277 379.401 104.397 378.379 107.087C377.611 109.105 377.981 111.283 380.707 112.514Z" fill="#FEC50C"/>
        <path d="M409.428 186.236C408.475 188.839 409.747 190.55 411.717 191.438C414.344 192.623 428.207 194.708 428.207 194.708C428.207 194.708 417.054 185.506 414.428 184.321C412.458 183.432 410.414 183.647 409.428 186.236Z" fill="#FEC50C"/>
        <path d="M339.293 217.128C336.555 215.93 334.894 217.15 334.127 219.168C333.104 221.858 331.98 236.366 331.98 236.366C331.98 236.366 340.599 225.246 341.621 222.555C342.389 220.537 342.019 218.36 339.293 217.128Z" fill="#FEC50C"/>
        <path d="M310.572 143.407C311.525 140.804 310.253 139.093 308.283 138.204C305.656 137.019 291.793 134.935 291.793 134.935C291.793 134.935 302.946 144.137 305.572 145.322C307.542 146.21 309.586 145.995 310.572 143.407Z" fill="#FEC50C"/>
        <path d="M397.924 124.894C399.933 126.957 401.917 126.435 403.405 124.868C405.389 122.779 412.111 109.957 412.111 109.957C412.111 109.957 399.933 117.034 397.948 119.123C396.46 120.69 395.939 122.805 397.924 124.894Z" fill="#FEC50C"/>
        <path d="M397.924 204.749C395.964 206.864 396.46 208.953 397.948 210.52C399.933 212.609 412.111 219.686 412.111 219.686C412.111 219.686 405.389 206.864 403.405 204.775C401.917 203.208 399.908 202.66 397.924 204.749Z" fill="#FEC50C"/>
        <path d="M322.076 204.749C320.067 202.686 318.083 203.208 316.595 204.775C314.611 206.864 307.889 219.686 307.889 219.686C307.889 219.686 320.067 212.609 322.052 210.52C323.54 208.953 324.061 206.838 322.076 204.749Z" fill="#FEC50C"/>
        <path d="M322.076 124.894C324.036 122.779 323.54 120.69 322.052 119.123C320.067 117.034 307.889 109.957 307.889 109.957C307.889 109.957 314.611 122.779 316.595 124.868C318.083 126.435 320.092 126.983 322.076 124.894Z" fill="#FEC50C"/>
        <path d="M409.428 143.407C410.447 145.981 412.458 146.21 414.428 145.322C417.054 144.137 428.207 134.935 428.207 134.935C428.207 134.935 414.344 137.019 411.717 138.204C409.747 139.093 408.443 140.819 409.428 143.407Z" fill="#FEC50C"/>
        <path d="M380.707 217.128C377.994 218.394 377.611 220.537 378.379 222.555C379.401 225.246 388.02 236.366 388.02 236.366C388.02 236.366 386.896 221.858 385.873 219.168C385.106 217.15 383.432 215.896 380.707 217.128Z" fill="#FEC50C"/>
        <path d="M310.572 186.236C309.553 183.662 307.542 183.432 305.572 184.321C302.946 185.506 291.793 194.708 291.793 194.708C291.793 194.708 305.656 192.623 308.283 191.438C310.253 190.55 311.557 188.824 310.572 186.236Z" fill="#FEC50C"/>
        <path d="M339.293 112.514C342.006 111.249 342.389 109.105 341.622 107.087C340.599 104.397 331.98 93.277 331.98 93.277C331.98 93.277 333.104 107.785 334.127 110.475C334.894 112.493 336.568 113.746 339.293 112.514Z" fill="#FEC50C"/>
        <path d="M370.719 109.267C373.664 109.934 375.063 108.417 375.42 106.28C375.896 103.431 374.121 88.8956 374.121 88.8956C374.121 88.8956 367.815 101.499 367.339 104.348C366.982 106.485 367.781 108.565 370.719 109.267Z" fill="#FEC50C"/>
        <path d="M412.47 175.537C412.053 178.225 413.627 179.643 415.719 180.138C418.508 180.798 432.412 180.258 432.412 180.258C432.412 180.258 419.749 173.429 416.96 172.769C414.868 172.274 412.921 172.858 412.47 175.537Z" fill="#FEC50C"/>
        <path d="M349.281 220.375C346.336 219.709 344.937 221.226 344.58 223.363C344.104 226.212 345.879 240.747 345.879 240.747C345.879 240.747 352.185 228.144 352.661 225.294C353.018 223.157 352.219 221.078 349.281 220.375Z" fill="#FEC50C"/>
        <path d="M307.53 154.105C307.947 151.418 306.373 150 304.281 149.505C301.492 148.845 287.588 149.385 287.588 149.385C287.588 149.385 300.251 156.213 303.04 156.874C305.132 157.369 307.079 156.785 307.53 154.105Z" fill="#FEC50C"/>
        <path d="M389.984 117.688C392.473 119.433 394.341 118.595 395.471 116.792C396.977 114.387 400.755 100.492 400.755 100.492C400.755 100.492 390.185 109.505 388.678 111.91C387.549 113.714 387.514 115.913 389.984 117.688Z" fill="#FEC50C"/>
        <path d="M404.442 195.982C403.023 198.307 403.964 200.233 405.746 201.508C408.122 203.209 421.428 208.138 421.428 208.138C421.428 208.138 412.106 196.874 409.73 195.173C407.948 193.898 405.891 193.678 404.442 195.982Z" fill="#FEC50C"/>
        <path d="M330.015 211.955C327.527 210.21 325.659 211.047 324.529 212.851C323.023 215.256 319.245 229.151 319.245 229.151C319.245 229.151 329.815 220.138 331.322 217.733C332.451 215.929 332.485 213.73 330.015 211.955Z" fill="#FEC50C"/>
        <path d="M315.558 133.661C316.977 131.336 316.036 129.41 314.254 128.134C311.878 126.434 298.572 121.505 298.572 121.505C298.572 121.505 307.894 132.769 310.27 134.469C312.052 135.744 314.109 135.964 315.558 133.661Z" fill="#FEC50C"/>
        <path d="M404.59 133.431C406.176 135.881 408.219 135.785 409.97 134.558C412.304 132.922 421.279 121.734 421.279 121.734C421.279 121.734 408.022 126.129 405.688 127.765C403.938 128.992 403.034 130.961 404.59 133.431Z" fill="#FEC50C"/>
        <path d="M389.8 211.755C387.484 213.416 387.581 215.565 388.75 217.411C390.308 219.872 400.94 229.351 400.94 229.351C400.94 229.351 396.731 215.39 395.173 212.929C394.005 211.083 392.136 210.125 389.8 211.755Z" fill="#FEC50C"/>
        <path d="M315.41 196.211C313.824 193.761 311.781 193.857 310.03 195.084C307.696 196.72 298.721 207.909 298.721 207.909C298.721 207.909 311.978 203.514 314.312 201.878C316.062 200.651 316.966 198.682 315.41 196.211Z" fill="#FEC50C"/>
        <path d="M330.2 117.888C332.516 116.227 332.419 114.078 331.25 112.232C329.692 109.771 319.06 100.292 319.06 100.292C319.06 100.292 323.269 114.253 324.827 116.714C325.995 118.56 327.864 119.518 330.2 117.888Z" fill="#FEC50C"/>
        <path d="M412.581 153.791C413.148 156.692 415.071 157.425 417.14 156.996C419.898 156.423 432.3 149.699 432.3 149.699C432.3 149.699 418.433 148.426 415.675 148.998C413.607 149.427 412.049 150.883 412.581 153.791Z" fill="#FEC50C"/>
        <path d="M370.501 220.195C367.728 220.801 367.021 222.828 367.424 225.003C367.96 227.903 374.339 240.928 374.339 240.928C374.339 240.928 375.605 226.333 375.069 223.433C374.666 221.258 373.281 219.624 370.501 220.195Z" fill="#FEC50C"/>
        <path d="M307.419 175.852C306.852 172.951 304.928 172.218 302.86 172.647C300.102 173.22 287.7 179.944 287.7 179.944C287.7 179.944 301.567 181.217 304.324 180.645C306.393 180.215 307.951 178.76 307.419 175.852Z" fill="#FEC50C"/>
        <path d="M349.499 109.448C352.272 108.841 352.979 106.815 352.576 104.64C352.04 101.74 345.661 88.7146 345.661 88.7146C345.661 88.7146 344.395 103.31 344.931 106.209C345.334 108.384 346.719 110.019 349.499 109.448Z" fill="#FEC50C"/>
        <path d="M351.58 272.46C350.317 272.534 349.089 272.706 347.885 273.112C346.236 273.346 344.658 273.949 343.021 274.233L342.366 274.343L341.267 274.454C341.337 274.774 341.384 275.094 341.384 275.414C341.384 275.747 341.349 276.067 341.267 276.338C341.197 276.596 340.975 276.916 340.799 277.113C340.566 277.384 340.32 277.618 340.028 277.765C339.747 277.913 339.431 277.975 339.116 277.999C338.8 278.012 338.473 277.999 338.169 277.876C337.853 277.765 337.561 277.556 337.292 277.31C336.964 277.396 336.625 277.458 336.31 277.495C335.982 277.532 335.678 277.532 335.386 277.495C335.059 277.396 334.72 277.285 334.404 277.15C334.088 277.015 333.784 276.842 333.492 276.645C332.299 277.384 330.966 278.086 330.241 279.378C329.832 279.969 329.75 280.646 329.657 281.348C329.598 282.209 329.809 283.12 330.16 283.92C330.288 284.154 330.394 283.071 330.791 282.923C331.457 282.345 332.288 281.926 333.13 281.692C333.843 281.311 333.749 281.717 333.457 282.308C333.387 282.616 332.989 283.785 333.527 283.194C335.901 282.086 338.531 281.865 341.092 281.656C344.81 281.249 348.54 281.163 352.269 281.114C355.777 281.163 359.285 281.212 362.792 281.348C364.464 281.397 366.148 281.791 367.797 281.495C368.194 281.384 368.814 281.36 369.048 281.114C368.299 280.658 367.422 280.646 366.593 280.535H359.905C358.045 280.338 356.105 280.313 354.351 279.575C353.883 279.378 353.45 278.91 353.006 279.415C352.34 279.661 351.626 279.833 350.925 279.883C349.697 279.981 348.47 279.71 347.336 279.23C348.154 278.036 349.136 276.99 350.036 275.882C349.311 275.759 348.61 275.599 347.885 275.414C349.16 274.491 350.34 273.445 351.58 272.46Z" fill="#FEC50C"/>
        <path d="M406.206 285.217C403.664 286.823 401.725 283.975 399.6 283.121C398.083 283.988 397.942 286.891 396.524 288.265C394.828 290.297 392.75 287.698 392.905 285.693C390.876 287.493 389.851 291.573 386.571 291.028C385.017 289.693 383.863 286.891 382.675 290.081C381.707 291.64 379.129 293.859 377.794 291.504C377.381 289.425 376.391 286.98 375.316 290.283C374.579 292.619 372.212 294.337 369.922 293.314C368.668 292.235 370.927 288.245 369.331 288.529C366.946 290.189 365.56 294.311 362.231 293.981C360.939 292.454 363.015 289.866 361.598 288.17C359.925 290.432 358.068 293.743 355.173 293.981C353.775 292.788 355.229 289.365 354.335 288.858C351.365 290.733 348.231 294.075 344.496 293.029C345.952 287.167 352.034 285.11 357.149 284.653C365.95 283.514 375.208 285.608 383.676 282.264C385.044 281.387 388.358 280.144 387.178 278.112C386.133 276.506 389.898 277.134 390.259 275.259C390.035 272.885 391.988 273.212 393.895 273.004C402.445 272.615 410.891 274.511 419.416 274.833C420.06 279.206 415.452 282.277 411.742 280.927C409.97 281.229 407.313 276.637 407.834 279.977C407.477 281.731 407.727 284.046 406.206 285.217M333.457 276.263C335.436 278.17 336.824 275.903 338.674 275.075C344.88 272.828 350.295 268.901 355.633 264.977C358.867 262.159 361.671 258.505 366.014 257.591C374.487 254.894 383.494 255.221 391.999 252.732C398.476 243.396 409.476 240.065 418.691 234.699C420.76 234.022 421.56 232.229 422.221 230.25C425.738 224.404 430.53 219.224 436.197 215.685C438.878 214.142 442.077 213.254 445.113 213.96C444.895 217.766 442.821 221.14 440.317 223.772C442.366 223.725 444.127 222.362 446.198 222.438C446.908 226.345 442.901 228.389 440.769 230.821C441.956 231.112 446.505 231.474 444.026 232.727C440.868 235.035 437.26 236.619 434.344 239.3C437.035 239.809 437.341 240.411 434.606 241.435C433.125 242.492 430.277 242.861 430.002 244.92C432.034 246.235 429.065 247.541 427.921 247.969C425.731 248.506 423.431 249.507 426.34 251.258C425.24 253.008 422.879 253.381 420.953 253.208C421.538 255.191 422.384 257.41 419.939 258.285C414.459 262.647 408.027 265.82 401.138 266.545C409.744 267.242 418.608 265.56 425.962 260.632C426.933 259.424 432.024 258.125 429.177 257.109C427.836 256.521 424.962 255.869 424.768 254.793C428.75 252.205 433.77 253.126 438.055 251.589C438.165 250.128 434.795 250.534 433.539 250.202C430.542 249.943 430.718 249.138 433.607 248.84C437.263 247.821 441.403 247.62 444.478 245.111C441.975 243.889 438.825 244.965 436.154 243.967C440.683 241.881 446.025 241.671 450.089 238.537C451.94 236.369 447.717 237.047 446.487 237.1C443.979 237.559 442.82 236.295 445.669 235.198C450.534 231.421 456.695 228.968 460.112 223.492C460.922 222.267 462.018 218.574 459.436 219.902C456.041 221.091 453.053 225.11 449.184 223.866C456.807 217.646 464.061 210.564 469.271 201.956C469.541 199.473 465.839 199.205 464.875 201.154C459.978 206.122 455.545 211.987 449.274 215.102C455.28 209 460.245 201.773 464.577 194.284C465.506 192.056 468.002 189.378 466.647 186.904C464.464 185.001 461.732 186.743 460.597 189.02C456.79 194.253 453.899 200.361 449.003 204.623C453.289 196.011 457.727 186.843 457.835 176.909C457.822 174.864 457.432 171.852 454.794 172.234C452.703 172.628 453.2 175.924 452.337 177.59C450.439 184.377 449.548 191.727 445.655 197.669C446.531 192.154 448.064 186.405 446.887 180.836C446.337 178.348 442.52 179.418 443.012 181.882C438.451 206.204 422.95 227.475 402.677 239.78C393.395 245.31 383.026 248.875 372.478 250.491C369.64 251.145 366.571 250.761 363.859 251.78C357.287 257.085 353.308 265.963 344.987 268.743C341.257 270.695 336.394 271.091 333.728 274.738C333.497 275.205 333.448 275.745 333.457 276.263Z" fill="#FEC50C"/>
        <path d="M358.361 251.588C357.134 253.935 356.411 256.632 354.833 258.733C350.083 254.183 343.197 254.333 337.173 254.03C332.2 253.751 326.792 253.268 322.944 249.534C318.897 246.043 315.593 241.511 311.07 238.679C306.942 237.497 302.781 236.019 299.462 233.04C292.369 226.953 288.307 217.921 281.377 211.645C280.056 210.276 278.497 209.215 277.017 208.053C275.611 208.414 276.247 211.609 274.526 209.98C273.59 209.279 271.247 209.21 271.036 210.191C273.155 213.13 275.276 216.487 275.57 220.247C274.124 220.402 271.555 219.925 270.839 220.492C272.758 223.52 275.218 226.206 278.013 228.344C276.672 228.571 274.03 228.448 273.517 229.016C276.291 231.397 279.266 233.83 282.898 234.441C283.642 235.473 281.811 237.466 283.351 238.347C284.244 238.731 287.19 239.374 285.161 240.443C283.768 241.431 284.285 243.733 286.066 243.682C287.192 244.287 289.719 244.435 289.917 245.484C288.919 246.553 285.814 247.821 288.457 248.822C290.926 250.264 293.742 251.2 296.562 251.303C295.147 252.556 293.403 253.268 291.947 254.447C298.454 258.464 305.666 261.105 312.794 263.649C315.632 264.647 318.502 265.578 321.444 266.164C312.896 265.645 304.635 262.98 296.85 259.334C292.815 257.471 288.753 255.671 284.618 254.066C286.431 253.073 288.528 252.83 290.408 251.97C286.505 251.147 282.241 250.877 278.81 248.618C279.336 247.63 281.329 247.583 282.432 247.08C284.505 246.557 285.791 245.923 282.868 245.733C279.919 244.891 276.538 245.269 273.94 243.396C274.107 242.273 276.826 242.665 277.934 242.18C279.328 241.928 280.879 241.717 281.993 240.729C277.435 238.739 271.474 240.149 267.904 235.911C267.08 234.297 270.46 235.597 271.423 235.328C273.869 235.328 276.497 236.146 278.826 235.108C272.185 232.038 265.071 229.164 260.006 223.486C259.444 222.573 257.759 220.079 259.118 219.771C263.061 220.32 265.914 224.85 270.131 224.145C270.691 223.35 267.681 222.047 266.93 220.911C260.782 215.356 254.814 209.328 250.505 202.052C250.209 199.622 253.836 199.258 254.792 201.135C259.494 205.903 263.741 211.466 269.597 214.722C271.675 215.782 268.404 213.466 267.968 212.626C262.557 206.01 257.406 199.023 253.624 191.231C252.947 189.827 251.825 187.285 253.85 186.538C255.875 185.47 257.885 186.925 258.911 188.756C262.89 194.039 265.817 200.318 270.773 204.719C266.551 196.093 262.043 187.012 261.934 177.085C262.033 175.161 262.151 172.25 264.629 172.329C266.71 171.997 266.382 174.802 267.063 176.14C269.114 183.432 270.008 191.326 274.122 197.764C273.213 192.355 271.876 186.783 272.764 181.284C272.969 179.478 274.9 178.931 276.16 180.023C277.179 182.649 277.391 185.891 278.32 188.698C283.602 207.724 295.464 224.458 310.92 235.688C323.65 244.88 338.758 250.367 354.177 251.324C355.569 251.452 356.968 251.496 358.362 251.586" fill="#FEC50C"/>
        <path d="M338.788 276.813C339.247 276.813 339.619 276.422 339.619 275.939C339.619 275.456 339.247 275.065 338.788 275.065C338.33 275.065 337.958 275.456 337.958 275.939C337.958 276.422 338.33 276.813 338.788 276.813Z" fill="#FEC50C"/>
        <path d="M338.718 276.155C338.905 276.155 339.057 275.995 339.057 275.798C339.057 275.602 338.905 275.442 338.718 275.442C338.531 275.442 338.38 275.602 338.38 275.798C338.38 275.995 338.531 276.155 338.718 276.155Z" fill="#FEC50C" stroke="#00AFCA" stroke-width="0.381"/>
        <path d="M40.0693 35.6476C40.0693 35.6476 36.8229 32.6522 35.7202 34.1547C33.9466 36.5712 41.1727 48.6079 41.1727 52.8465C41.1727 59.8042 36.9441 61.6962 31.7227 62.6898C28.2192 63.3567 22.514 62.4109 22.514 62.4109C23.5883 60.8261 24.2869 60.3591 26.097 60.2326C24.0819 59.0839 22.0299 56.5904 22.0299 52.7093C22.0299 46.7238 24.2741 44.2565 24.2741 37.5088C24.2741 33.7653 21.4783 29 21.4783 29C26.4203 29.543 28.8695 34.5668 27.476 38.5818C28.2624 38.706 28.9766 38.5113 29.5901 37.8734C29.9515 38.9861 29.3806 40.2779 28.6161 41.391C29.232 41.7522 29.6843 41.5356 30.6654 41.3131C30.5721 42.4599 29.9465 43.6779 28.4155 44.8248C32.8582 43.5581 35.5918 46.9578 35.5918 50.5169C35.5918 53.2052 33.876 55.132 32.1987 55.132C31.6569 55.132 30.8606 54.8869 30.4117 54.5186C30.0948 55.2585 30.2579 56.2488 30.5839 56.9887C29.3549 56.6319 28.5746 55.8304 29.13 54.1621C28.1857 54.0668 27.4348 53.7167 26.924 53.0494C27.4415 52.3214 28.227 51.9022 29.13 51.9364C28.4425 50.3786 29.2087 49.507 30.3252 48.8C30.3252 48.8 29.6151 51.9364 31.4282 51.9364C32.2433 51.9364 32.9862 51.6448 32.9862 50.3255C32.9862 49.1769 32.0717 47.5857 29.9573 47.687C27.8432 47.7882 26.1291 49.2874 26.1291 52.9931C26.1291 56.4113 28.6404 58.1114 31.9498 58.2212C34.9337 58.3225 37.186 56.5477 37.186 53.1677C37.186 48.6695 31.2714 38.416 31.2714 34.4077C31.2714 31.3997 33.7348 29.721 36.1452 29.721C39.2707 29.721 41.9078 33.1188 41.9078 33.1188L40.0717 35.6465L40.0693 35.6476Z" fill="#FEC50C"/>
        <path d="M40.7518 116.955C40.7518 124.473 34.6041 128.337 29.7732 128.337C23.2647 128.337 19.7993 124.065 19.7993 118.472C19.7993 115.302 20.3283 113.313 21.6597 110.278C21.6597 110.278 32.3957 85.7653 36.5756 76.2844C37.0969 75.102 37.2651 73.7556 37.2651 71.7824C37.2651 68.7347 34.5726 66.2438 31.7495 66.1674C29.1759 66.0969 26.372 68.8015 26.372 71.8837C26.372 75.6271 28.1408 77.2962 29.957 77.2962C32.192 77.2962 33.0825 76.2873 33.0825 74.5645C33.0825 73.3639 32.5545 72.8447 31.7954 72.8447C29.8786 72.8447 30.4167 75.6776 30.4167 75.6776C29.4648 75.4487 28.6824 74.3806 29.1296 73.0468C28.4068 72.8715 27.7543 72.4459 27.2682 71.8329C27.7821 71.2858 28.3716 70.8637 29.1296 70.7202C28.6807 69.0927 29.2806 68.2978 30.5775 67.9633C30.3157 68.589 30.307 69.165 30.3938 69.7083C32.4352 69.0708 35.5645 70.0852 35.5645 73.9574C35.5645 77.8017 33.1342 81.0389 28.578 80.23C29.6617 80.799 30.213 81.9632 30.3245 83.2651C29.4969 82.9112 28.578 82.8608 28.578 82.8608C29.1107 83.8919 29.8506 84.7809 29.8188 86.806C28.9742 86.3843 28.1895 85.6036 27.1071 86.0976C28.8063 89.7688 26.7186 94.8182 21.4077 96.0128C23.3515 93.5111 24.3032 90.8102 24.3032 88.1212C24.3032 79.4066 22.0972 77.9419 22.0972 71.8833C22.0972 69.3482 23.284 66.611 25.6362 64.7505V64.8518C24.0816 64.3945 23.0857 63.554 22.513 62.412C26.0653 61.306 31.2289 61.3264 34.001 62.524C37.1881 62.9294 39.413 65.6136 40.0683 66.9763C40.7237 68.3375 41.997 73.2641 40.0683 77.6997C37.957 82.554 28.004 105.725 24.9008 113.009C24.2427 114.553 23.8434 116.192 23.8434 117.966C23.8434 122.428 27.5662 123.986 29.681 123.986C32.2089 123.986 34.7828 121.872 34.7828 119.231C34.7828 117.558 33.9551 116.55 32.7602 116.55C29.9029 116.55 30.0766 119.218 30.6461 120.9C28.8678 120.022 27.8341 118.455 28.1182 116.803C27.1115 116.651 26.1531 116.127 25.2687 115.032C25.9646 114.068 26.8132 113.338 28.1182 113.312C27.5483 110.749 29.1114 109.664 30.6461 109.063C30.1607 110.945 29.8421 113.11 32.7602 113.11C34.8885 113.11 36.5634 113.515 37.5404 115.033C37.5978 113.009 37.7701 105.016 37.7701 105.016C37.8931 102.013 34.1088 102.099 31.7035 102.993C32.6112 99.5334 34.473 97.663 38.7816 98.1366C37.7357 97.6563 36.6212 96.5759 36.6212 94.4944C36.6219 91.6781 38.7029 88.5581 40.069 87.6357L40.7521 116.956L40.7518 116.955Z" fill="#FEC50C"/>
        <path d="M40.7518 139.506C40.7518 131.988 34.6041 128.124 29.7732 128.124C23.2647 128.124 19.7993 132.396 19.7993 137.989C19.7993 141.159 20.3283 143.148 21.6597 146.183C21.6597 146.183 32.3957 170.696 36.5756 180.177C37.0969 181.359 37.2651 182.706 37.2651 184.679C37.2651 187.726 34.5726 190.217 31.7495 190.294C29.1759 190.364 26.372 187.66 26.372 184.577C26.372 180.834 28.1408 179.165 29.957 179.165C32.192 179.165 33.0825 180.174 33.0825 181.897C33.0825 183.097 32.5545 183.616 31.7954 183.616C29.8786 183.616 30.4167 180.784 30.4167 180.784C29.4648 181.012 28.6824 182.081 29.1296 183.414C28.4068 183.59 27.7543 184.015 27.2682 184.628C27.7821 185.175 28.3716 185.597 29.1296 185.741C28.6807 187.368 29.2806 188.163 30.5775 188.498C30.3157 187.872 30.307 187.296 30.3938 186.753C32.4352 187.39 35.5645 186.376 35.5645 182.504C35.5645 178.659 33.1342 175.422 28.578 176.231C29.6617 175.662 30.213 174.498 30.3245 173.196C29.4969 173.55 28.578 173.6 28.578 173.6C29.1107 172.569 29.8506 171.68 29.8188 169.655C28.9742 170.077 28.1895 170.858 27.1071 170.364C28.8063 166.692 26.7186 161.643 21.4077 160.448C23.3515 162.95 24.3032 165.651 24.3032 168.34C24.3032 177.055 22.0972 178.519 22.0972 184.578C22.0972 187.113 23.284 189.85 25.6362 191.711V191.609C24.0816 192.067 23.0857 192.907 22.513 194.049C26.0653 195.155 31.2289 195.135 34.001 193.937C37.1881 193.532 39.413 190.847 40.0683 189.485C40.7237 188.124 41.997 183.197 40.0683 178.761C37.957 173.907 28.004 150.736 24.9008 143.453C24.2427 141.908 23.8434 140.269 23.8434 138.495C23.8434 134.033 27.5662 132.475 29.681 132.475C32.2089 132.475 34.7828 134.59 34.7828 137.23C34.7828 138.904 33.9551 139.911 32.7602 139.911C29.9029 139.911 30.0766 137.243 30.6461 135.561C28.8678 136.439 27.8341 138.006 28.1182 139.658C27.1115 139.81 26.1531 140.334 25.2687 141.429C25.9646 142.393 26.8132 143.123 28.1182 143.149C27.5483 145.712 29.1114 146.797 30.6461 147.398C30.1607 145.516 29.8421 143.351 32.7602 143.351C34.8885 143.351 36.5634 142.946 37.5404 141.429C37.5978 143.452 37.7701 151.445 37.7701 151.445C37.8931 154.448 34.1088 154.363 31.7035 153.468C32.6112 156.928 34.473 158.798 38.7816 158.325C37.7357 158.805 36.6212 159.885 36.6212 161.967C36.6219 164.783 38.7029 167.903 40.069 168.825L40.7521 139.506L40.7518 139.506Z" fill="#FEC50C"/>
        <path d="M40.0694 35.6476C40.0694 35.6476 43.3159 32.6522 44.4185 34.1547C46.1921 36.5712 38.9661 48.6079 38.9661 52.8465C38.9661 59.8042 43.1946 61.6962 48.416 62.6898C51.9195 63.3567 57.6247 62.4109 57.6247 62.4109C56.5504 60.8261 55.8518 60.3591 54.0417 60.2326C56.0569 59.0839 58.1088 56.5904 58.1088 52.7093C58.1088 46.7238 55.8646 44.2565 55.8646 37.5088C55.8646 33.7653 58.6605 29 58.6605 29C53.7185 29.543 51.2692 34.5668 52.6628 38.5818C51.8763 38.706 51.1621 38.5113 50.5487 37.8734C50.1872 38.9861 50.7581 40.2779 51.5226 41.391C50.9068 41.7522 50.4544 41.5356 49.4734 41.3131C49.5666 42.4599 50.1923 43.6779 51.7233 44.8248C47.2806 43.5581 44.5469 46.9578 44.5469 50.5169C44.5469 53.2052 46.2627 55.132 47.94 55.132C48.4819 55.132 49.2781 54.8869 49.7271 54.5186C50.044 55.2585 49.8808 56.2488 49.5548 56.9887C50.7838 56.6319 51.5642 55.8304 51.0088 54.1621C51.953 54.0668 52.704 53.7167 53.2148 53.0494C52.6972 52.3214 51.9118 51.9022 51.0088 51.9364C51.6962 50.3786 50.9301 49.507 49.8136 48.8C49.8136 48.8 50.5237 51.9364 48.7106 51.9364C47.8954 51.9364 47.1525 51.6448 47.1525 50.3255C47.1525 49.1769 48.067 47.5857 50.1814 47.687C52.2955 47.7882 54.0097 49.2874 54.0097 52.9931C54.0097 56.4113 51.4983 58.1114 48.189 58.2212C45.205 58.3225 42.9527 56.5477 42.9527 53.1677C42.9527 48.6695 48.8673 38.416 48.8673 34.4077C48.8673 31.3997 46.4039 29.721 43.9935 29.721C40.868 29.721 38.231 33.1188 38.231 33.1188L40.067 35.6465L40.0694 35.6476Z" fill="#FEC50C"/>
        <path d="M39.387 116.955C39.387 124.473 45.5347 128.337 50.3655 128.337C56.874 128.337 60.3394 124.065 60.3394 118.472C60.3394 115.302 59.8104 113.313 58.479 110.278C58.479 110.278 47.743 85.7653 43.5631 76.2844C43.0419 75.102 42.8736 73.7556 42.8736 71.7824C42.8736 68.7347 45.5661 66.2438 48.3893 66.1674C50.9628 66.0969 53.7667 68.8015 53.7667 71.8837C53.7667 75.6271 51.9979 77.2962 50.1818 77.2962C47.9467 77.2962 47.0562 76.2873 47.0562 74.5645C47.0562 73.3639 47.5842 72.8447 48.3433 72.8447C50.2601 72.8447 49.722 75.6776 49.722 75.6776C50.674 75.4487 51.4564 74.3806 51.0091 73.0468C51.732 72.8715 52.3845 72.4459 52.8705 71.8329C52.3567 71.2858 51.7672 70.8637 51.0091 70.7202C51.4581 69.0927 50.8581 68.2978 49.5612 67.9633C49.823 68.589 49.8318 69.165 49.745 69.7083C47.7035 69.0708 44.5742 70.0852 44.5742 73.9574C44.5742 77.8017 47.0045 81.0389 51.5608 80.23C50.477 80.799 49.9257 81.9632 49.8142 83.2651C50.6419 82.9112 51.5608 82.8608 51.5608 82.8608C51.028 83.8919 50.2882 84.7809 50.3199 86.806C51.1645 86.3843 51.9493 85.6036 53.0316 86.0976C51.3324 89.7688 53.4201 94.8182 58.731 96.0128C56.7872 93.5111 55.8356 90.8102 55.8356 88.1212C55.8356 79.4066 58.0415 77.9419 58.0415 71.8833C58.0415 69.3482 56.8548 66.611 54.5025 64.7505V64.8518C56.0572 64.3945 57.0531 63.554 57.6257 62.412C54.0735 61.306 48.9099 61.3264 46.1377 62.524C42.9507 62.9294 40.7258 65.6136 40.0704 66.9763C39.415 68.3375 38.1418 73.2641 40.0704 77.6997C42.1818 82.554 52.1347 105.725 55.238 113.009C55.896 114.553 56.2953 116.192 56.2953 117.966C56.2953 122.428 52.5725 123.986 50.4578 123.986C47.9298 123.986 45.356 121.872 45.356 119.231C45.356 117.558 46.1836 116.55 47.3785 116.55C50.2358 116.55 50.0622 119.218 49.4926 120.9C51.2709 120.022 52.3046 118.455 52.0205 116.803C53.0272 116.651 53.9856 116.127 54.8701 115.032C54.1742 114.068 53.3255 113.338 52.0205 113.312C52.5904 110.749 51.0273 109.664 49.4926 109.063C49.9781 110.945 50.2966 113.11 47.3785 113.11C45.2502 113.11 43.5753 113.515 42.5983 115.033C42.5409 113.009 42.3686 105.016 42.3686 105.016C42.2456 102.013 46.0299 102.099 48.4352 102.993C47.5275 99.5334 45.6657 97.663 41.3572 98.1366C42.4031 97.6563 43.5175 96.5759 43.5175 94.4944C43.5169 91.6781 41.4359 88.5581 40.0697 87.6357L39.3866 116.956L39.387 116.955Z" fill="#FEC50C"/>
        <path d="M39.387 139.506C39.387 131.988 45.5347 128.124 50.3655 128.124C56.874 128.124 60.3394 132.396 60.3394 137.989C60.3394 141.159 59.8104 143.148 58.479 146.183C58.479 146.183 47.743 170.696 43.5631 180.177C43.0419 181.359 42.8736 182.706 42.8736 184.679C42.8736 187.726 45.5661 190.217 48.3893 190.294C50.9628 190.364 53.7667 187.66 53.7667 184.577C53.7667 180.834 51.9979 179.165 50.1818 179.165C47.9467 179.165 47.0562 180.174 47.0562 181.897C47.0562 183.097 47.5842 183.616 48.3433 183.616C50.2601 183.616 49.722 180.784 49.722 180.784C50.674 181.012 51.4564 182.081 51.0091 183.414C51.732 183.59 52.3845 184.015 52.8705 184.628C52.3567 185.175 51.7672 185.597 51.0091 185.741C51.4581 187.368 50.8581 188.163 49.5612 188.498C49.823 187.872 49.8318 187.296 49.745 186.753C47.7035 187.39 44.5742 186.376 44.5742 182.504C44.5742 178.659 47.0045 175.422 51.5608 176.231C50.477 175.662 49.9257 174.498 49.8142 173.196C50.6419 173.55 51.5608 173.6 51.5608 173.6C51.028 172.569 50.2882 171.68 50.3199 169.655C51.1645 170.077 51.9493 170.858 53.0316 170.364C51.3324 166.692 53.4201 161.643 58.731 160.448C56.7872 162.95 55.8356 165.651 55.8356 168.34C55.8356 177.055 58.0415 178.519 58.0415 184.578C58.0415 187.113 56.8548 189.85 54.5025 191.711V191.609C56.0572 192.067 57.0531 192.907 57.6257 194.049C54.0735 195.155 48.9099 195.135 46.1377 193.937C42.9507 193.532 40.7258 190.847 40.0704 189.485C39.415 188.124 38.1418 183.197 40.0704 178.761C42.1818 173.907 52.1347 150.736 55.238 143.453C55.896 141.908 56.2953 140.269 56.2953 138.495C56.2953 134.033 52.5725 132.475 50.4578 132.475C47.9298 132.475 45.356 134.59 45.356 137.23C45.356 138.904 46.1836 139.911 47.3785 139.911C50.2358 139.911 50.0622 137.243 49.4926 135.561C51.2709 136.439 52.3046 138.006 52.0205 139.658C53.0272 139.81 53.9856 140.334 54.8701 141.429C54.1742 142.393 53.3255 143.123 52.0205 143.149C52.5904 145.712 51.0273 146.797 49.4926 147.398C49.9781 145.516 50.2966 143.351 47.3785 143.351C45.2502 143.351 43.5753 142.946 42.5983 141.429C42.5409 143.452 42.3686 151.445 42.3686 151.445C42.2456 154.448 46.0299 154.363 48.4352 153.468C47.5275 156.928 45.6657 158.798 41.3572 158.325C42.4031 158.805 43.5175 159.885 43.5175 161.967C43.5169 164.783 41.4359 167.903 40.0697 168.825L39.3866 139.506L39.387 139.506Z" fill="#FEC50C"/>
        <path d="M40.0693 352.453C40.0693 352.453 36.8229 355.448 35.7202 353.946C33.9466 351.529 41.1727 339.492 41.1727 335.254C41.1727 328.296 36.9441 326.404 31.7227 325.411C28.2192 324.744 22.514 325.689 22.514 325.689C23.5883 327.274 24.2869 327.741 26.097 327.868C24.0819 329.016 22.0299 331.51 22.0299 335.391C22.0299 341.377 24.2741 343.844 24.2741 350.592C24.2741 354.335 21.4783 359.1 21.4783 359.1C26.4203 358.557 28.8695 353.534 27.476 349.519C28.2624 349.394 28.9766 349.589 29.5901 350.227C29.9515 349.114 29.3806 347.822 28.6161 346.709C29.232 346.348 29.6843 346.565 30.6654 346.787C30.5721 345.64 29.9465 344.422 28.4155 343.276C32.8582 344.542 35.5918 341.143 35.5918 337.583C35.5918 334.895 33.876 332.968 32.1987 332.968C31.6569 332.968 30.8606 333.213 30.4117 333.582C30.0948 332.842 30.2579 331.852 30.5839 331.112C29.3549 331.468 28.5746 332.27 29.13 333.938C28.1857 334.034 27.4348 334.384 26.924 335.051C27.4415 335.779 28.227 336.198 29.13 336.164C28.4425 337.722 29.2087 338.593 30.3252 339.3C30.3252 339.3 29.6151 336.164 31.4282 336.164C32.2433 336.164 32.9862 336.456 32.9862 337.775C32.9862 338.923 32.0717 340.515 29.9573 340.413C27.8432 340.312 26.1291 338.813 26.1291 335.107C26.1291 331.689 28.6404 329.989 31.9498 329.879C34.9337 329.778 37.186 331.553 37.186 334.933C37.186 339.431 31.2714 349.684 31.2714 353.693C31.2714 356.701 33.7348 358.379 36.1452 358.379C39.2707 358.379 41.9078 354.982 41.9078 354.982L40.0717 352.454L40.0693 352.453Z" fill="#FEC50C"/>
        <path d="M40.7518 271.145C40.7518 263.627 34.6041 259.763 29.7732 259.763C23.2647 259.763 19.7993 264.035 19.7993 269.628C19.7993 272.799 20.3283 274.788 21.6597 277.822C21.6597 277.822 32.3957 302.335 36.5756 311.816C37.0969 312.998 37.2651 314.345 37.2651 316.318C37.2651 319.366 34.5726 321.857 31.7495 321.933C29.1759 322.003 26.372 319.299 26.372 316.217C26.372 312.473 28.1408 310.804 29.957 310.804C32.192 310.804 33.0825 311.813 33.0825 313.536C33.0825 314.736 32.5545 315.256 31.7954 315.256C29.8786 315.256 30.4167 312.423 30.4167 312.423C29.4648 312.652 28.6824 313.72 29.1296 315.054C28.4068 315.229 27.7543 315.654 27.2682 316.267C27.7821 316.815 28.3716 317.237 29.1296 317.38C28.6807 319.008 29.2806 319.803 30.5775 320.137C30.3157 319.511 30.307 318.935 30.3938 318.392C32.4352 319.03 35.5645 318.015 35.5645 314.143C35.5645 310.299 33.1342 307.061 28.578 307.87C29.6617 307.301 30.213 306.137 30.3245 304.835C29.4969 305.189 28.578 305.24 28.578 305.24C29.1107 304.208 29.8506 303.319 29.8188 301.294C28.9742 301.716 28.1895 302.497 27.1071 302.003C28.8063 298.332 26.7186 293.282 21.4077 292.088C23.3515 294.589 24.3032 297.29 24.3032 299.979C24.3032 308.694 22.0972 310.158 22.0972 316.217C22.0972 318.752 23.284 321.489 25.6362 323.35V323.249C24.0816 323.706 23.0857 324.546 22.513 325.688C26.0653 326.794 31.2289 326.774 34.001 325.576C37.1881 325.171 39.413 322.487 40.0683 321.124C40.7237 319.763 41.997 314.836 40.0683 310.401C37.957 305.546 28.004 282.376 24.9008 275.092C24.2427 273.547 23.8434 271.908 23.8434 270.134C23.8434 265.672 27.5662 264.115 29.681 264.115C32.2089 264.115 34.7828 266.229 34.7828 268.87C34.7828 270.543 33.9551 271.55 32.7602 271.55C29.9029 271.55 30.0766 268.882 30.6461 267.2C28.8678 268.078 27.8341 269.645 28.1182 271.298C27.1115 271.449 26.1531 271.973 25.2687 273.068C25.9646 274.033 26.8132 274.762 28.1182 274.788C27.5483 277.352 29.1114 278.436 30.6461 279.037C30.1607 277.156 29.8421 274.99 32.7602 274.99C34.8885 274.99 36.5634 274.586 37.5404 273.068C37.5978 275.091 37.7701 283.084 37.7701 283.084C37.8931 286.087 34.1088 286.002 31.7035 285.108C32.6112 288.567 34.473 290.437 38.7816 289.964C37.7357 290.444 36.6212 291.524 36.6212 293.606C36.6219 296.422 38.7029 299.542 40.069 300.465L40.7521 271.145L40.7518 271.145Z" fill="#FEC50C"/>
        <path d="M40.7518 248.594C40.7518 256.113 34.6041 259.977 29.7732 259.977C23.2647 259.977 19.7993 255.704 19.7993 250.111C19.7993 246.941 20.3283 244.952 21.6597 241.918C21.6597 241.918 32.3957 217.405 36.5756 207.924C37.0969 206.741 37.2651 205.395 37.2651 203.422C37.2651 200.374 34.5726 197.883 31.7495 197.807C29.1759 197.736 26.372 200.441 26.372 203.523C26.372 207.266 28.1408 208.935 29.957 208.935C32.192 208.935 33.0825 207.927 33.0825 206.204C33.0825 205.003 32.5545 204.484 31.7954 204.484C29.8786 204.484 30.4167 207.317 30.4167 207.317C29.4648 207.088 28.6824 206.02 29.1296 204.686C28.4068 204.511 27.7543 204.085 27.2682 203.472C27.7821 202.925 28.3716 202.503 29.1296 202.359C28.6807 200.732 29.2806 199.937 30.5775 199.602C30.3157 200.228 30.307 200.804 30.3938 201.348C32.4352 200.71 35.5645 201.724 35.5645 205.597C35.5645 209.441 33.1342 212.678 28.578 211.869C29.6617 212.438 30.213 213.602 30.3245 214.904C29.4969 214.55 28.578 214.5 28.578 214.5C29.1107 215.531 29.8506 216.42 29.8188 218.445C28.9742 218.024 28.1895 217.243 27.1071 217.737C28.8063 221.408 26.7186 226.457 21.4077 227.652C23.3515 225.15 24.3032 222.449 24.3032 219.76C24.3032 211.046 22.0972 209.581 22.0972 203.523C22.0972 200.987 23.284 198.25 25.6362 196.39V196.491C24.0816 196.034 23.0857 195.193 22.513 194.051C26.0653 192.945 31.2289 192.966 34.001 194.163C37.1881 194.569 39.413 197.253 40.0683 198.616C40.7237 199.977 41.997 204.903 40.0683 209.339C37.957 214.193 28.004 237.364 24.9008 244.648C24.2427 246.193 23.8434 247.831 23.8434 249.605C23.8434 254.067 27.5662 255.625 29.681 255.625C32.2089 255.625 34.7828 253.511 34.7828 250.87C34.7828 249.197 33.9551 248.189 32.7602 248.189C29.9029 248.189 30.0766 250.858 30.6461 252.539C28.8678 251.661 27.8341 250.094 28.1182 248.442C27.1115 248.29 26.1531 247.766 25.2687 246.671C25.9646 245.707 26.8132 244.977 28.1182 244.951C27.5483 242.388 29.1114 241.304 30.6461 240.702C30.1607 242.584 29.8421 244.749 32.7602 244.749C34.8885 244.749 36.5634 245.154 37.5404 246.672C37.5978 244.648 37.7701 236.656 37.7701 236.656C37.8931 233.652 34.1088 233.738 31.7035 234.632C32.6112 231.173 34.473 229.302 38.7816 229.776C37.7357 229.296 36.6212 228.215 36.6212 226.134C36.6219 223.317 38.7029 220.197 40.069 219.275L40.7521 248.595L40.7518 248.594Z" fill="#FEC50C"/>
        <path d="M40.0694 352.453C40.0694 352.453 43.3159 355.448 44.4185 353.946C46.1921 351.529 38.9661 339.492 38.9661 335.254C38.9661 328.296 43.1946 326.404 48.416 325.411C51.9195 324.744 57.6247 325.689 57.6247 325.689C56.5504 327.274 55.8518 327.741 54.0417 327.868C56.0569 329.016 58.1088 331.51 58.1088 335.391C58.1088 341.377 55.8646 343.844 55.8646 350.592C55.8646 354.335 58.6605 359.1 58.6605 359.1C53.7185 358.557 51.2692 353.534 52.6628 349.519C51.8763 349.394 51.1621 349.589 50.5487 350.227C50.1872 349.114 50.7581 347.822 51.5226 346.709C50.9068 346.348 50.4544 346.565 49.4734 346.787C49.5666 345.64 50.1923 344.422 51.7233 343.276C47.2806 344.542 44.5469 341.143 44.5469 337.583C44.5469 334.895 46.2627 332.968 47.94 332.968C48.4819 332.968 49.2781 333.213 49.7271 333.582C50.044 332.842 49.8808 331.852 49.5548 331.112C50.7838 331.468 51.5642 332.27 51.0088 333.938C51.953 334.034 52.704 334.384 53.2148 335.051C52.6972 335.779 51.9118 336.198 51.0088 336.164C51.6962 337.722 50.9301 338.593 49.8136 339.3C49.8136 339.3 50.5237 336.164 48.7106 336.164C47.8954 336.164 47.1525 336.456 47.1525 337.775C47.1525 338.923 48.067 340.515 50.1814 340.413C52.2955 340.312 54.0097 338.813 54.0097 335.107C54.0097 331.689 51.4983 329.989 48.189 329.879C45.205 329.778 42.9527 331.553 42.9527 334.933C42.9527 339.431 48.8673 349.684 48.8673 353.693C48.8673 356.701 46.4039 358.379 43.9935 358.379C40.868 358.379 38.231 354.982 38.231 354.982L40.067 352.454L40.0694 352.453Z" fill="#FEC50C"/>
        <path d="M39.387 271.145C39.387 263.627 45.5347 259.763 50.3655 259.763C56.874 259.763 60.3394 264.035 60.3394 269.628C60.3394 272.799 59.8104 274.788 58.479 277.822C58.479 277.822 47.743 302.335 43.5631 311.816C43.0419 312.998 42.8736 314.345 42.8736 316.318C42.8736 319.366 45.5661 321.857 48.3893 321.933C50.9628 322.003 53.7667 319.299 53.7667 316.217C53.7667 312.473 51.9979 310.804 50.1818 310.804C47.9467 310.804 47.0562 311.813 47.0562 313.536C47.0562 314.736 47.5842 315.256 48.3433 315.256C50.2601 315.256 49.722 312.423 49.722 312.423C50.674 312.652 51.4564 313.72 51.0091 315.054C51.732 315.229 52.3845 315.654 52.8705 316.267C52.3567 316.815 51.7672 317.237 51.0091 317.38C51.4581 319.008 50.8581 319.803 49.5612 320.137C49.823 319.511 49.8318 318.935 49.745 318.392C47.7035 319.03 44.5742 318.015 44.5742 314.143C44.5742 310.299 47.0045 307.061 51.5608 307.87C50.477 307.301 49.9257 306.137 49.8142 304.835C50.6419 305.189 51.5608 305.24 51.5608 305.24C51.028 304.208 50.2882 303.319 50.3199 301.294C51.1645 301.716 51.9493 302.497 53.0316 302.003C51.3324 298.332 53.4201 293.282 58.731 292.088C56.7872 294.589 55.8356 297.29 55.8356 299.979C55.8356 308.694 58.0415 310.158 58.0415 316.217C58.0415 318.752 56.8548 321.489 54.5025 323.35V323.249C56.0572 323.706 57.0531 324.546 57.6257 325.688C54.0735 326.794 48.9099 326.774 46.1377 325.576C42.9507 325.171 40.7258 322.487 40.0704 321.124C39.415 319.763 38.1418 314.836 40.0704 310.401C42.1818 305.546 52.1347 282.376 55.238 275.092C55.896 273.547 56.2953 271.908 56.2953 270.134C56.2953 265.672 52.5725 264.115 50.4578 264.115C47.9298 264.115 45.356 266.229 45.356 268.87C45.356 270.543 46.1836 271.55 47.3785 271.55C50.2358 271.55 50.0622 268.882 49.4926 267.2C51.2709 268.078 52.3046 269.645 52.0205 271.298C53.0272 271.449 53.9856 271.973 54.8701 273.068C54.1742 274.033 53.3255 274.762 52.0205 274.788C52.5904 277.352 51.0273 278.436 49.4926 279.037C49.9781 277.156 50.2966 274.99 47.3785 274.99C45.2502 274.99 43.5753 274.586 42.5983 273.068C42.5409 275.091 42.3686 283.084 42.3686 283.084C42.2456 286.087 46.0299 286.002 48.4352 285.108C47.5275 288.567 45.6657 290.437 41.3572 289.964C42.4031 290.444 43.5175 291.524 43.5175 293.606C43.5169 296.422 41.4359 299.542 40.0697 300.465L39.3866 271.145L39.387 271.145Z" fill="#FEC50C"/>
        <path d="M39.387 248.594C39.387 256.113 45.5347 259.977 50.3655 259.977C56.874 259.977 60.3394 255.704 60.3394 250.111C60.3394 246.941 59.8104 244.952 58.479 241.918C58.479 241.918 47.743 217.405 43.5631 207.924C43.0419 206.741 42.8736 205.395 42.8736 203.422C42.8736 200.374 45.5661 197.883 48.3893 197.807C50.9628 197.736 53.7667 200.441 53.7667 203.523C53.7667 207.266 51.9979 208.935 50.1818 208.935C47.9467 208.935 47.0562 207.927 47.0562 206.204C47.0562 205.003 47.5842 204.484 48.3433 204.484C50.2601 204.484 49.722 207.317 49.722 207.317C50.674 207.088 51.4564 206.02 51.0091 204.686C51.732 204.511 52.3845 204.085 52.8705 203.472C52.3567 202.925 51.7672 202.503 51.0091 202.359C51.4581 200.732 50.8581 199.937 49.5612 199.602C49.823 200.228 49.8318 200.804 49.745 201.348C47.7035 200.71 44.5742 201.724 44.5742 205.597C44.5742 209.441 47.0045 212.678 51.5608 211.869C50.477 212.438 49.9257 213.602 49.8142 214.904C50.6419 214.55 51.5608 214.5 51.5608 214.5C51.028 215.531 50.2882 216.42 50.3199 218.445C51.1645 218.024 51.9493 217.243 53.0316 217.737C51.3324 221.408 53.4201 226.457 58.731 227.652C56.7872 225.15 55.8356 222.449 55.8356 219.76C55.8356 211.046 58.0415 209.581 58.0415 203.523C58.0415 200.987 56.8548 198.25 54.5025 196.39V196.491C56.0572 196.034 57.0531 195.193 57.6257 194.051C54.0735 192.945 48.9099 192.966 46.1377 194.163C42.9507 194.569 40.7258 197.253 40.0704 198.616C39.415 199.977 38.1418 204.903 40.0704 209.339C42.1818 214.193 52.1347 237.364 55.238 244.648C55.896 246.193 56.2953 247.831 56.2953 249.605C56.2953 254.067 52.5725 255.625 50.4578 255.625C47.9298 255.625 45.356 253.511 45.356 250.87C45.356 249.197 46.1836 248.189 47.3785 248.189C50.2358 248.189 50.0622 250.858 49.4926 252.539C51.2709 251.661 52.3046 250.094 52.0205 248.442C53.0272 248.29 53.9856 247.766 54.8701 246.671C54.1742 245.707 53.3255 244.977 52.0205 244.951C52.5904 242.388 51.0273 241.304 49.4926 240.702C49.9781 242.584 50.2966 244.749 47.3785 244.749C45.2502 244.749 43.5753 245.154 42.5983 246.672C42.5409 244.648 42.3686 236.656 42.3686 236.656C42.2456 233.652 46.0299 233.738 48.4352 234.632C47.5275 231.173 45.6657 229.302 41.3572 229.776C42.4031 229.296 43.5175 228.215 43.5175 226.134C43.5169 223.317 41.4359 220.197 40.0697 219.275L39.3866 248.595L39.387 248.594Z" fill="#FEC50C"/>
    </g>
    <defs>
        <clipPath id="clip0_101_107">
            <rect width="660" height="380" fill="white"/>
        </clipPath>
    </defs>
</svg>
