<svg width="660" height="380" viewBox="0 0 660 380" fill="none" xmlns="http://www.w3.org/2000/svg">
    <g clip-path="url(#clip0_101_249)">
        <path d="M0 0H660V380H0V0Z" fill="#E8112D"/>
        <path d="M324.519 260.179C329.979 274.479 318.279 296.579 329.979 306.979C326.079 291.379 339.079 274.479 335.439 260.179C331.799 245.879 319.059 245.879 324.519 260.179Z" fill="#FFEF00"/>
        <path d="M259.779 184.519C245.479 189.979 223.379 178.279 212.979 189.979C228.579 186.079 245.479 199.079 259.779 195.439C274.079 191.799 274.079 179.059 259.779 184.519Z" fill="#FFEF00"/>
        <path d="M335.439 119.779C329.979 105.479 341.679 83.3793 329.979 72.9793C333.879 88.5793 320.879 105.479 324.519 119.779C328.159 134.079 340.899 134.079 335.439 119.779Z" fill="#FFEF00"/>
        <path d="M400.179 195.439C414.479 189.979 436.579 201.679 446.979 189.979C431.379 193.879 414.479 180.879 400.179 184.519C385.879 188.159 385.879 200.899 400.179 195.439Z" fill="#FFEF00"/>
        <path d="M303.094 255.056C303.867 270.344 285.911 287.746 293.824 301.253C294.936 285.211 312.522 273.156 313.479 258.431C314.436 243.706 302.32 239.769 303.094 255.056Z" fill="#FFEF00"/>
        <path d="M264.902 163.094C249.615 163.867 232.212 145.911 218.706 153.824C234.747 154.936 246.803 172.522 261.528 173.479C276.253 174.436 280.19 162.32 264.902 163.094Z" fill="#FFEF00"/>
        <path d="M356.865 124.902C356.091 109.615 374.048 92.2122 366.134 78.7057C365.023 94.7473 347.437 106.803 346.48 121.528C345.523 136.253 357.639 140.19 356.865 124.902Z" fill="#FFEF00"/>
        <path d="M395.056 216.865C410.344 216.091 427.746 234.048 441.253 226.134C425.211 225.023 413.156 207.437 398.431 206.48C383.706 205.522 379.769 217.639 395.056 216.865Z" fill="#FFEF00"/>
        <path d="M284.3 243.563C280.311 258.341 257.856 269.343 261.208 284.634C267.223 269.721 287.674 263.69 293.134 249.982C298.595 236.273 288.288 228.785 284.3 243.563Z" fill="#FFEF00"/>
        <path d="M276.396 144.3C261.617 140.311 250.615 117.856 235.324 121.208C250.237 127.223 256.269 147.673 269.977 153.134C283.686 158.595 291.174 148.288 276.396 144.3Z" fill="#FFEF00"/>
        <path d="M375.659 136.396C379.647 121.617 402.103 110.615 398.75 95.3243C392.736 110.237 372.285 116.268 366.825 129.977C361.364 143.685 371.671 151.174 375.659 136.396Z" fill="#FFEF00"/>
        <path d="M383.563 235.659C398.341 239.647 409.343 262.103 424.634 258.75C409.721 252.736 403.69 232.285 389.982 226.825C376.273 221.364 368.785 231.671 383.563 235.659Z" fill="#FFEF00"/>
        <path d="M269.977 226.825C261.617 239.647 236.861 243.172 235.324 258.75C245.653 246.426 266.966 247.009 276.396 235.659C285.825 224.309 278.337 214.002 269.977 226.825Z" fill="#FFEF00"/>
        <path d="M293.134 129.977C280.311 121.617 276.787 96.861 261.208 95.3243C273.533 105.653 272.949 126.966 284.299 136.396C295.65 145.825 305.957 138.337 293.134 129.977Z" fill="#FFEF00"/>
        <path d="M389.982 153.134C398.341 140.311 423.098 136.787 424.634 121.208C414.306 133.533 392.992 132.949 383.563 144.3C374.134 155.65 381.622 165.957 389.982 153.134Z" fill="#FFEF00"/>
        <path d="M366.825 249.982C379.647 258.341 383.172 283.098 398.75 284.634C386.426 274.306 387.009 252.992 375.659 243.563C364.309 234.134 354.002 241.622 366.825 249.982Z" fill="#FFEF00"/>
        <path d="M261.528 206.48C249.615 216.091 224.981 211.793 218.706 226.134C232.337 217.604 252.427 224.746 264.902 216.865C277.378 208.984 273.441 196.868 261.528 206.48Z" fill="#FFEF00"/>
        <path d="M313.479 121.528C303.867 109.615 308.166 84.9812 293.824 78.7057C302.354 92.337 295.213 112.427 303.094 124.902C310.974 137.378 323.091 133.441 313.479 121.528Z" fill="#FFEF00"/>
        <path d="M398.431 173.479C410.344 163.867 434.977 168.165 441.253 153.824C427.622 162.354 407.532 155.213 395.056 163.094C382.581 170.974 386.518 183.091 398.431 173.479Z" fill="#FFEF00"/>
        <path d="M346.48 258.431C356.091 270.344 351.793 294.977 366.134 301.253C357.605 287.622 364.746 267.531 356.865 255.056C348.984 242.581 336.868 246.518 346.48 258.431Z" fill="#FFEF00"/>
        <path d="M313.605 258.461C316.76 273.439 301.747 293.437 311.676 305.539C310.265 289.521 325.748 274.862 324.39 260.169C323.032 245.476 310.449 243.483 313.605 258.461Z" fill="#FFEF00"/>
        <path d="M261.498 173.605C246.52 176.761 226.522 161.747 214.42 171.676C230.438 170.265 245.096 185.749 259.789 184.39C274.483 183.032 276.476 170.449 261.498 173.605Z" fill="#FFEF00"/>
        <path d="M346.354 121.498C343.198 106.52 358.211 86.5219 348.282 74.4197C349.694 90.4377 334.21 105.096 335.568 119.789C336.926 134.483 349.509 136.476 346.354 121.498Z" fill="#FFEF00"/>
        <path d="M398.461 206.354C413.439 203.198 433.437 218.211 445.539 208.282C429.521 209.694 414.862 194.21 400.169 195.568C385.476 196.926 383.483 209.51 398.461 206.354Z" fill="#FFEF00"/>
        <path d="M293.244 250.049C291.617 265.269 271.159 279.649 276.862 294.227C280.47 278.557 299.725 269.401 302.974 255.007C306.223 240.613 294.871 234.829 293.244 250.049Z" fill="#FFEF00"/>
        <path d="M269.909 153.244C254.689 151.617 240.31 131.159 225.731 136.862C241.402 140.47 250.558 159.725 264.952 162.974C279.346 166.223 285.13 154.871 269.909 153.244Z" fill="#FFEF00"/>
        <path d="M366.714 129.909C368.341 114.689 388.799 100.31 383.096 85.7315C379.489 101.402 360.233 110.558 356.984 124.952C353.736 139.346 365.087 145.13 366.714 129.909Z" fill="#FFEF00"/>
        <path d="M390.049 226.714C405.269 228.341 419.649 248.799 434.227 243.096C418.557 239.489 409.401 220.233 395.007 216.985C380.613 213.736 374.829 225.087 390.049 226.714Z" fill="#FFEF00"/>
        <path d="M276.48 235.757C270.229 249.73 246.329 257.084 247.248 272.711C255.521 258.922 276.663 256.164 284.201 243.479C291.739 230.793 282.73 221.785 276.48 235.757Z" fill="#FFEF00"/>
        <path d="M284.201 136.48C270.229 130.229 262.875 106.329 247.248 107.248C261.036 115.521 263.794 136.663 276.48 144.201C289.165 151.739 298.174 142.73 284.201 136.48Z" fill="#FFEF00"/>
        <path d="M383.479 144.201C389.73 130.229 413.63 122.875 412.711 107.248C404.438 121.036 383.295 123.794 375.757 136.48C368.22 149.165 377.228 158.174 383.479 144.201Z" fill="#FFEF00"/>
        <path d="M375.757 243.479C389.73 249.73 397.084 273.63 412.711 272.711C398.922 264.438 396.165 243.295 383.479 235.757C370.794 228.22 361.785 237.228 375.757 243.479Z" fill="#FFEF00"/>
        <path d="M264.952 216.985C254.689 228.341 229.686 227.95 225.732 243.096C237.861 232.539 258.821 236.45 269.909 226.714C280.998 216.979 275.215 205.628 264.952 216.985Z" fill="#FFEF00"/>
        <path d="M302.974 124.952C291.617 114.689 292.009 89.6863 276.862 85.7315C287.42 97.8606 283.509 118.821 293.244 129.909C302.98 140.998 314.331 135.214 302.974 124.952Z" fill="#FFEF00"/>
        <path d="M395.007 162.974C405.269 151.617 430.272 152.009 434.227 136.862C422.098 147.42 401.138 143.509 390.049 153.244C378.96 162.98 384.744 174.331 395.007 162.974Z" fill="#FFEF00"/>
        <path d="M356.985 255.007C368.341 265.269 367.95 290.272 383.096 294.227C372.539 282.098 376.45 261.138 366.714 250.049C356.979 238.96 345.628 244.744 356.985 255.007Z" fill="#FFEF00"/>
        <path d="M259.789 195.568C246.52 203.198 222.861 195.099 214.42 208.282C229.218 201.99 247.943 212.186 261.498 206.354C275.052 200.522 273.059 187.938 259.789 195.568Z" fill="#FFEF00"/>
        <path d="M324.39 119.789C316.761 106.52 324.859 82.8614 311.676 74.4197C317.969 89.2176 307.773 107.943 313.605 121.498C319.437 135.052 332.02 133.059 324.39 119.789Z" fill="#FFEF00"/>
        <path d="M400.169 184.39C413.439 176.761 437.097 184.859 445.539 171.676C430.741 177.969 412.015 167.773 398.461 173.605C384.906 179.437 386.899 192.02 400.169 184.39Z" fill="#FFEF00"/>
        <path d="M335.568 260.169C343.198 273.439 335.099 297.097 348.282 305.539C341.99 290.741 352.186 272.015 346.354 258.461C340.522 244.906 327.938 246.899 335.568 260.169Z" fill="#FFEF00"/>
        <path d="M329.979 260.179C368.75 260.179 400.179 228.75 400.179 189.979C400.179 151.209 368.75 119.779 329.979 119.779C291.209 119.779 259.779 151.209 259.779 189.979C259.779 228.75 291.209 260.179 329.979 260.179Z" fill="#E8112D"/>
        <path d="M329.979 244.579C362.288 244.579 388.479 218.388 388.479 186.079C388.479 153.771 362.288 127.579 329.979 127.579C297.671 127.579 271.479 153.771 271.479 186.079C271.479 218.388 297.671 244.579 329.979 244.579Z" fill="#FFEF00"/>
        <mask id="mask0_101_249" style="mask-type:luminance" maskUnits="userSpaceOnUse" x="264" y="124" width="131" height="131">
            <path d="M329.979 254.979C365.878 254.979 394.979 225.878 394.979 189.979C394.979 154.081 365.878 124.979 329.979 124.979C294.081 124.979 264.979 154.081 264.979 189.979C264.979 225.878 294.081 254.979 329.979 254.979Z" fill="white"/>
        </mask>
        <g mask="url(#mask0_101_249)">
            <path d="M270.036 236.779C270.036 210.745 280.378 185.777 298.788 167.368C317.197 148.958 342.165 138.616 368.199 138.616C394.234 138.616 419.202 148.958 437.611 167.368C456.02 185.777 466.362 210.745 466.362 236.779H467.155C467.155 211.776 457.223 187.796 439.542 170.116C421.862 152.436 397.883 142.503 372.879 142.503C347.876 142.503 323.896 152.436 306.216 170.116C288.536 187.796 278.603 211.776 278.603 236.779H270.036Z" fill="#E8112D"/>
            <path d="M284.217 236.779C284.152 224.685 286.479 212.698 291.062 201.506C295.646 190.314 302.396 180.138 310.925 171.564C319.454 162.989 329.594 156.185 340.761 151.542C351.929 146.898 363.904 144.508 375.998 144.508C388.092 144.508 400.067 146.898 411.234 151.542C422.402 156.185 432.541 162.989 441.071 171.564C449.6 180.138 456.35 190.314 460.934 201.506C465.517 212.698 467.844 224.685 467.779 236.779H468.882C468.882 213.386 459.589 190.951 443.047 174.409C426.505 157.867 404.07 148.574 380.677 148.574C357.283 148.574 334.848 157.867 318.306 174.409C301.765 190.951 292.472 213.386 292.472 236.779H284.217Z" fill="#E8112D"/>
            <path d="M383.799 150.844C361.008 150.844 339.15 159.898 323.034 176.014C306.918 192.13 297.864 213.988 297.864 236.779C297.864 259.571 306.918 281.429 323.034 297.545C339.15 313.661 361.008 322.714 383.799 322.714L388.479 319.511C366.537 319.511 345.494 310.795 329.979 295.28C314.464 279.764 305.747 258.721 305.747 236.779C305.747 214.837 314.464 193.794 329.979 178.279C345.494 162.764 366.537 154.047 388.479 154.047L383.799 150.844Z" fill="#E8112D"/>
        </g>
        <mask id="mask1_101_249" style="mask-type:luminance" maskUnits="userSpaceOnUse" x="264" y="124" width="131" height="131">
            <path d="M329.979 254.979C294.081 254.979 264.979 225.878 264.979 189.979C264.979 154.081 294.081 124.979 329.979 124.979C365.878 124.979 394.979 154.081 394.979 189.979C394.979 225.878 365.878 254.979 329.979 254.979Z" fill="white"/>
        </mask>
        <g mask="url(#mask1_101_249)">
            <path d="M389.922 236.779C389.922 210.745 379.58 185.777 361.171 167.368C342.762 148.958 317.794 138.616 291.759 138.616C265.725 138.616 240.757 148.958 222.348 167.368C203.938 185.777 193.596 210.745 193.596 236.779H192.803C192.803 211.776 202.736 187.796 220.416 170.116C238.096 152.436 262.076 142.503 287.079 142.503C312.083 142.503 336.062 152.436 353.742 170.116C371.423 187.796 381.355 211.776 381.355 236.779H389.922Z" fill="#E8112D"/>
            <path d="M375.742 236.779C375.806 224.685 373.48 212.698 368.896 201.506C364.313 190.314 357.562 180.138 349.033 171.564C340.504 162.989 330.364 156.185 319.197 151.542C308.03 146.898 296.055 144.508 283.961 144.508C271.866 144.508 259.891 146.898 248.724 151.542C237.557 156.185 227.417 162.989 218.888 171.564C210.359 180.138 203.609 190.314 199.025 201.506C194.441 212.698 192.115 224.685 192.179 236.779H191.077C191.077 213.386 200.37 190.951 216.912 174.409C233.453 157.867 255.888 148.574 279.282 148.574C302.675 148.574 325.111 157.867 341.652 174.409C358.194 190.951 367.487 213.386 367.487 236.779H375.742Z" fill="#E8112D"/>
            <path d="M276.159 150.844C298.951 150.844 320.809 159.898 336.925 176.014C353.041 192.13 362.094 213.988 362.094 236.779C362.094 259.571 353.041 281.429 336.925 297.545C320.809 313.661 298.951 322.714 276.159 322.714L271.479 319.511C293.421 319.511 314.464 310.795 329.98 295.28C345.495 279.764 354.211 258.721 354.211 236.779C354.211 214.837 345.495 193.794 329.98 178.279C314.464 162.764 293.421 154.047 271.479 154.047L276.159 150.844Z" fill="#E8112D"/>
        </g>
    </g>
    <defs>
        <clipPath id="clip0_101_249">
            <rect width="660" height="380" fill="white"/>
        </clipPath>
    </defs>
</svg>
