<svg width="660" height="380" viewBox="0 0 660 380" fill="none" xmlns="http://www.w3.org/2000/svg">
    <g clip-path="url(#clip0_101_393)">
        <path d="M0 0H660V380H0V0Z" fill="#006600"/>
        <path d="M0 0H660V271.429H0V0Z" fill="white"/>
        <path d="M0 0H660V108.571H0V0Z" fill="#CC0000"/>
        <path d="M312.674 182.757C313.421 181.473 314.567 180.466 315.937 179.89C317.307 179.314 318.827 179.199 320.268 179.564C321.709 179.929 322.992 180.753 323.923 181.912C324.854 183.071 325.382 184.501 325.427 185.987V213.355H330.573V185.987C330.618 184.501 331.146 183.071 332.077 181.912C333.008 180.753 334.291 179.929 335.732 179.564C337.173 179.199 338.693 179.314 340.063 179.89C341.434 180.466 342.579 181.473 343.326 182.757C344.131 180.331 344.348 177.748 343.96 175.221C343.571 172.694 342.589 170.296 341.092 168.223C339.596 166.15 337.629 164.462 335.353 163.298C333.077 162.134 330.557 161.527 328 161.527C325.444 161.527 322.924 162.134 320.648 163.298C318.371 164.462 316.404 166.15 314.908 168.223C313.412 170.296 312.429 172.694 312.04 175.221C311.652 177.748 311.869 180.331 312.674 182.757Z" fill="#F8C300"/>
        <path d="M316.341 175.614C318.587 175.155 320.921 175.413 323.012 176.351C325.104 177.289 326.849 178.859 328 180.842C329.151 178.859 330.896 177.289 332.988 176.351C335.079 175.413 337.413 175.155 339.659 175.614C339.272 172.797 337.878 170.215 335.734 168.346C333.591 166.477 330.844 165.448 328 165.448C325.156 165.448 322.409 166.477 320.266 168.346C318.122 170.215 316.728 172.797 316.341 175.614Z" fill="white"/>
        <path d="M325.427 202.422C325.079 206.305 323.646 210.012 321.292 213.12C318.938 216.228 315.758 218.612 312.114 219.999C308.471 221.387 304.511 221.723 300.686 220.968C296.861 220.213 293.325 218.399 290.481 215.732C289.266 218.782 287.373 221.515 284.944 223.724C282.515 225.933 279.615 227.561 276.464 228.482C273.313 229.403 269.993 229.595 266.757 229.042C263.52 228.49 260.453 227.207 257.786 225.293C259.783 245.231 289.67 241.16 291.897 221.774C301.286 238.257 321.932 233.536 327.973 213.344L325.427 202.422Z" fill="#F8C300"/>
        <path d="M330.573 202.422C330.921 206.305 332.354 210.012 334.708 213.12C337.062 216.228 340.242 218.612 343.886 219.999C347.529 221.387 351.489 221.723 355.314 220.968C359.139 220.213 362.675 218.399 365.519 215.732C366.734 218.782 368.627 221.515 371.056 223.724C373.485 225.933 376.385 227.561 379.536 228.482C382.687 229.403 386.007 229.595 389.243 229.042C392.48 228.49 395.547 227.207 398.214 225.293C396.217 245.231 366.33 241.16 364.103 221.774C354.714 238.257 334.068 233.536 328.027 213.344L330.573 202.422Z" fill="#F8C300"/>
        <path d="M305.471 237.827C301.301 246.829 292.967 248.375 285.676 241.108C285.676 241.108 288.607 239.038 291.744 238.467C291.156 235.963 292.363 232.5 294.062 230.626C295.846 231.845 298.334 234.288 298.967 237.126C303.362 236.557 305.471 237.828 305.471 237.828V237.827Z" fill="#F8C300"/>
        <path d="M338.092 236.808C332.513 245.011 324.038 245.179 318.028 236.823C318.028 236.823 321.256 235.257 324.445 235.204C324.272 232.638 326.027 229.417 328.008 227.846C329.569 229.339 331.627 232.154 331.789 235.057C336.218 235.211 338.092 236.808 338.092 236.808L338.092 236.808Z" fill="#F8C300"/>
        <path d="M370.445 241.113C363.604 248.298 355.214 247.085 350.645 237.861C350.645 237.861 354.086 236.842 357.24 237.309C357.487 234.749 359.743 231.857 361.954 230.629C363.251 232.357 364.823 235.469 364.511 238.36C368.856 239.233 370.445 241.114 370.445 241.114L370.445 241.113Z" fill="#F8C300"/>
        <path d="M274.906 257.909C309.551 247.597 346.449 247.597 381.094 257.909" stroke="#F8C300" stroke-width="16"/>
        <path d="M328 113.58L336.263 139.012L314.63 123.294H341.37L319.737 139.012L328 113.58Z" fill="#F8C300"/>
        <path d="M289.685 123.847L297.948 149.278L276.315 133.561H303.055L281.422 149.278L289.685 123.847Z" fill="#F8C300"/>
        <path d="M261.636 151.895L269.899 177.327L248.266 161.609H275.006L253.373 177.327L261.636 151.895Z" fill="#F8C300"/>
        <path d="M251.37 190.21L259.633 215.642L238 199.924H264.74L243.107 215.642L251.37 190.21Z" fill="#F8C300"/>
        <path d="M366.315 123.847L358.052 149.278L379.685 133.561H352.945L374.578 149.278L366.315 123.847Z" fill="#F8C300"/>
        <path d="M394.364 151.895L386.101 177.327L407.734 161.609H380.994L402.627 177.327L394.364 151.895Z" fill="#F8C300"/>
        <path d="M404.63 190.21L396.367 215.642L418 199.924H391.26L412.893 215.642L404.63 190.21Z" fill="#F8C300"/>
    </g>
    <defs>
        <clipPath id="clip0_101_393">
            <rect width="660" height="380" fill="white"/>
        </clipPath>
    </defs>
</svg>
