<svg width="660" height="380" viewBox="0 0 660 380" fill="none" xmlns="http://www.w3.org/2000/svg">
    <g clip-path="url(#clip0_101_885)">
        <path d="M0 0H660V380H0V0Z" fill="#1EB53A"/>
        <path d="M0 0H660V190H0V0Z" fill="#0099B5"/>
        <path d="M0 121.6H660V258.4H0V121.6Z" fill="#CE1126"/>
        <path d="M0 129.2H660V250.8H0V129.2Z" fill="white"/>
        <path d="M69.8 107.6C95.6469 107.6 116.6 86.6469 116.6 60.8C116.6 34.9531 95.6469 14 69.8 14C43.9531 14 23 34.9531 23 60.8C23 86.6469 43.9531 107.6 69.8 107.6Z" fill="white"/>
        <path d="M85.4 107.6C111.247 107.6 132.2 86.6469 132.2 60.8C132.2 34.9531 111.247 14 85.4 14C59.553 14 38.6 34.9531 38.6 60.8C38.6 86.6469 59.553 107.6 85.4 107.6Z" fill="#0099B5"/>
        <path d="M172.76 88.88L169.868 97.7819L174.319 99.2281" fill="white"/>
        <path d="M172.76 88.88L175.652 97.7819L171.201 99.2281" fill="white"/>
        <path d="M181.662 95.3477H172.302V100.028" fill="white"/>
        <path d="M181.662 95.3477L174.089 100.849L171.339 97.0631" fill="white"/>
        <path d="M163.858 95.3475L171.43 100.849L174.181 97.063" fill="white"/>
        <path d="M163.858 95.3475H173.218V100.028" fill="white"/>
        <path d="M178.262 105.812L175.369 96.9105L170.918 98.3567" fill="white"/>
        <path d="M178.262 105.812L170.689 100.311L173.44 96.5245" fill="white"/>
        <path d="M167.258 105.812L174.831 100.311L172.08 96.5245" fill="white"/>
        <path d="M167.258 105.812L170.151 96.9105L174.602 98.3567" fill="white"/>
        <path d="M172.76 51.4399L169.868 60.3418L174.319 61.788" fill="white"/>
        <path d="M172.76 51.4399L175.652 60.3418L171.201 61.788" fill="white"/>
        <path d="M181.662 57.9076H172.302V62.5876" fill="white"/>
        <path d="M181.662 57.9076L174.089 63.4093L171.339 59.6231" fill="white"/>
        <path d="M163.858 57.9075L171.43 63.4091L174.181 59.6229" fill="white"/>
        <path d="M163.858 57.9075H173.218V62.5875" fill="white"/>
        <path d="M178.262 68.3723L175.369 59.4704L170.918 60.9166" fill="white"/>
        <path d="M178.262 68.3723L170.689 62.8706L173.44 59.0844" fill="white"/>
        <path d="M167.258 68.3723L174.831 62.8706L172.08 59.0844" fill="white"/>
        <path d="M167.258 68.3723L170.151 59.4704L174.602 60.9166" fill="white"/>
        <path d="M172.76 14L169.868 22.9019L174.319 24.3481" fill="white"/>
        <path d="M172.76 14L175.652 22.9019L171.201 24.3481" fill="white"/>
        <path d="M181.662 20.4677H172.302V25.1477" fill="white"/>
        <path d="M181.662 20.4677L174.089 25.9693L171.339 22.1831" fill="white"/>
        <path d="M163.858 20.4675L171.43 25.9692L174.181 22.183" fill="white"/>
        <path d="M163.858 20.4675H173.218V25.1475" fill="white"/>
        <path d="M178.262 30.9324L175.369 22.0305L170.918 23.4767" fill="white"/>
        <path d="M178.262 30.9324L170.689 25.4307L173.44 21.6445" fill="white"/>
        <path d="M167.258 30.9324L174.831 25.4307L172.08 21.6445" fill="white"/>
        <path d="M167.258 30.9324L170.151 22.0305L174.602 23.4767" fill="white"/>
        <path d="M210.2 88.88L207.308 97.7819L211.759 99.2281" fill="white"/>
        <path d="M210.2 88.88L213.092 97.7819L208.641 99.2281" fill="white"/>
        <path d="M219.102 95.3477H209.742V100.028" fill="white"/>
        <path d="M219.102 95.3477L211.529 100.849L208.779 97.0631" fill="white"/>
        <path d="M201.298 95.3475L208.87 100.849L211.621 97.063" fill="white"/>
        <path d="M201.298 95.3475H210.658V100.028" fill="white"/>
        <path d="M215.702 105.812L212.809 96.9105L208.358 98.3567" fill="white"/>
        <path d="M215.702 105.812L208.129 100.311L210.88 96.5245" fill="white"/>
        <path d="M204.698 105.812L212.271 100.311L209.52 96.5245" fill="white"/>
        <path d="M204.698 105.812L207.591 96.9105L212.042 98.3567" fill="white"/>
        <path d="M210.2 51.4399L207.308 60.3418L211.759 61.788" fill="white"/>
        <path d="M210.2 51.4399L213.092 60.3418L208.641 61.788" fill="white"/>
        <path d="M219.102 57.9076H209.742V62.5876" fill="white"/>
        <path d="M219.102 57.9076L211.529 63.4093L208.779 59.6231" fill="white"/>
        <path d="M201.298 57.9075L208.87 63.4091L211.621 59.6229" fill="white"/>
        <path d="M201.298 57.9075H210.658V62.5875" fill="white"/>
        <path d="M215.702 68.3723L212.809 59.4704L208.358 60.9166" fill="white"/>
        <path d="M215.702 68.3723L208.129 62.8706L210.88 59.0844" fill="white"/>
        <path d="M204.698 68.3723L212.271 62.8706L209.52 59.0844" fill="white"/>
        <path d="M204.698 68.3723L207.591 59.4704L212.042 60.9166" fill="white"/>
        <path d="M210.2 14L207.308 22.9019L211.759 24.3481" fill="white"/>
        <path d="M210.2 14L213.092 22.9019L208.641 24.3481" fill="white"/>
        <path d="M219.102 20.4677H209.742V25.1477" fill="white"/>
        <path d="M219.102 20.4677L211.529 25.9693L208.779 22.1831" fill="white"/>
        <path d="M201.298 20.4675L208.87 25.9692L211.621 22.183" fill="white"/>
        <path d="M201.298 20.4675H210.658V25.1475" fill="white"/>
        <path d="M215.702 30.9324L212.809 22.0305L208.358 23.4767" fill="white"/>
        <path d="M215.702 30.9324L208.129 25.4307L210.88 21.6445" fill="white"/>
        <path d="M204.698 30.9324L212.271 25.4307L209.52 21.6445" fill="white"/>
        <path d="M204.698 30.9324L207.591 22.0305L212.042 23.4767" fill="white"/>
        <path d="M247.64 88.88L244.748 97.7819L249.199 99.2281" fill="white"/>
        <path d="M247.64 88.88L250.532 97.7819L246.081 99.2281" fill="white"/>
        <path d="M256.542 95.3477H247.182V100.028" fill="white"/>
        <path d="M256.542 95.3477L248.969 100.849L246.219 97.0631" fill="white"/>
        <path d="M238.738 95.3475L246.31 100.849L249.061 97.063" fill="white"/>
        <path d="M238.738 95.3475H248.098V100.028" fill="white"/>
        <path d="M253.142 105.812L250.249 96.9105L245.798 98.3567" fill="white"/>
        <path d="M253.142 105.812L245.569 100.311L248.32 96.5245" fill="white"/>
        <path d="M242.138 105.812L249.711 100.311L246.96 96.5245" fill="white"/>
        <path d="M242.138 105.812L245.031 96.9105L249.482 98.3567" fill="white"/>
        <path d="M247.64 51.4399L244.748 60.3418L249.199 61.788" fill="white"/>
        <path d="M247.64 51.4399L250.532 60.3418L246.081 61.788" fill="white"/>
        <path d="M256.542 57.9076H247.182V62.5876" fill="white"/>
        <path d="M256.542 57.9076L248.969 63.4093L246.219 59.6231" fill="white"/>
        <path d="M238.738 57.9075L246.31 63.4091L249.061 59.6229" fill="white"/>
        <path d="M238.738 57.9075H248.098V62.5875" fill="white"/>
        <path d="M253.142 68.3723L250.249 59.4704L245.798 60.9166" fill="white"/>
        <path d="M253.142 68.3723L245.569 62.8706L248.32 59.0844" fill="white"/>
        <path d="M242.138 68.3723L249.711 62.8706L246.96 59.0844" fill="white"/>
        <path d="M242.138 68.3723L245.031 59.4704L249.482 60.9166" fill="white"/>
        <path d="M247.64 14L244.748 22.9019L249.199 24.3481" fill="white"/>
        <path d="M247.64 14L250.532 22.9019L246.081 24.3481" fill="white"/>
        <path d="M256.542 20.4677H247.182V25.1477" fill="white"/>
        <path d="M256.542 20.4677L248.969 25.9693L246.219 22.1831" fill="white"/>
        <path d="M238.738 20.4675L246.31 25.9692L249.061 22.183" fill="white"/>
        <path d="M238.738 20.4675H248.098V25.1475" fill="white"/>
        <path d="M253.142 30.9324L250.249 22.0305L245.798 23.4767" fill="white"/>
        <path d="M253.142 30.9324L245.569 25.4307L248.32 21.6445" fill="white"/>
        <path d="M242.138 30.9324L249.711 25.4307L246.96 21.6445" fill="white"/>
        <path d="M242.138 30.9324L245.031 22.0305L249.482 23.4767" fill="white"/>
        <path d="M97.88 88.88L94.9876 97.7819L99.4385 99.2281" fill="white"/>
        <path d="M97.88 88.88L100.772 97.7819L96.3214 99.2281" fill="white"/>
        <path d="M106.782 95.3477H97.4219V100.028" fill="white"/>
        <path d="M106.782 95.3477L99.2095 100.849L96.4586 97.0631" fill="white"/>
        <path d="M88.9781 95.3475L96.5505 100.849L99.3013 97.063" fill="white"/>
        <path d="M88.9781 95.3475H98.3381V100.028" fill="white"/>
        <path d="M103.382 105.812L100.489 96.9105L96.0383 98.3567" fill="white"/>
        <path d="M103.382 105.812L95.8093 100.311L98.5601 96.5245" fill="white"/>
        <path d="M92.3783 105.812L99.9507 100.311L97.1999 96.5245" fill="white"/>
        <path d="M92.3783 105.812L95.2707 96.9105L99.7217 98.3567" fill="white"/>
        <path d="M135.32 88.88L132.428 97.7819L136.879 99.2281" fill="white"/>
        <path d="M135.32 88.88L138.212 97.7819L133.761 99.2281" fill="white"/>
        <path d="M144.222 95.3477H134.862V100.028" fill="white"/>
        <path d="M144.222 95.3477L136.649 100.849L133.899 97.0631" fill="white"/>
        <path d="M126.418 95.3475L133.99 100.849L136.741 97.063" fill="white"/>
        <path d="M126.418 95.3475H135.778V100.028" fill="white"/>
        <path d="M140.822 105.812L137.929 96.9105L133.478 98.3567" fill="white"/>
        <path d="M140.822 105.812L133.249 100.311L136 96.5245" fill="white"/>
        <path d="M129.818 105.812L137.391 100.311L134.64 96.5245" fill="white"/>
        <path d="M129.818 105.812L132.711 96.9105L137.162 98.3567" fill="white"/>
        <path d="M135.32 51.4399L132.428 60.3418L136.879 61.788" fill="white"/>
        <path d="M135.32 51.4399L138.212 60.3418L133.761 61.788" fill="white"/>
        <path d="M144.222 57.9076H134.862V62.5876" fill="white"/>
        <path d="M144.222 57.9076L136.649 63.4093L133.899 59.6231" fill="white"/>
        <path d="M126.418 57.9075L133.99 63.4091L136.741 59.6229" fill="white"/>
        <path d="M126.418 57.9075H135.778V62.5875" fill="white"/>
        <path d="M140.822 68.3723L137.929 59.4704L133.478 60.9166" fill="white"/>
        <path d="M140.822 68.3723L133.249 62.8706L136 59.0844" fill="white"/>
        <path d="M129.818 68.3723L137.391 62.8706L134.64 59.0844" fill="white"/>
        <path d="M129.818 68.3723L132.711 59.4704L137.162 60.9166" fill="white"/>
    </g>
    <defs>
        <clipPath id="clip0_101_885">
            <rect width="660" height="380" fill="white"/>
        </clipPath>
    </defs>
</svg>
