<svg width="34" height="16" viewBox="0 0 34 16" fill="none" xmlns="http://www.w3.org/2000/svg">
<path d="M6.26343 2.79893C6.64735 2.30618 6.92157 1.64918 6.8393 0.992188C6.26343 1.01956 5.57787 1.37544 5.16653 1.84081C4.81004 2.25143 4.48097 2.9358 4.56324 3.56543C5.22138 3.64755 5.85209 3.29168 6.26343 2.79893ZM6.8393 3.72968C5.90694 3.67493 5.11169 4.2498 4.67293 4.2498C4.23417 4.2498 3.54861 3.75705 2.8082 3.75705C1.84841 3.78443 0.970894 4.30455 0.477289 5.18055C-0.50992 6.90516 0.203064 9.45103 1.19027 10.8471C1.65646 11.5315 2.23233 12.298 2.97273 12.2706C3.68572 12.2433 3.95994 11.8053 4.81004 11.8053C5.66014 11.8053 5.90694 12.2706 6.67477 12.2433C7.4426 12.2159 7.9362 11.5589 8.40238 10.8471C8.95083 10.0533 9.17021 9.28678 9.17021 9.25941C9.14279 9.23203 7.66198 8.68453 7.66198 6.98729C7.63456 5.56379 8.81372 4.87942 8.86857 4.85205C8.23785 3.86655 7.1958 3.75705 6.8393 3.72968Z" fill="black"/>
<path d="M14.9057 1.78589C16.935 1.78589 18.3335 3.18201 18.3335 5.18038C18.3335 7.20612 16.9076 8.60224 14.8509 8.60224H12.6296V12.1336H11.0117V1.78589H14.9057ZM12.6296 7.26087H14.467C15.8655 7.26087 16.6607 6.49437 16.6607 5.20775C16.6607 3.89376 15.8655 3.15463 14.467 3.15463H12.6022V7.26087H12.6296ZM18.7449 10.0257C18.7449 8.71174 19.7595 7.89049 21.5694 7.78099L23.6535 7.67149V7.09662C23.6535 6.248 23.0776 5.75525 22.1452 5.75525C21.2403 5.75525 20.6919 6.19325 20.5547 6.85024H19.0739C19.1562 5.4815 20.3354 4.46863 22.2001 4.46863C24.0374 4.46863 25.2166 5.42675 25.2166 6.95974V12.161H23.7357V10.9291H23.7083C23.2696 11.7777 22.3098 12.2978 21.3226 12.2978C19.7869 12.2978 18.7449 11.3671 18.7449 10.0257ZM23.6535 9.34136V8.73911L21.7888 8.84861C20.8564 8.90336 20.3354 9.31398 20.3354 9.97098C20.3354 10.628 20.8838 11.066 21.7065 11.066C22.8034 11.066 23.6535 10.3269 23.6535 9.34136ZM26.5877 14.9532V13.694C26.6974 13.7213 26.9716 13.7213 27.0813 13.7213C27.7943 13.7213 28.1782 13.4202 28.425 12.6537C28.425 12.6263 28.5621 12.1883 28.5621 12.1883L25.8199 4.63288H27.4926L29.4122 10.7922H29.4396L31.3592 4.63288H33.0045L30.18 12.599C29.5219 14.4331 28.7815 15.008 27.2184 15.008C27.1087 14.9806 26.7248 14.9806 26.5877 14.9532Z" fill="black"/>
</svg>
