<svg width="22" height="22" viewBox="0 0 22 22" fill="none" xmlns="http://www.w3.org/2000/svg">
<path d="M0.975 4.09966V19.4994C0.975 19.9089 1.17578 20.29 1.45907 20.5683C1.74212 20.8463 2.11059 21.0245 2.45003 21.0245H17.9501C18.3058 21.0245 18.6743 20.8313 18.9531 20.5525C19.2319 20.2737 19.4251 19.9052 19.4251 19.5495V11.2996C19.4251 10.919 19.0625 10.5746 18.5 10.5746C18.3345 10.5746 18.1536 10.6764 18.0152 10.8148C17.8768 10.9531 17.775 11.1341 17.775 11.2996V19.3746H2.62492V4.22452H10.6999C11.0805 4.22452 11.4249 3.86191 11.4249 3.29961C11.4249 3.13418 11.3231 2.95319 11.1847 2.81482C11.0464 2.67646 10.8654 2.57461 10.6999 2.57461H2.50005C2.10646 2.57461 1.72536 2.76021 1.44301 3.04254C1.1607 3.32483 0.97506 3.70585 0.975 4.09947C0.975 4.09953 0.975 4.0996 0.975 4.09966Z" fill="black" stroke="black" stroke-width="0.05"/>
<path d="M15.6037 3.79395L15.6037 3.79394C16.2667 2.25878 18.5269 2.25878 19.19 3.79394C20.0718 5.83561 17.5006 7.49243 16.0025 5.99449C15.9488 5.94081 15.8661 5.83333 15.7877 5.71839C15.7093 5.60347 15.6371 5.48382 15.6037 5.40635L15.6037 5.40635C15.5642 5.31507 15.5186 5.1723 15.4829 5.02231C15.4472 4.87215 15.4218 4.71686 15.4218 4.60024V4.60005C15.4218 4.48334 15.4472 4.328 15.4829 4.17784C15.5186 4.02785 15.5642 3.88513 15.6037 3.79395ZM13.7719 4.44997V4.74994C13.7719 6.56396 15.4328 8.22491 17.2468 8.22491H17.5468C19.3601 8.22491 21.0218 6.56145 21.0218 4.74994V4.44997C21.0218 2.63595 19.3632 0.975 17.5468 0.975H17.2468C15.4328 0.975 13.7719 2.63594 13.7719 4.44997Z" fill="black" stroke="black" stroke-width="0.05"/>
</svg>
