<svg width="80" height="80" viewBox="0 0 80 80" fill="none" xmlns="http://www.w3.org/2000/svg">
<rect width="80" height="80" rx="8" fill="#F4F4F4"/>
<path fill-rule="evenodd" clip-rule="evenodd" d="M25.6101 48.2872V33.4358C25.6101 32.4494 26.2945 31.6492 27.332 31.5055C28.2553 31.3778 31.3983 31.4552 32.7318 31.4556C33.5085 31.4557 33.8261 31.5328 34.1189 30.9852C34.4255 30.4119 33.7167 28.6091 35.4566 28.6091H44.3742C45.8847 28.6091 45.4552 30.5157 45.5905 30.921C45.7715 31.4632 46.1785 31.4574 46.8513 31.4557C48.0017 31.4527 51.5447 31.3846 52.2144 31.4803C52.8093 31.5651 53.1533 31.6666 53.4952 31.995C53.7578 32.2473 54.0969 32.7101 54.0969 33.1883V48.2873C54.0969 48.8836 53.9284 49.3486 53.6188 49.666C53.3275 49.9647 52.9234 50.3293 52.3628 50.3293H27.344C26.4979 50.3293 25.61 49.4606 25.61 48.2873L25.6101 48.2872ZM32.4841 29.8466C31.0848 29.8466 27.6568 29.7056 26.6477 29.9553C25.9637 30.1246 25.6448 30.3909 25.2188 30.7551C25.0939 30.8619 25.1301 30.8087 25.0197 30.9275C24.9624 30.9891 24.9159 31.0557 24.8504 31.1295C24.4328 31.5993 24 32.3889 24 33.2501V48.5966C24 50.4535 25.763 52 27.6538 52H51.9915C53.1455 52 53.9603 51.6149 54.547 51.0263C55.1808 50.3903 55.7072 49.606 55.7072 48.5966V33.1882C55.7072 32.6452 55.5476 32.2481 55.357 31.8673C54.7552 30.6656 53.5821 29.8465 52.1773 29.8465H47.1611C47.1611 28.1058 45.827 27 44.0648 27H35.7045C34.0884 27 32.9825 27.7189 32.598 29.1558C32.5454 29.3521 32.535 29.6287 32.4842 29.8465L32.4841 29.8466Z" fill="#828282"/>
<path fill-rule="evenodd" clip-rule="evenodd" d="M34.094 41.1092C34.094 35.4156 40.5909 33.4891 43.8945 36.8237C46.1979 39.1489 46.1583 42.828 43.9895 44.9946C43.842 45.1419 43.7674 45.1722 43.6171 45.3033C43.4693 45.4322 43.4058 45.488 43.2426 45.6097C40.7938 47.4358 37.0915 46.9723 35.1104 44.2396C34.5145 43.4174 34.094 42.2133 34.094 41.1091V41.1092ZM32.422 40.7999C32.422 45.0354 35.7552 48.3493 39.8533 48.3493C42.0401 48.3493 43.9418 47.3364 45.0399 46.23C47.231 44.0224 47.9497 40.7086 46.6451 37.9117C46.2262 37.0138 45.8212 36.3977 45.1637 35.7411L44.2063 34.9031C43.8332 34.6209 43.4712 34.4403 43.0326 34.2194C41.1371 33.2647 38.6149 33.2478 36.7148 34.1986C36.0727 34.5197 35.577 34.7955 35.0409 35.2486C33.5257 36.5293 32.4219 38.6609 32.4219 40.7999H32.422Z" fill="#828282"/>
<path fill-rule="evenodd" clip-rule="evenodd" d="M49.0821 34.9209C49.0821 35.6922 49.6348 36.3426 50.4781 36.4359C51.2453 36.5206 52.0546 35.8657 52.0546 35.1066V34.7972C52.0546 33.8318 50.8377 33.1712 49.9767 33.5873C49.4968 33.8191 49.082 34.3376 49.082 34.9209H49.0821Z" fill="#828282"/>
</svg>
