<svg width="48" height="48" viewBox="0 0 48 48" fill="none" xmlns="http://www.w3.org/2000/svg">
<path fill-rule="evenodd" clip-rule="evenodd" d="M10.0312 39.9374C10.3484 39.4639 18.6463 31.2755 19.289 30.6328L27.4453 22.4765C27.6742 22.2476 28.3889 21.375 28.6873 21.375H45.2811V36.2813C45.2811 37.5973 44.3365 38.7531 43.5206 39.3016C42.282 40.1347 41.2318 39.9374 39.2809 39.9374C29.5308 39.9374 19.7813 39.9374 10.0307 39.9374H10.0312ZM41.8356 8.08575C42.9686 8.33189 43.4441 8.51588 44.1816 9.25579C44.7025 9.77866 45.2811 10.7233 45.2811 11.7187V18.6561H31.3125L41.8356 8.08575V8.08575ZM0 46.5C0 47.5166 0.483408 48 1.50005 48C2.16745 48 3.07507 46.8467 3.49189 46.4299L7.09427 42.8132C7.43759 42.534 7.93826 42.6564 8.71862 42.6564H39.6563C42.1305 42.6564 43.4387 42.7965 45.4705 41.252C46.603 40.3912 48 38.4413 48 36.4687V11.5313C48 9.23606 45.7961 6.40368 44.0622 6.00018C44.1761 5.574 46.6386 3.28274 47.1328 2.78897C47.6587 2.26363 48 2.09592 48 1.3126C48 0.436548 47.3795 0 46.5 0C45.8631 0 45.213 0.865203 44.8361 1.24206L1.24256 44.8356C0.865696 45.2125 0.000493274 45.8626 0.000493274 46.4995L0 46.5Z" fill="#FC133D"/>
<path fill-rule="evenodd" clip-rule="evenodd" d="M0 11.5313V36.2813C0 37.3374 0.476009 39.8437 1.87493 39.8437C2.79144 39.8437 3.28126 39.2468 3.28126 38.3437C3.28126 37.915 2.71893 37.2683 2.71893 36.2813V21.375H19.875C21.9176 21.375 21.6621 18.6561 20.1562 18.6561H2.71893V11.7187C2.71893 10.483 3.60386 9.30363 4.36646 8.77237C5.58436 7.92394 6.32328 8.06255 8.2505 8.06255C10.3962 8.06255 32.9295 8.18735 33.664 7.97574C35.2661 7.51502 34.8567 5.34363 33.3754 5.34363H6.18812C3.14166 5.34363 0.000493274 8.4848 0.000493274 11.5313H0Z" fill="#FC133D"/>
<path fill-rule="evenodd" clip-rule="evenodd" d="M29.3438 30.4685C29.3438 31.4339 29.7073 32.0623 31.0312 32.0623C32.2511 32.0623 36.0587 32.2621 36.7582 31.7895C37.7353 31.1285 37.3747 29.3439 36.1874 29.3439H30.4689C29.9465 29.3439 29.3438 29.9467 29.3438 30.469V30.4685Z" fill="#FC133D"/>
</svg>
