<svg width="57" height="14" viewBox="0 0 57 14" fill="none" xmlns="http://www.w3.org/2000/svg">
<path fill-rule="evenodd" clip-rule="evenodd" d="M4.88497 3.42944H8.71184C10.7665 3.42944 11.54 4.46396 11.4205 5.98381C11.2229 8.49298 9.6977 9.88118 7.67461 9.88118H6.65319C6.37561 9.88118 6.18891 10.0639 6.11384 10.5591L5.68018 13.4376C5.65153 13.6243 5.55275 13.7324 5.40457 13.7471H3.00018C2.77397 13.7471 2.69395 13.5752 2.75322 13.2028L4.21917 3.9747C4.27647 3.6053 4.47996 3.42944 4.88497 3.42944Z" fill="#009EE3"/>
<path fill-rule="evenodd" clip-rule="evenodd" d="M21.5028 3.2583C22.7939 3.2583 23.9852 3.95486 23.8222 5.69084C23.6246 7.75399 22.5133 8.89559 20.7599 8.9005H19.2278C19.0075 8.9005 18.9008 9.07931 18.8435 9.44576L18.5472 11.3193C18.5027 11.6022 18.3565 11.7417 18.1412 11.7417H16.7157C16.4885 11.7417 16.4095 11.5973 16.4599 11.2741L17.6364 3.76524C17.6947 3.39584 17.834 3.2583 18.0878 3.2583H21.4998H21.5028ZM19.1814 7.27848H20.3421C21.0681 7.25097 21.5502 6.7509 21.5986 5.84902C21.6282 5.29197 21.2499 4.89309 20.6483 4.89604L19.5558 4.90095L19.1814 7.27848ZM27.6975 11.167C27.8279 11.0491 27.9602 10.9882 27.9415 11.1336L27.895 11.4814C27.8713 11.6631 27.9435 11.7594 28.1134 11.7594H29.3798C29.5931 11.7594 29.6969 11.674 29.7492 11.3458L30.5296 6.47484C30.5691 6.23021 30.5089 6.11035 30.3222 6.11035H28.9293C28.8039 6.11035 28.7426 6.1801 28.71 6.3707L28.6586 6.67034C28.632 6.82655 28.5599 6.85406 28.4927 6.69687C28.2566 6.1408 27.654 5.89126 26.8134 5.91091C24.8604 5.95119 23.5436 7.42585 23.4024 9.31608C23.2937 10.778 24.3467 11.9264 25.7356 11.9264C26.7432 11.9264 27.1937 11.6317 27.7014 11.17L27.6975 11.167ZM26.6365 10.4174C25.7959 10.4174 25.2101 9.75032 25.3316 8.93292C25.4531 8.11553 26.2394 7.44844 27.0801 7.44844C27.9207 7.44844 28.5065 8.11553 28.385 8.93292C28.2635 9.75032 27.4782 10.4174 26.6365 10.4174ZM33.0081 6.09463H31.7239C31.4592 6.09463 31.3515 6.29112 31.4354 6.5328L33.0298 11.1759L31.4661 13.3854C31.3347 13.5701 31.4364 13.7381 31.6212 13.7381H33.0644C33.1485 13.7477 33.2336 13.7332 33.3096 13.6961C33.3857 13.659 33.4493 13.6009 33.4931 13.5288L38.3967 6.53378C38.5478 6.31863 38.4767 6.09267 38.2288 6.09267H36.8626C36.6285 6.09267 36.5346 6.18502 36.4003 6.37856L34.3555 9.3259L33.4417 6.37168C33.3884 6.19287 33.255 6.09463 33.0091 6.09463H33.0081Z" fill="#113984"/>
<path fill-rule="evenodd" clip-rule="evenodd" d="M43.4979 3.25856C44.789 3.25856 45.9803 3.95512 45.8173 5.6911C45.6198 7.75424 44.5084 8.89585 42.755 8.90076H41.2239C41.0036 8.90076 40.8969 9.07956 40.8396 9.44602L40.5433 11.3195C40.4988 11.6025 40.3526 11.742 40.1373 11.742H38.7118C38.4846 11.742 38.4056 11.5976 38.456 11.2744L39.6345 3.76354C39.6927 3.39413 39.832 3.25659 40.0859 3.25659H43.4979V3.25856ZM41.1765 7.27874H42.3372C43.0632 7.25123 43.5453 6.75116 43.5937 5.84927C43.6233 5.29223 43.245 4.89335 42.6434 4.8963L41.5509 4.90121L41.1765 7.27874ZM49.6926 11.1673C49.823 11.0494 49.9554 10.9885 49.9366 11.1339L49.8902 11.4816C49.8664 11.6634 49.9386 11.7597 50.1085 11.7597H51.3749C51.5882 11.7597 51.692 11.6742 51.7443 11.3461L52.5247 6.47509C52.5642 6.23046 52.504 6.11061 52.3173 6.11061H50.9264C50.8009 6.11061 50.7397 6.18036 50.7071 6.37095L50.6557 6.6706C50.6291 6.82681 50.5569 6.85432 50.4898 6.69713C50.2537 6.14106 49.6511 5.89152 48.8105 5.91117C46.8575 5.95145 45.5407 7.42611 45.3995 9.31634C45.2908 10.7782 46.3438 11.9267 47.7327 11.9267C48.7403 11.9267 49.1908 11.632 49.6985 11.1702L49.6926 11.1673ZM48.6326 10.4177C47.792 10.4177 47.2062 9.75058 47.3277 8.93318C47.4492 8.11578 48.2355 7.4487 49.0762 7.4487C49.9168 7.4487 50.5026 8.11578 50.3811 8.93318C50.2596 9.75058 49.4733 10.4177 48.6326 10.4177ZM54.4737 11.7675H53.0117C52.9863 11.7687 52.9609 11.7642 52.9374 11.7545C52.9139 11.7447 52.8929 11.7299 52.8758 11.7112C52.8587 11.6924 52.846 11.6701 52.8386 11.6459C52.8312 11.6217 52.8292 11.5961 52.8329 11.5711L54.1171 3.47961C54.1294 3.42439 54.16 3.37492 54.2042 3.33924C54.2483 3.30356 54.3032 3.28379 54.3601 3.28312H55.8221C55.8475 3.28199 55.8729 3.28646 55.8964 3.2962C55.9199 3.30595 55.9409 3.32074 55.958 3.33951C55.9751 3.35828 55.9878 3.38057 55.9952 3.40479C56.0026 3.42901 56.0046 3.45456 56.0009 3.47961L54.7167 11.5711C54.7048 11.6266 54.6743 11.6766 54.6302 11.7126C54.586 11.7487 54.5308 11.7687 54.4737 11.7695V11.7675Z" fill="#009EE3"/>
<path fill-rule="evenodd" clip-rule="evenodd" d="M2.49313 0.253174H6.32394C7.40266 0.253174 8.68289 0.28756 9.53835 1.03913C10.1103 1.54116 10.4106 2.33989 10.3415 3.20052C10.1064 6.10955 8.35691 7.73943 6.00981 7.73943H4.12108C3.79904 7.73943 3.58666 7.95164 3.49578 8.52539L2.96827 11.8657C2.9337 12.0819 2.83986 12.2096 2.67192 12.2253H0.308038C0.0462622 12.2253 -0.0465951 12.0288 0.0215655 11.5946L1.72064 0.887835C1.7888 0.457522 2.02687 0.253174 2.49313 0.253174Z" fill="#113984"/>
<path fill-rule="evenodd" clip-rule="evenodd" d="M3.55078 8.18647L4.21955 3.97471C4.27783 3.60531 4.48132 3.42847 4.88633 3.42847H8.7132C9.3464 3.42847 9.85909 3.52671 10.2601 3.70847C9.87588 6.2982 8.19162 7.7365 5.98678 7.7365H4.10101C3.84812 7.73749 3.66241 7.86324 3.55078 8.18647Z" fill="#172C70"/>
</svg>
