<svg width="40" height="40" viewBox="0 0 40 40" fill="none" xmlns="http://www.w3.org/2000/svg">
<path d="M15.2562 31.6714C15.5052 31.6722 15.7512 31.6172 15.9762 31.5105C16.2011 31.4038 16.3993 31.2481 16.5562 31.0547L24.6062 21.0547C24.8513 20.7565 24.9854 20.3824 24.9854 19.9964C24.9854 19.6103 24.8513 19.2362 24.6062 18.938L16.2729 8.93802C15.99 8.59766 15.5835 8.38362 15.1427 8.34299C14.702 8.30236 14.2632 8.43846 13.9229 8.72136C13.5825 9.00426 13.3685 9.41077 13.3278 9.85148C13.2872 10.2922 13.4233 10.731 13.7062 11.0714L21.1562 20.0047L13.9562 28.938C13.7524 29.1827 13.6229 29.4806 13.5831 29.7965C13.5433 30.1124 13.5949 30.4331 13.7316 30.7206C13.8684 31.0082 14.0847 31.2505 14.3548 31.419C14.625 31.5875 14.9378 31.6751 15.2562 31.6714Z" fill="black"/>
</svg>
