<svg xmlns="http://www.w3.org/2000/svg" width="14" height="8" viewBox="0 0 14 8" fill="none">
  <path
    d="M-0.000275612 1.32738C-0.00078392 1.49815 0.0321884 1.66688 0.0962172 1.82117C0.160246 1.97546 0.253705 2.11139 0.369725 2.21897L6.36972 7.73997C6.54866 7.90809 6.7731 8 7.00472 8C7.23635 8 7.46079 7.90809 7.63972 7.73997L13.6397 2.02465C13.8439 1.83063 13.9724 1.55183 13.9967 1.24957C14.0211 0.947313 13.9395 0.646366 13.7697 0.412933C13.6 0.179501 13.3561 0.0327044 13.0916 0.00483656C12.8272 -0.0230312 12.5639 0.0703135 12.3597 0.264335L6.99972 5.37383L1.63972 0.435795C1.49294 0.296018 1.3142 0.207228 1.12465 0.179933C0.935102 0.152637 0.742677 0.187977 0.570149 0.281772C0.397622 0.375566 0.252211 0.52389 0.15112 0.709193C0.0500298 0.894495 -0.00250721 1.10902 -0.000275612 1.32738Z"
    fill="inherit"/>
</svg>