<svg xmlns="http://www.w3.org/2000/svg" width="16" height="16" viewBox="0 0 16 16" fill="none">
    <path d="M6.10053 12.6701C6.20013 12.6704 6.29853 12.6485 6.38852 12.6058C6.47851 12.5631 6.55778 12.5008 6.62053 12.4234L9.84053 8.42344C9.93858 8.30415 9.99219 8.15452 9.99219 8.00011C9.99219 7.84569 9.93858 7.69606 9.84053 7.57677L6.5072 3.57677C6.39404 3.44063 6.23143 3.35501 6.05515 3.33876C5.87886 3.32251 5.70334 3.37695 5.5672 3.49011C5.43105 3.60326 5.34544 3.76587 5.32918 3.94216C5.31293 4.11844 5.36737 4.29396 5.48053 4.43011L8.46053 8.00344L5.58053 11.5768C5.49901 11.6746 5.44722 11.7938 5.4313 11.9202C5.41538 12.0465 5.436 12.1748 5.4907 12.2898C5.5454 12.4048 5.63191 12.5018 5.73998 12.5692C5.84806 12.6366 5.97317 12.6716 6.10053 12.6701Z" fill="black"/>
</svg>