<svg width="14" height="8" viewBox="0 0 14 8" fill="#000" xmlns="http://www.w3.org/2000/svg">
<path d="M-0.00125217 1.32738C-0.00176048 1.49815 0.0312119 1.66688 0.0952406 1.82117C0.159269 1.97546 0.252728 2.11139 0.368749 2.21897L6.36875 7.73997C6.54768 7.90809 6.77212 8 7.00375 8C7.23537 8 7.45982 7.90809 7.63875 7.73997L13.6387 2.02465C13.843 1.83063 13.9714 1.55183 13.9958 1.24957C14.0201 0.947313 13.9385 0.646366 13.7687 0.412933C13.599 0.179501 13.3551 0.0327044 13.0907 0.00483656C12.8262 -0.0230312 12.563 0.0703135 12.3587 0.264335L6.99875 5.37383L1.63875 0.435795C1.49196 0.296018 1.31322 0.207228 1.12367 0.179933C0.934125 0.152637 0.7417 0.187977 0.569173 0.281772C0.396646 0.375566 0.251234 0.52389 0.150144 0.709193C0.0490532 0.894495 -0.00348377 1.10902 -0.00125217 1.32738Z"
      fill="inherit"/>
</svg>
