<svg width="20" height="20" viewBox="0 0 24 24" fill="none" xmlns="http://www.w3.org/2000/svg">
<path d="M4.99875 10.1703C4.99824 10.3197 5.03121 10.4673 5.09524 10.6023C5.15927 10.7373 5.25273 10.8562 5.36875 10.9503L11.3687 15.7803C11.5477 15.9274 11.7721 16.0078 12.0037 16.0078C12.2354 16.0078 12.4598 15.9274 12.6387 15.7803L18.6387 10.7803C18.843 10.6106 18.9714 10.3667 18.9958 10.1022C19.0201 9.83782 18.9385 9.57454 18.7687 9.37032C18.599 9.16611 18.3551 9.03768 18.0907 9.0133C17.8262 8.98892 17.563 9.07059 17.3587 9.24032L11.9987 13.7103L6.63875 9.39033C6.49196 9.26804 6.31322 9.19037 6.12367 9.16649C5.93412 9.14261 5.7417 9.17352 5.56917 9.25558C5.39665 9.33764 5.25123 9.46739 5.15014 9.62951C5.04905 9.79162 4.99652 9.97929 4.99875 10.1703Z" fill="black"/>
</svg>
