<svg width="40" height="40" viewBox="0 0 40 40" fill="none" xmlns="http://www.w3.org/2000/svg">
<path d="M19.1667 3.33203C11.35 3.33203 5 9.68203 5 17.4987C5 25.3154 11.35 31.6654 19.1667 31.6654H20V36.6654C28.1 32.7654 33.3333 24.9987 33.3333 17.4987C33.3333 9.68203 26.9833 3.33203 19.1667 3.33203ZM20.8333 27.4987H17.5V24.1654H20.8333V27.4987ZM20.8333 21.6654H17.5C17.5 16.2487 22.5 16.6654 22.5 13.332C22.5 11.4987 21 9.9987 19.1667 9.9987C17.3333 9.9987 15.8333 11.4987 15.8333 13.332H12.5C12.5 9.6487 15.4833 6.66536 19.1667 6.66536C22.85 6.66536 25.8333 9.6487 25.8333 13.332C25.8333 17.4987 20.8333 17.9154 20.8333 21.6654Z" fill="#FC133D" />
</svg>
