<svg width="19" height="19" viewBox="0 0 24 24" fill="none" xmlns="http://www.w3.org/2000/svg">
<path d="M4.25 6.5C4.25 6.08579 3.91421 5.75 3.5 5.75C3.08579 5.75 2.75 6.08579 2.75 6.5V19.5C2.75 20.4665 3.5335 21.25 4.5 21.25H17.5C17.9142 21.25 18.25 20.9142 18.25 20.5C18.25 20.0858 17.9142 19.75 17.5 19.75H4.25V6.5Z" fill="#828282"/>
<path fill-rule="evenodd" clip-rule="evenodd" d="M7.5 2.75C6.5335 2.75 5.75 3.5335 5.75 4.5V16.5C5.75 17.4665 6.5335 18.25 7.5 18.25H19.5C20.4665 18.25 21.25 17.4665 21.25 16.5V4.5C21.25 3.5335 20.4665 2.75 19.5 2.75H7.5ZM7.25 4.25V16.75H19.75V4.25H7.25Z" fill="#828282"/>
</svg>
