<svg width="17" height="17" viewBox="0 0 20 20" fill="none" xmlns="http://www.w3.org/2000/svg">
<path d="M16.5625 2.70818H12.6562L12.3503 2.09945C12.2854 1.96931 12.1856 1.85984 12.062 1.78336C11.9383 1.70687 11.7958 1.66641 11.6504 1.66651H7.92969C7.78463 1.66595 7.64234 1.70627 7.51914 1.78284C7.39594 1.85941 7.29679 1.96914 7.23307 2.09945L6.92708 2.70818H3.02083C2.8827 2.70818 2.75022 2.76305 2.65255 2.86072C2.55487 2.9584 2.5 3.09088 2.5 3.22901V4.27068C2.5 4.40881 2.55487 4.54129 2.65255 4.63896C2.75022 4.73664 2.8827 4.79151 3.02083 4.79151H16.5625C16.7006 4.79151 16.8331 4.73664 16.9308 4.63896C17.0285 4.54129 17.0833 4.40881 17.0833 4.27068V3.22901C17.0833 3.09088 17.0285 2.9584 16.9308 2.86072C16.8331 2.76305 16.7006 2.70818 16.5625 2.70818ZM4.23177 16.8683C4.25661 17.265 4.43169 17.6373 4.72137 17.9095C5.01105 18.1816 5.39355 18.3331 5.79101 18.3332H13.7923C14.1898 18.3331 14.5723 18.1816 14.862 17.9095C15.1516 17.6373 15.3267 17.265 15.3516 16.8683L16.0417 5.83317H3.54167L4.23177 16.8683Z" fill="#FC133D"/>
</svg>
