<svg width="17" height="17" viewBox="0 0 24 24" fill="none" xmlns="http://www.w3.org/2000/svg">
<path d="M19.875 3.24976H15.1875L14.8203 2.51929C14.7425 2.36313 14.6227 2.23176 14.4743 2.13998C14.326 2.0482 14.1549 1.99964 13.9805 1.99976H9.51562C9.34155 1.99909 9.17081 2.04747 9.02297 2.13936C8.87512 2.23124 8.75615 2.36292 8.67969 2.51929L8.3125 3.24976H3.625C3.45924 3.24976 3.30027 3.31561 3.18306 3.43282C3.06585 3.55003 3 3.709 3 3.87476V5.12476C3 5.29052 3.06585 5.44949 3.18306 5.5667C3.30027 5.68391 3.45924 5.74976 3.625 5.74976H19.875C20.0408 5.74976 20.1997 5.68391 20.3169 5.5667C20.4341 5.44949 20.5 5.29052 20.5 5.12476V3.87476C20.5 3.709 20.4341 3.55003 20.3169 3.43282C20.1997 3.31561 20.0408 3.24976 19.875 3.24976ZM5.07812 20.2419C5.10793 20.718 5.31803 21.1647 5.66565 21.4913C6.01326 21.8179 6.47226 21.9997 6.94922 21.9998H16.5508C17.0277 21.9997 17.4867 21.8179 17.8343 21.4913C18.182 21.1647 18.3921 20.718 18.4219 20.2419L19.25 6.99976H4.25L5.07812 20.2419Z" fill="#828282"/>
</svg>
