<svg width="18" height="19" viewBox="0 0 18 19" fill="none" xmlns="http://www.w3.org/2000/svg">
<path d="M1.09001 11.9947L0.0266113 16.5944C-0.0100724 16.7625 -0.00881487 16.9368 0.0302919 17.1044C0.0693987 17.272 0.145367 17.4287 0.252647 17.5631C0.359927 17.6975 0.495809 17.8062 0.650365 17.8812C0.804922 17.9562 0.97425 17.9957 1.14598 17.9968C1.226 18.0049 1.30662 18.0049 1.38664 17.9968L6.00403 16.931L14.8694 8.07925L9.92182 3.13171L1.09001 11.9947Z" fill="#828282"/>
<path d="M17.6589 3.6476L14.3568 0.338019C14.1397 0.12153 13.8459 0 13.5396 0C13.2334 0 12.9396 0.12153 12.7225 0.338019L10.8867 2.17792L15.8287 7.13107L17.6645 5.29117C17.7719 5.18295 17.857 5.05456 17.9149 4.91335C17.9727 4.77214 18.0023 4.62088 18.0017 4.46822C18.0012 4.31556 17.9707 4.1645 17.9118 4.02369C17.853 3.88288 17.7671 3.75508 17.6589 3.6476Z" fill="#828282"/>
</svg>
