<svg width="18" height="14" viewBox="0 0 18 14" fill="none" xmlns="http://www.w3.org/2000/svg">
<path d="M6.73388 7C6.73388 7.58016 6.96435 8.13656 7.37458 8.5468C7.78482 8.95703 8.34122 9.1875 8.92138 9.1875C9.50154 9.1875 10.0579 8.95703 10.4682 8.5468C10.8784 8.13656 11.1089 7.58016 11.1089 7C11.1089 6.41984 10.8784 5.86344 10.4682 5.4532C10.0579 5.04297 9.50154 4.8125 8.92138 4.8125C8.34122 4.8125 7.78482 5.04297 7.37458 5.4532C6.96435 5.86344 6.73388 6.41984 6.73388 7ZM17.4018 6.49609C15.5503 2.5957 12.7515 0.632812 8.9995 0.632812C5.2456 0.632812 2.44872 2.5957 0.597159 6.49805C0.522892 6.65531 0.484375 6.82706 0.484375 7.00098C0.484375 7.17489 0.522892 7.34665 0.597159 7.50391C2.44872 11.4043 5.24755 13.3672 8.9995 13.3672C12.7534 13.3672 15.5503 11.4043 17.4018 7.50195C17.5522 7.18555 17.5522 6.81836 17.4018 6.49609ZM8.92138 10.4375C7.02294 10.4375 5.48388 8.89844 5.48388 7C5.48388 5.10156 7.02294 3.5625 8.92138 3.5625C10.8198 3.5625 12.3589 5.10156 12.3589 7C12.3589 8.89844 10.8198 10.4375 8.92138 10.4375Z" fill="#828282"/>
</svg>
