<svg width="24" height="24" viewBox="0 0 24 24" fill="none" xmlns="http://www.w3.org/2000/svg">
<path fill-rule="evenodd" clip-rule="evenodd" d="M13 8C13 8.41421 12.6642 8.75 12.25 8.75L3.75 8.75C3.33579 8.75 3 8.41421 3 8C3 7.58579 3.33579 7.25 3.75 7.25L12.25 7.25C12.6642 7.25 13 7.58579 13 8Z" fill="black"/>
<circle cx="18" cy="8" r="3.25" stroke="black" stroke-width="1.5"/>
<circle cx="7" cy="16" r="3.25" stroke="black" stroke-width="1.5"/>
<path fill-rule="evenodd" clip-rule="evenodd" d="M22 16C22 16.4142 21.6642 16.75 21.25 16.75H12.75C12.3358 16.75 12 16.4142 12 16C12 15.5858 12.3358 15.25 12.75 15.25L21.25 15.25C21.6642 15.25 22 15.5858 22 16Z" fill="black"/>
</svg>
