<svg width="44" height="44" viewBox="0 0 44 44" fill="none" xmlns="http://www.w3.org/2000/svg">
<path d="M0 19.2C0 12.4794 0 9.11905 1.30792 6.55211C2.4584 4.29417 4.29417 2.4584 6.55211 1.30792C9.11905 0 12.4794 0 19.2 0H24.8C31.5206 0 34.8809 0 37.4479 1.30792C39.7058 2.4584 41.5416 4.29417 42.6921 6.55211C44 9.11905 44 12.4794 44 19.2V24.8C44 31.5206 44 34.8809 42.6921 37.4479C41.5416 39.7058 39.7058 41.5416 37.4479 42.6921C34.8809 44 31.5206 44 24.8 44H19.2C12.4794 44 9.11905 44 6.55211 42.6921C4.29417 41.5416 2.4584 39.7058 1.30792 37.4479C0 34.8809 0 31.5206 0 24.8V19.2Z" fill="url(#paint0_linear_3224_6621)"/>
<path d="M31.8026 20.0416H30.9977V19.9996H21.9986V23.9988H27.6496C26.8256 26.3271 24.6104 27.998 21.9986 27.998C18.6861 27.998 15.9992 25.3124 15.9992 21.9986C15.9992 18.6861 18.6848 15.9992 21.9986 15.9992C23.5283 15.9992 24.9194 16.5765 25.9787 17.5187L28.8067 14.6907C27.0214 13.0262 24.6321 12 21.9986 12C16.4773 12 12 16.4773 12 21.9986C12 27.5199 16.4773 31.9972 21.9986 31.9972C27.5211 31.9972 31.9972 27.5199 31.9972 21.9986C31.9972 21.3285 31.9285 20.6736 31.8026 20.0403V20.0416Z" fill="#FBC02D"/>
<path d="M13.1562 17.3455L16.4408 19.7552C17.3296 17.554 19.4825 16.0002 22.0015 16.0002C23.5312 16.0002 24.9224 16.5775 25.9816 17.5197L28.8096 14.6917C27.0243 13.0272 24.635 12.001 22.0015 12.001C18.1613 12.001 14.8309 14.1691 13.1562 17.3455Z" fill="#FC133D"/>
<path d="M21.9988 31.999C24.5815 31.999 26.9288 31.011 28.7027 29.4037L25.6076 26.7854C24.6044 27.5459 23.3556 27.9998 21.9988 27.9998C19.3984 27.9998 17.1897 26.3417 16.358 24.0273L13.0977 26.54C14.752 29.7788 18.1128 32.0003 21.9988 32.0003V31.999Z" fill="#4CAF50"/>
<path d="M31.8001 20.042L31.7925 20H30.9952H21.9961V23.9992H27.6471C27.2516 25.1182 26.5319 26.0821 25.6036 26.784C25.6036 26.784 25.6049 26.784 25.6049 26.7827L28.7 29.4009C28.4812 29.5993 31.9947 26.9976 31.9947 21.9977C31.9947 21.3275 31.926 20.6727 31.8001 20.0394V20.042Z" fill="#1565C0"/>
<defs>
<linearGradient id="paint0_linear_3224_6621" x1="22" y1="0" x2="22" y2="44" gradientUnits="userSpaceOnUse">
<stop stop-color="#F3F3F3"/>
<stop offset="1" stop-color="#EBEBEB"/>
</linearGradient>
</defs>
</svg>
