<svg width="22" height="20" viewBox="0 0 22 20" fill="none" xmlns="http://www.w3.org/2000/svg">
<path fill-rule="evenodd" clip-rule="evenodd" d="M16.8479 17.1308C16.7956 16.8572 16.9829 16.3318 17.2473 16.0537C17.51 15.7773 17.7777 15.6142 18.2344 15.5674C19.3813 15.4497 20.3356 17.0163 19.3786 18.0229C18.6215 18.8192 17.4877 18.5848 17.015 17.7023C16.9661 17.6111 16.9386 17.5494 16.9133 17.435L16.8479 17.1308V17.1308ZM8.05775 17.1308C8.00535 16.8572 8.19267 16.3318 8.45707 16.0537C9.38433 15.0783 10.8482 15.6662 10.978 16.9588C11.0152 17.3294 10.8458 17.7522 10.5884 18.0229C10.0093 18.632 9.12714 18.6773 8.54865 18.1154C8.22125 17.7974 8.13834 17.5522 8.05775 17.1308ZM19.1828 10.4208L16.24 10.6856C15.453 10.7881 14.0043 10.8483 13.2575 10.9566C12.7558 11.0294 12.2872 11.0156 11.7855 11.0884C11.0387 11.1967 9.58992 11.2568 8.80306 11.3594C8.37562 11.415 7.76245 11.4853 7.27943 11.4853C7.2707 11.0866 5.91427 4.82733 5.906 4.4514H20.3274L19.7514 7.43238C19.6498 7.94173 19.5575 8.41217 19.4614 8.89778C19.402 9.19794 19.1829 10.1889 19.1829 10.421L19.1828 10.4208ZM0 0.656763C0 1.84836 1.165 1.39712 2.09994 1.49584C4.09369 1.70638 4.14291 3.33858 4.42948 4.78687C4.58762 5.58622 4.7404 6.35895 4.89497 7.13917L5.69658 11.2349C5.70459 11.2729 5.75825 11.5424 5.75818 11.5431C5.73086 11.8994 4.8779 11.3935 3.71925 12.6531C2.3132 14.1816 2.79178 16.8821 5.10942 17.6584C5.60157 17.8233 6.06189 17.7788 6.68426 17.7788C6.76035 18.7029 8.0565 20 9.33967 20C10.1873 20 10.8495 19.8457 11.4349 19.2949C11.8119 18.94 12.3173 18.3128 12.3613 17.7787H15.4745C15.5506 18.7028 16.8467 19.9999 18.1298 19.9999H18.4961C19.8787 19.9999 21.2431 18.6209 21.2431 17.2234V16.8532C21.2431 15.4558 19.8787 14.0766 18.4961 14.0766C17.6485 14.0766 16.9862 14.2309 16.4009 14.7818C16.1949 14.9756 15.9897 15.1884 15.8429 15.4209C15.7199 15.6157 15.4974 16.0188 15.4745 16.2979H12.3613C12.3175 15.7653 11.8086 15.1335 11.4349 14.7818C10.2172 13.6359 8.01964 13.8897 7.05274 15.4209C6.92974 15.6157 6.70735 16.0188 6.68432 16.2979C5.82792 16.2979 5.02611 16.3328 4.56261 15.5271C4.22516 14.9405 4.29345 14.1032 4.7715 13.6241C4.86255 13.5328 5.0582 13.3937 5.17155 13.3343C5.32598 13.2532 5.5403 13.1874 5.7343 13.1627L8.33334 12.9206C8.60747 12.907 8.71989 12.8842 8.97317 12.8731C9.60977 12.8455 10.2916 12.7048 10.9421 12.6884C11.1748 12.6825 11.3259 12.6585 11.5796 12.6387L18.1265 12.0371C18.4883 12.0086 19.8827 11.8802 20.0596 11.8161C20.4633 11.6697 20.5065 11.3485 20.5908 10.9185L22 3.70957C21.9894 2.71506 20.633 2.97061 19.9155 2.97061C15.1389 2.97061 10.3623 2.97061 5.58569 2.97061C5.5311 2.30723 5.08321 1.63936 4.65994 1.17602C4.62812 1.14124 4.59854 1.10406 4.57379 1.07797L4.45536 0.96635C3.23702 -0.160177 2.18 0.00902965 0.641158 0.00902965C0.355317 0.00902965 0.000198501 0.367908 0.000198501 0.656896L0 0.656763Z" fill="black"/>
</svg>
