<svg width="23" height="22" viewBox="0 0 23 22" fill="none" xmlns="http://www.w3.org/2000/svg">
<path d="M13.332 10.9466C10.1781 12.2873 7.04081 9.95285 7.02499 6.95203V6.92923C7.02499 6.27773 7.2245 5.59421 7.43097 5.12055C7.60111 4.73028 7.8187 4.4168 8.08251 4.10775C10.316 1.49155 14.3473 2.31866 15.5689 5.12055C16.5905 7.46388 15.4859 10.0311 13.332 10.9466ZM7.22836 2.71096C6.27416 3.65315 5.49651 5.15306 5.4755 6.59199L5.47501 6.5915V6.65152C5.47501 7.26023 5.49477 7.69817 5.5755 8.11935C5.65628 8.54074 5.79786 8.94423 6.04025 9.48458C6.28795 10.0368 6.81369 10.7382 7.2283 11.1476L7.24586 11.1298L7.2283 11.1476C8.19575 12.1028 9.74352 12.8788 11.2187 12.8788C12.1197 12.8788 12.4932 12.873 13.3775 12.5949C13.6894 12.4969 13.9573 12.3641 14.2392 12.2244C14.2776 12.2054 14.3162 12.1863 14.3553 12.167C14.4405 12.1251 14.4992 12.0884 14.5436 12.0606C14.5576 12.0518 14.5703 12.0438 14.5819 12.0369C14.6295 12.0086 14.659 11.9975 14.7047 12.0033C14.7541 12.0096 14.8226 12.0358 14.9465 12.0908C14.9929 12.1113 15.0473 12.1361 15.1111 12.1651C15.2145 12.2121 15.3427 12.2704 15.5015 12.3405C16.8549 12.9376 18.4465 14.4241 19.2108 15.7378C19.505 16.2434 19.8095 16.9035 20.0403 17.5802C20.268 18.2473 20.4235 18.9289 20.4279 19.4938H2.57206C2.57777 19.1681 2.69065 18.5929 2.75805 18.3208C3.03353 17.2087 3.41499 16.2886 4.04869 15.3484L4.02796 15.3344L4.04869 15.3484C4.1029 15.2679 4.1492 15.2047 4.19515 15.1423L4.20284 15.1318C4.24621 15.0729 4.2897 15.0139 4.33929 14.9413L4.31864 14.9272L4.33929 14.9413C4.41805 14.8259 4.61557 14.5868 4.82159 14.3549C5.02796 14.1226 5.23988 13.9008 5.34744 13.8189C5.46686 13.7279 5.6089 13.6132 5.71753 13.4711C5.82643 13.3286 5.90278 13.1573 5.88844 12.9535C5.84113 12.2806 5.06375 11.9973 4.5591 12.4309C4.5424 12.4453 4.52489 12.4603 4.50673 12.4759C4.28543 12.6655 3.96652 12.9388 3.81255 13.1356C3.6943 13.2868 3.58769 13.409 3.47402 13.5392C3.44255 13.5752 3.41053 13.6119 3.37758 13.65C3.2257 13.8255 3.05482 14.0299 2.82736 14.3392C1.56715 16.0528 0.975 18.2333 0.975 20.352C0.975 20.5059 1.07094 20.6739 1.2008 20.8022C1.33071 20.9304 1.50074 21.025 1.65628 21.025H21.3437C21.4993 21.025 21.6693 20.9304 21.7992 20.8022C21.9291 20.6739 22.025 20.5059 22.025 20.352C22.025 18.3749 21.7176 17.3422 20.9928 15.7581L20.9928 15.7581L20.9924 15.7572L20.8361 15.4486L20.8361 15.4486L20.8357 15.4477C20.796 15.3766 20.7576 15.3067 20.7198 15.238C20.5358 14.9036 20.3661 14.595 20.1321 14.2862L20.1321 14.2862L20.1315 14.2854L19.0776 13.0118L19.0776 13.0118L19.077 13.0111C18.8111 12.7125 18.2072 12.219 17.5896 11.7822C17.2805 11.5635 16.9674 11.3586 16.6905 11.1988C16.4292 11.048 16.1982 10.9362 16.033 10.8922C16.0458 10.863 16.0689 10.8249 16.1004 10.7797C16.1408 10.7217 16.1928 10.6547 16.2488 10.584C16.2638 10.5651 16.279 10.5459 16.2944 10.5265C16.3935 10.402 16.4979 10.2708 16.5644 10.1632L16.5432 10.15L16.5644 10.1631C16.749 9.86458 16.8736 9.65041 17.0234 9.31592C18.3638 6.32211 16.9245 2.77843 14.0876 1.53786C11.7156 0.500567 9.0623 0.900091 7.22836 2.71096Z" fill="black" stroke="black" stroke-width="0.05"/>
</svg>
