<svg width="18" height="16" viewBox="0 0 18 16" fill="none" xmlns="http://www.w3.org/2000/svg">
<path d="M9.00109 11.767C10.5917 11.767 11.8811 10.4935 11.8811 8.92257C11.8811 7.35163 10.5917 6.07812 9.00109 6.07812C7.41051 6.07812 6.12109 7.35163 6.12109 8.92257C6.12109 10.4935 7.41051 11.767 9.00109 11.767Z" fill="#828282"/>
<path d="M6.3 0L4.653 1.77778H1.8C0.81 1.77778 0 2.57778 0 3.55556V14.2222C0 15.2 0.81 16 1.8 16H16.2C17.19 16 18 15.2 18 14.2222V3.55556C18 2.57778 17.19 1.77778 16.2 1.77778H13.347L11.7 0H6.3ZM9 13.3333C6.516 13.3333 4.5 11.3422 4.5 8.88889C4.5 6.43556 6.516 4.44444 9 4.44444C11.484 4.44444 13.5 6.43556 13.5 8.88889C13.5 11.3422 11.484 13.3333 9 13.3333Z" fill="#828282"/>
</svg>
