<svg width="24" height="24" viewBox="0 0 24 24" fill="none" xmlns="http://www.w3.org/2000/svg">
	<path
		d="M19.1804 11.1194C19.3586 11.2586 19.5536 11.4845 19.6951 11.6589L19.6951 11.6589C19.7862 11.7711 19.9176 11.8972 20.0596 12.0334C20.0706 12.044 20.0816 12.0545 20.0927 12.0652C20.2482 12.2145 20.415 12.3769 20.5607 12.551L20.5607 12.551C20.8314 12.8743 21.198 13.0043 21.5017 12.9276C21.8088 12.8502 22.0375 12.5655 22.0375 12.0909C22.0375 12.0583 22.0279 12.0219 22.0125 11.9835C21.9969 11.9447 21.9744 11.9016 21.9464 11.8552C21.8903 11.7623 21.8104 11.6532 21.7143 11.5338C21.522 11.295 21.2621 11.012 20.9911 10.7306C20.626 10.3515 20.2372 9.97166 19.9659 9.70666C19.8355 9.5793 19.7323 9.47845 19.6719 9.41697L13.4888 3.12144C13.3789 3.0095 13.2757 2.89526 13.1749 2.78371C13.1535 2.75999 13.1321 2.73639 13.1109 2.71296C12.9901 2.57976 12.8716 2.45213 12.7495 2.34143C12.5051 2.11985 12.2426 1.9625 11.9107 1.9625C11.8618 1.9625 11.8084 1.97895 11.7536 2.00501C11.6984 2.03127 11.6392 2.06856 11.5779 2.11321C11.4554 2.20251 11.3215 2.32358 11.1912 2.45161C11.0607 2.5798 10.9327 2.71583 10.822 2.83549C10.7907 2.86936 10.7608 2.90185 10.7326 2.93245C10.6609 3.01039 10.6004 3.07611 10.5559 3.12144C10.5163 3.16181 10.4805 3.1982 10.4459 3.23338C10.3801 3.30024 10.3187 3.36269 10.2434 3.43965C10.2236 3.45982 10.2071 3.47699 10.1918 3.49292C10.1587 3.52744 10.1311 3.55614 10.0881 3.59714C10.088 3.59724 10.0879 3.59734 10.0878 3.59744L9.97055 3.70399L9.97054 3.70397L9.96949 3.70499C9.96795 3.7065 9.96619 3.70823 9.96429 3.71009C9.95844 3.71581 9.95141 3.72269 9.94633 3.72786L9.94631 3.72789L2.49803 11.3258C2.49802 11.3259 2.498 11.3259 2.49798 11.3259C2.4684 11.3559 2.43338 11.3886 2.39496 11.4245C2.3789 11.4395 2.36225 11.4551 2.34516 11.4712C2.28774 11.5254 2.22642 11.5853 2.17027 11.6495C2.05908 11.7767 1.9625 11.9271 1.9625 12.0912C1.9625 12.3709 2.03 12.5866 2.17298 12.7322C2.31609 12.8779 2.52836 12.9468 2.80352 12.9468C2.86472 12.9468 2.94156 12.9134 3.02524 12.8631C3.11072 12.8117 3.20977 12.7384 3.31725 12.6504C3.53232 12.4743 3.78442 12.2361 4.03445 11.9873C4.37031 11.6531 4.706 11.296 4.94326 11.0436C5.05821 10.9213 5.15005 10.8236 5.2076 10.765C5.29628 10.6747 5.54966 10.4184 5.90958 10.0544C6.60087 9.35527 7.68519 8.25861 8.75054 7.17687C9.56044 6.35449 10.3593 5.54083 10.9658 4.91732C11.2691 4.60558 11.5244 4.34129 11.7089 4.14718C11.8012 4.05014 11.8759 3.97052 11.9301 3.91122C11.9621 3.87634 11.9878 3.8475 12.0059 3.82603C12.0194 3.83787 12.0372 3.85413 12.0594 3.875C12.1023 3.91517 12.1593 3.97021 12.2287 4.03821C12.3675 4.1742 12.5553 4.36148 12.7765 4.58407C13.219 5.02922 13.7952 5.61521 14.3814 6.2136C15.1083 6.9555 15.8507 7.71662 16.3726 8.25164C16.6924 8.57948 16.9294 8.82242 17.0292 8.92403C17.0738 8.96939 17.1145 9.01092 17.154 9.05123C17.2295 9.1284 17.3008 9.20111 17.3865 9.28777C17.4095 9.31112 17.4346 9.33432 17.4593 9.35716C17.4687 9.36586 17.478 9.37451 17.4872 9.3831C17.521 9.41479 17.5533 9.4466 17.5816 9.48093C17.6376 9.54889 17.6769 9.62564 17.6769 9.72732V20.5081H6.32333V13.1819C6.32333 12.826 5.99075 12.5081 5.48231 12.5081C5.32874 12.5081 5.16345 12.6039 5.03855 12.7311C4.91355 12.8583 4.81987 13.0263 4.81987 13.1819V21.3637C4.81987 21.5193 4.91355 21.6873 5.03855 21.8146C5.16345 21.9417 5.32874 22.0375 5.48231 22.0375H18.5179C18.7194 22.0375 18.8853 21.8949 18.9831 21.7893C18.9831 21.7893 18.9831 21.7893 18.9831 21.7892L18.9556 21.7638L19.1804 11.1194Z"
		fill="black" stroke="black" stroke-width="0.075" />
</svg>