<svg width="22" height="22" viewBox="0 0 22 22" fill="none" xmlns="http://www.w3.org/2000/svg">
<path d="M0.962824 11.0818C0.966234 10.9212 1.06127 10.774 1.17039 10.6493C1.22651 10.5851 1.2878 10.5253 1.3452 10.4711C1.36221 10.4551 1.37879 10.4396 1.39478 10.4247C1.43327 10.3887 1.46836 10.356 1.49799 10.3259C1.498 10.3259 1.49802 10.3259 1.49803 10.3258L8.94631 2.72789L8.94633 2.72786C8.95141 2.7227 8.95842 2.71583 8.96427 2.71011C8.96617 2.70825 8.96795 2.70651 8.96949 2.70499L8.97054 2.70397L8.97055 2.70399L9.08776 2.59744C9.08786 2.59734 9.08796 2.59724 9.08806 2.59715C9.1311 2.55615 9.15868 2.52744 9.19184 2.49292C9.20715 2.47699 9.22364 2.45983 9.24339 2.43965C9.31868 2.36268 9.38011 2.30022 9.44589 2.23335C9.48048 2.19819 9.51627 2.1618 9.55591 2.12144C9.60043 2.07611 9.66091 2.01039 9.73262 1.93246C9.76079 1.90185 9.79068 1.86936 9.82203 1.83549C9.93273 1.71583 10.0607 1.5798 10.1912 1.45161C10.3215 1.32358 10.4554 1.20251 10.5779 1.11321C10.6392 1.06856 10.6984 1.03127 10.7536 1.00501C10.8084 0.978948 10.8618 0.9625 10.9107 0.9625C11.2426 0.9625 11.5051 1.11985 11.7495 1.34143C11.8716 1.45213 11.9901 1.57976 12.1109 1.71296C12.1321 1.73638 12.1534 1.75997 12.1749 1.78368C12.2756 1.89523 12.3788 2.00949 12.4888 2.12144L18.6719 8.41697C18.7323 8.47845 18.8355 8.57929 18.9659 8.70666C19.2372 8.97165 19.626 9.35147 19.9911 9.73057C20.2621 10.012 20.522 10.295 20.7143 10.5338C20.8104 10.6532 20.8903 10.7623 20.9464 10.8552C20.9744 10.9016 20.9969 10.9447 21.0125 10.9835C21.0279 11.0219 21.0375 11.0583 21.0375 11.0909C21.0375 11.5655 20.8088 11.8502 20.5017 11.9276C20.198 12.0043 19.8314 11.8743 19.5607 11.551L19.5607 11.551C19.415 11.3769 19.2482 11.2145 19.0927 11.0652C19.0816 11.0545 19.0706 11.044 19.0596 11.0335C18.9176 10.8972 18.7862 10.7711 18.6951 10.6589L18.6951 10.6589C18.5536 10.4845 18.3586 10.2586 18.1804 10.1194V18.7727C18.1804 18.9333 18.1863 19.1032 18.1924 19.2748C18.1932 19.2979 18.194 19.3211 18.1948 19.3442C18.2016 19.5389 18.2074 19.7344 18.2034 19.9177C18.1994 20.1009 18.1856 20.2734 18.1527 20.4221C18.1199 20.5703 18.0673 20.6984 17.9831 20.7893M0.962824 11.0818L18.1429 10.0912V18.7727C18.1429 18.9341 18.1489 19.1047 18.1549 19.2763C18.1763 19.8832 18.1981 20.5019 17.9556 20.7638C17.8588 20.8684 17.7025 21 17.5179 21H4.48231C4.20354 21 3.85737 20.6475 3.85737 20.3637V12.1819C3.85737 11.8981 4.20354 11.5456 4.48231 11.5456C4.97611 11.5456 5.28583 11.8523 5.28583 12.1819V19.5081H5.32333M0.962824 11.0818L0.9625 11.0824V11.0912C0.9625 11.3709 1.03 11.5866 1.17298 11.7322C1.31609 11.8779 1.52836 11.9468 1.80352 11.9468C1.86472 11.9468 1.94156 11.9134 2.02524 11.8631C2.11072 11.8117 2.20977 11.7384 2.31725 11.6504C2.53232 11.4743 2.78442 11.2361 3.03445 10.9873C3.37031 10.6531 3.70601 10.296 3.94326 10.0436C4.05821 9.9213 4.15005 9.8236 4.2076 9.765C4.29628 9.67471 4.54967 9.41843 4.90961 9.0544C5.6009 8.35524 6.6852 7.2586 7.75054 6.17687C8.56044 5.35449 9.3593 4.54083 9.96584 3.91732C10.2691 3.60558 10.5244 3.34129 10.7089 3.14718C10.8012 3.05014 10.8759 2.97052 10.9301 2.91122C10.9621 2.87634 10.9878 2.8475 11.0059 2.82603M0.962824 11.0818L11.0059 2.82603M17.9831 20.7893L17.9564 20.7646L17.9831 20.7892C17.9831 20.7893 17.9831 20.7893 17.9831 20.7893ZM17.9831 20.7893C17.8853 20.8949 17.7194 21.0375 17.5179 21.0375H4.48231C4.32874 21.0375 4.16345 20.9417 4.03855 20.8146C3.91355 20.6873 3.81987 20.5193 3.81987 20.3637V12.1819C3.81987 12.0263 3.91355 11.8583 4.03855 11.7311C4.16345 11.6039 4.32874 11.5081 4.48231 11.5081C4.99075 11.5081 5.32333 11.826 5.32333 12.1819V19.5081M5.32333 19.5081V19.5456H16.6769V19.5081M5.32333 19.5081H16.6769M16.6769 19.5081H16.7144V8.72732C16.7144 8.54219 16.5956 8.43227 16.4841 8.32905C16.4597 8.30643 16.4356 8.28412 16.4132 8.26142M16.6769 19.5081V8.72732C16.6769 8.62564 16.6376 8.54889 16.5816 8.48093C16.5533 8.4466 16.521 8.41479 16.4872 8.3831C16.478 8.37451 16.4687 8.36586 16.4593 8.35716C16.4346 8.33432 16.4096 8.31113 16.3865 8.28779M16.3865 8.28779L16.4132 8.26142M16.3865 8.28779C16.3865 8.28778 16.3865 8.28777 16.3865 8.28777L16.4132 8.26142M16.3865 8.28779C16.3008 8.20113 16.2296 8.12842 16.154 8.05125L16.056 7.89775C16.1006 7.94318 16.1413 7.98473 16.1808 8.02504C16.2564 8.10218 16.3275 8.1748 16.4132 8.26142M11.0059 2.82603C11.0194 2.83787 11.0372 2.85413 11.0594 2.875C11.1023 2.91517 11.1593 2.97021 11.2287 3.03821C11.3675 3.1742 11.5553 3.36148 11.7765 3.58407C12.219 4.02922 12.7952 4.61521 13.3814 5.2136C14.1084 5.95561 14.8509 6.71684 15.3728 7.25187C15.6925 7.57959 15.9294 7.82244 16.0292 7.92403L11.0059 2.82603Z" fill="black" stroke="black" stroke-width="0.075"/>
</svg>
