<svg width="19" height="20" viewBox="0 0 19 20" fill="none" xmlns="http://www.w3.org/2000/svg">
<path d="M17.95 6.30447C17.9399 5.54709 17.7981 4.79724 17.531 4.08847C17.2993 3.49062 16.9455 2.94767 16.4922 2.4943C16.0388 2.04093 15.4958 1.68712 14.898 1.45547C14.1983 1.19283 13.4592 1.05081 12.712 1.03547C11.75 0.992469 11.445 0.980469 9.003 0.980469C6.561 0.980469 6.248 0.980469 5.293 1.03547C4.54616 1.05092 3.80735 1.19294 3.108 1.45547C2.51006 1.68696 1.96702 2.04071 1.51363 2.4941C1.06024 2.94749 0.706489 3.49053 0.475 4.08847C0.211831 4.7876 0.0701232 5.52658 0.056 6.27347C0.013 7.23647 0 7.54147 0 9.98347C0 12.4255 -7.45058e-09 12.7375 0.056 13.6935C0.071 14.4415 0.212 15.1795 0.475 15.8805C0.706878 16.4782 1.0609 17.021 1.51444 17.4742C1.96798 17.9274 2.51106 18.281 3.109 18.5125C3.80643 18.7857 4.54537 18.9378 5.294 18.9625C6.257 19.0055 6.562 19.0185 9.004 19.0185C11.446 19.0185 11.759 19.0185 12.714 18.9625C13.4612 18.9478 14.2004 18.8061 14.9 18.5435C15.4977 18.3116 16.0405 17.9576 16.4938 17.5043C16.9472 17.051 17.3011 16.5082 17.533 15.9105C17.796 15.2105 17.937 14.4725 17.952 13.7235C17.995 12.7615 18.008 12.4565 18.008 10.0135C18.006 7.57147 18.006 7.26147 17.95 6.30447ZM8.997 14.6015C6.443 14.6015 4.374 12.5325 4.374 9.97847C4.374 7.42447 6.443 5.35547 8.997 5.35547C10.2231 5.35547 11.399 5.84253 12.266 6.70951C13.1329 7.5765 13.62 8.75237 13.62 9.97847C13.62 11.2046 13.1329 12.3804 12.266 13.2474C11.399 14.1144 10.2231 14.6015 8.997 14.6015ZM13.804 6.26247C13.6624 6.2626 13.5222 6.23481 13.3913 6.18068C13.2605 6.12655 13.1416 6.04715 13.0414 5.94702C12.9413 5.8469 12.8619 5.72801 12.8078 5.59716C12.7537 5.46631 12.7259 5.32607 12.726 5.18447C12.726 5.04297 12.7539 4.90286 12.808 4.77213C12.8622 4.6414 12.9415 4.52262 13.0416 4.42256C13.1416 4.32251 13.2604 4.24314 13.3912 4.18899C13.5219 4.13484 13.662 4.10697 13.8035 4.10697C13.945 4.10697 14.0851 4.13484 14.2158 4.18899C14.3466 4.24314 14.4654 4.32251 14.5654 4.42256C14.6655 4.52262 14.7448 4.6414 14.799 4.77213C14.8531 4.90286 14.881 5.04297 14.881 5.18447C14.881 5.78047 14.399 6.26247 13.804 6.26247Z" fill="url(#paint0_linear_4620_54413)"/>
<defs>
<linearGradient id="paint0_linear_4620_54413" x1="14.5039" y1="0.999512" x2="3.00391" y2="21.4995" gradientUnits="userSpaceOnUse">
<stop stop-color="#964DB8"/>
<stop offset="0.505208" stop-color="#D8446A"/>
<stop offset="1" stop-color="#FFBD6A"/>
</linearGradient>
</defs>
</svg>
