<svg width="24" height="24" viewBox="0 0 24 24" fill="none" xmlns="http://www.w3.org/2000/svg">
<path fill-rule="evenodd" clip-rule="evenodd" d="M5.5 9C5.23478 9 4.98043 9.10536 4.79289 9.29289C4.60536 9.48043 4.5 9.73478 4.5 10V20C4.5 20.2652 4.60536 20.5196 4.79289 20.7071C4.98043 20.8946 5.23478 21 5.5 21H18.5C18.7652 21 19.0196 20.8946 19.2071 20.7071C19.3946 20.5196 19.5 20.2652 19.5 20V10C19.5 9.73478 19.3946 9.48043 19.2071 9.29289C19.0196 9.10536 18.7652 9 18.5 9H5.5ZM7.5 13H16.5V12H7.5V13ZM16.5 15.5H7.5V14.5H16.5V15.5ZM7.5 18H16.5V17H7.5V18Z" fill="currentColor"/>
<path fill-rule="evenodd" clip-rule="evenodd" d="M15 9V8C15 7.20435 14.6839 6.44129 14.1213 5.87868C13.5587 5.31607 12.7956 5 12 5C11.2044 5 10.4413 5.31607 9.87868 5.87868C9.31607 6.44129 9 7.20435 9 8V9H15ZM12 3C9.2385 3 7 5.2385 7 8V11H17V8C17 5.2385 14.7615 3 12 3Z" fill="currentColor"/>
</svg>
