<svg width="22" height="22" viewBox="0 0 22 22" fill="none" xmlns="http://www.w3.org/2000/svg">
<path d="M0.975 4.10015V19.4999C0.975 19.9094 1.17578 20.2905 1.45907 20.5688C1.74212 20.8467 2.11059 21.025 2.45003 21.025H17.9501C18.3058 21.025 18.6743 20.8318 18.9531 20.553C19.2319 20.2742 19.4251 19.9057 19.4251 19.55V11.3001C19.4251 10.9194 19.0625 10.5751 18.5 10.5751C18.3345 10.5751 18.1536 10.6769 18.0152 10.8153C17.8768 10.9536 17.775 11.1346 17.775 11.3001V19.3751H2.62492V4.22501H10.6999C11.0805 4.22501 11.4249 3.8624 11.4249 3.3001C11.4249 3.13467 11.3231 2.95367 11.1847 2.81531C11.0464 2.67695 10.8654 2.5751 10.6999 2.5751H2.50005C2.10646 2.5751 1.72536 2.7607 1.44301 3.04303C1.1607 3.32532 0.97506 3.70634 0.975 4.09996C0.975 4.10002 0.975 4.10009 0.975 4.10015Z" fill="black" stroke="black" stroke-width="0.05"/>
<path d="M15.6037 3.79395L15.6037 3.79394C16.2667 2.25878 18.5269 2.25878 19.19 3.79394C20.0718 5.83561 17.5006 7.49243 16.0025 5.99449C15.9488 5.94081 15.8661 5.83333 15.7877 5.71839C15.7093 5.60347 15.6371 5.48382 15.6037 5.40635L15.6037 5.40635C15.5642 5.31507 15.5186 5.1723 15.4829 5.02231C15.4472 4.87215 15.4218 4.71686 15.4218 4.60024V4.60005C15.4218 4.48334 15.4472 4.328 15.4829 4.17784C15.5186 4.02785 15.5642 3.88513 15.6037 3.79395ZM13.7719 4.44997V4.74994C13.7719 6.56396 15.4328 8.22491 17.2468 8.22491H17.5468C19.3601 8.22491 21.0218 6.56145 21.0218 4.74994V4.44997C21.0218 2.63595 19.3632 0.975 17.5468 0.975H17.2468C15.4328 0.975 13.7719 2.63594 13.7719 4.44997Z" fill="black" stroke="black" stroke-width="0.05"/>
</svg>
