<svg width="48" height="48" viewBox="0 0 48 48" fill="none" xmlns="http://www.w3.org/2000/svg">
	<path fill-rule="evenodd" clip-rule="evenodd"
		d="M0 23.2484C0 28.0992 0.503754 29.986 2.19572 34.0837C2.47738 34.7651 2.84889 35.395 3.19213 35.9937C3.93009 37.2839 4.67007 38.254 5.59581 39.4029L6.95867 40.9464L10.1256 43.5924C13.6115 46.0567 18.3986 47.999 23.1565 47.999C27.7802 47.999 30.1405 47.5084 33.9645 45.8699C34.5985 45.5983 35.2729 45.24 35.818 44.9109C36.8326 44.2981 39.6946 42.4587 40.3942 41.5178C41.1403 40.5144 39.7976 39.1333 38.6467 40.2388C36.0411 42.7404 33.0105 44.1527 29.5923 45.1531C24.8899 46.5301 18.8206 45.8487 14.624 43.7812C12.8765 42.9211 10.5597 41.4764 9.21194 40.1004C8.62843 39.5048 8.92523 39.9137 8.27308 39.1646C8.16001 39.0344 8.07117 38.9587 7.94599 38.8355L6.16922 36.6741C6.05817 36.5126 5.99054 36.4349 5.89261 36.2945C5.79267 36.1512 5.73815 36.0391 5.64326 35.8877C3.7191 32.8096 2.15635 29.0078 2.15635 24.9363C2.15635 20.5954 2.49252 18.6702 4.19156 14.6906C4.59133 13.7548 5.53322 12.2123 6.13288 11.3824C9.15843 7.20096 13.5125 4.06133 18.5622 2.81153C22.7386 1.77778 27.3663 1.90498 31.3791 3.4011C33.3457 4.13401 34.86 4.8851 36.5621 6.09351L40.6658 9.8651C40.904 10.1326 41.0423 10.2911 41.2725 10.5708C42.0276 11.4874 43.3027 13.5529 43.7802 14.626C46.1233 19.8948 46.5766 25.4461 44.7554 30.9743C44.4222 31.9838 43.6237 33.8343 43.0856 34.7419C42.7414 35.3224 42.4688 35.5455 42.4688 36.1875C42.4688 36.978 43.1916 37.1254 43.7812 37.1254C44.3556 37.1254 45.2258 35.2668 45.4994 34.7187C45.9587 33.8 46.3817 32.848 46.7229 31.8173C47.4599 29.5852 47.9041 27.2148 48 24.8253V22.8739C47.9344 21.2506 47.7002 19.6333 47.2832 18.0604C46.7229 15.9526 45.8699 13.7659 44.7382 11.8872C43.972 10.6152 43.2522 9.62181 42.3113 8.50224C42.0418 8.18121 41.9499 8.05603 41.6491 7.75822C41.3916 7.50281 41.1675 7.205 40.9252 6.98189C39.4957 5.66042 39.419 5.58773 37.7553 4.33895C34.3179 1.76062 28.8412 0 24.5628 0C20.4328 0 17.168 0.656193 14.0011 2.18866L11.2108 3.71001C10.5768 4.09767 9.15036 5.086 8.64862 5.55442L5.69474 8.50729C4.87703 9.3876 3.90485 10.8565 3.27592 11.9003L2.26336 13.7942C2.10688 14.1798 1.99584 14.3646 1.83431 14.7714C1.67582 15.1702 1.55063 15.4872 1.41738 15.8546C0.645088 17.9857 0 20.7932 0 23.2494L0 23.2484Z"
		fill="#FC133D" />
	<path fill-rule="evenodd" clip-rule="evenodd"
		d="M20.9058 30.654L17.1342 27.6759C16.6597 27.2872 13.8199 24.8421 13.2182 24.8421C12.3419 24.8421 11.3677 25.89 12.8417 27.0005C13.2424 27.3024 13.5877 27.5749 13.9976 27.9061C14.786 28.5441 15.5179 29.1054 16.2993 29.7293C17.0615 30.337 17.7813 30.8963 18.5394 31.5202C21.8022 34.2055 20.7755 33.6896 24.96 29.5536L35.0846 18.8657C35.3329 18.6184 35.9043 18.1288 35.9043 17.7169C35.9043 16.8426 34.9786 15.9452 33.9105 17.0355L21.8961 29.6778C21.6437 30.0039 21.2187 30.444 20.9048 30.655L20.9058 30.654Z"
		fill="#FC133D" />
</svg>