<svg width="50" height="50" viewBox="0 0 50 50" fill="none" xmlns="http://www.w3.org/2000/svg">
<path d="M2.96468 35.1792L2.96465 35.1791C2.11748 33.1274 1.5612 31.6139 1.21882 30.0003C0.876283 28.3861 0.750034 26.6824 0.75 24.2494L2.96468 35.1792ZM2.96468 35.1792C3.23053 35.8223 3.57396 36.4198 3.89219 36.9734C3.92009 37.022 3.9478 37.0702 3.97525 37.118C4.72308 38.4254 5.47287 39.4077 6.40115 40.5597L6.40095 40.5599M2.96468 35.1792L6.40095 40.5599M6.40095 40.5599L6.4084 40.5683M6.40095 40.5599L6.4084 40.5683M6.4084 40.5683L7.77127 42.1119L7.78382 42.1261M6.4084 40.5683L7.78382 42.1261M7.78382 42.1261L7.79838 42.1383M7.78382 42.1261L7.79838 42.1383M7.79838 42.1383L10.9653 44.7843L10.973 44.7907M7.79838 42.1383L10.973 44.7907M10.973 44.7907L10.9812 44.7965M10.973 44.7907L10.9812 44.7965M10.9812 44.7965C14.4989 47.2833 19.3355 49.249 24.1565 49.249C28.8119 49.249 31.2059 48.7523 35.063 47.0997C35.7095 46.8228 36.3942 46.4588 36.9472 46.1249L36.9473 46.1248M10.9812 44.7965L36.9473 46.1248M36.9473 46.1248C37.4585 45.8161 38.4327 45.1999 39.3681 44.5419C39.8357 44.2129 40.2963 43.8717 40.6854 43.5519C41.0703 43.2357 41.4006 42.9282 41.5948 42.667L41.3942 42.5178M36.9473 46.1248L41.3942 42.5178M41.3942 42.5178L41.5948 42.667C42.0573 42.0449 41.8657 41.3032 41.3949 40.898C41.1579 40.694 40.845 40.5685 40.5009 40.5813C40.1548 40.5942 39.7988 40.746 39.4736 41.0584C36.9066 43.5229 33.917 44.9196 30.5221 45.9132L30.522 45.9132M41.3942 42.5178L30.522 45.9132M30.522 45.9132C25.8834 47.2715 19.8785 46.5985 15.7345 44.5569L15.7344 44.5569M30.522 45.9132L15.7344 44.5569M15.7344 44.5569C13.9983 43.7024 11.7099 42.2726 10.3905 40.9255L10.2119 41.1004L15.7344 44.5569ZM32.2918 4.63536L32.2918 4.63535C28.3312 3.15872 23.7554 3.03117 19.6222 4.05421L19.5622 3.81153L19.6222 4.05421C14.6352 5.2885 10.3297 8.39078 7.33542 12.529C6.74197 13.3502 5.81141 14.876 5.42148 15.7888C4.57519 17.771 4.07384 19.229 3.7822 20.7258C3.49039 22.2234 3.40635 23.7711 3.40635 25.9363C3.40635 29.9449 4.94577 33.7005 6.8551 36.7549C6.85515 36.755 6.8552 36.7551 6.85525 36.7552L6.64326 36.8877C6.68037 36.9469 6.7113 37.0001 6.74119 37.0515L32.2918 4.63536ZM32.2918 4.63536C34.2371 5.36032 35.7286 6.10003 37.4045 7.28827L32.2918 4.63536ZM46.4994 35.7187C46.9587 34.8 47.3817 33.848 47.7229 32.8173M46.4994 35.7187C46.4794 35.7587 46.4563 35.8057 46.4303 35.8585C46.1003 36.5284 45.3137 38.1254 44.7812 38.1254C44.1916 38.1254 43.4688 37.978 43.4688 37.1875C43.4688 36.6929 43.6306 36.4469 43.8623 36.0946C43.9313 35.9896 44.0066 35.8752 44.0856 35.7419M46.4994 35.7187L46.723 35.8305C46.723 35.8304 46.7231 35.8304 46.7231 35.8303L46.4994 35.7187ZM47.7229 32.8173L41.6658 10.8651M47.7229 32.8173C48.4599 30.5852 48.9041 28.2148 49 25.8253M47.7229 32.8173L49 25.8253M44.0856 35.7419C44.6237 34.8343 45.4222 32.9838 45.7554 31.9743M44.0856 35.7419L43.8706 35.6144C43.8706 35.6144 43.8706 35.6144 43.8706 35.6144L44.0856 35.7419ZM45.7554 31.9743C47.5766 26.4461 47.1233 20.8948 44.7802 15.626M45.7554 31.9743L45.518 31.896C45.518 31.896 45.5179 31.8961 45.5179 31.8961L45.7554 31.9743ZM44.7802 15.626C44.3027 14.5529 43.0276 12.4874 42.2725 11.5708C42.0423 11.2911 41.904 11.1326 41.6658 10.8651M44.7802 15.626L44.5518 15.7276C44.5518 15.7276 44.5518 15.7277 44.5518 15.7277L44.7802 15.626ZM41.6658 10.8651L41.4791 11.0314C41.4819 11.0345 41.4847 11.0376 41.4874 11.0407L41.4966 11.0492L41.6658 10.8651ZM2.18233 16.7695L2.18235 16.7694C2.31703 16.398 2.44347 16.0779 2.60195 15.6792L2.18233 16.7695ZM2.18233 16.7695C1.40343 18.9188 0.750177 21.7554 0.75 24.2484L2.18233 16.7695ZM49 25.8253V23.8739V25.8253ZM42.0946 7.79799L42.0768 7.78154C40.6588 6.47073 40.5692 6.38791 38.9054 5.13901L38.9053 5.13896C35.4229 2.52691 29.8932 0.75 25.5628 0.75C21.4032 0.75 18.0996 1.41155 14.8922 2.96362L14.8921 2.96335L14.8815 2.96916L12.0911 4.49052L12.091 4.49025L12.0804 4.49673C11.4427 4.88662 9.99875 5.88552 9.47802 6.37168L9.47792 6.37157L9.47188 6.37761L6.518 9.33048L6.51788 9.33036L6.51158 9.33714C5.67531 10.2374 4.6922 11.725 4.06178 12.7713L4.0615 12.7711L4.05545 12.7824L3.04289 14.6763L3.03667 14.688L3.0317 14.7002C2.95958 14.8779 2.89767 15.0111 2.83332 15.1495L2.82402 15.1695C2.75603 15.3157 2.68545 15.4689 2.60199 15.6791L42.0946 7.79799ZM43.3113 9.50224L43.5028 9.34148C43.5028 9.34145 43.5027 9.34143 43.5027 9.3414L43.3113 9.50224Z" fill="#FC133D" stroke="#FC133D" stroke-width="0.5"/>
<path d="M21.9105 31.3395C22.1752 31.1256 22.4939 30.7892 22.6984 30.525L22.7062 30.515L22.7149 30.5058L34.7293 17.8635L34.7319 17.8608C35.0227 17.5639 35.3208 17.3849 35.6156 17.3159C35.9137 17.246 36.192 17.2928 36.4269 17.4198C36.8854 17.6678 37.1543 18.2038 37.1543 18.7171C37.1543 18.8762 37.0999 19.0255 37.0317 19.1533C36.9628 19.2825 36.8714 19.4052 36.7781 19.5151C36.639 19.679 36.4767 19.8349 36.3579 19.9491C36.3218 19.9838 36.2897 20.0146 36.2635 20.0406L26.1415 30.7258L26.1359 30.7317L26.1358 30.7316C25.2719 31.5855 24.6323 32.2832 24.1279 32.8334C24.0245 32.9462 23.9268 33.0528 23.8339 33.1533C23.5624 33.4472 23.3289 33.6932 23.119 33.8859C22.9099 34.0778 22.7118 34.2287 22.5086 34.3222C22.2986 34.4189 22.087 34.4524 21.8612 34.4155C21.6427 34.3799 21.4265 34.2808 21.1992 34.1403C20.8272 33.9102 20.3715 33.533 19.7652 33.0312C19.6433 32.9303 19.5152 32.8243 19.3806 32.7134L21.9105 31.3395ZM21.9105 31.3395L18.2909 28.4813C18.2376 28.4377 18.153 28.3668 18.044 28.2755C17.6758 27.9671 17.0298 27.426 16.3778 26.9165C15.9538 26.5852 15.5212 26.2625 15.1544 26.0215C14.9714 25.9013 14.7999 25.7982 14.651 25.7243C14.5137 25.6561 14.3572 25.5924 14.2182 25.5924C13.6973 25.5924 13.1326 25.8993 12.9182 26.4081C12.8077 26.6705 12.7972 26.974 12.9235 27.2883C13.0478 27.5974 13.2989 27.9049 13.6912 28.2004L13.6913 28.2004C14.0891 28.5001 14.432 28.7708 14.8405 29.1008C15.295 29.4686 15.7345 29.8139 16.1739 30.1591C16.4951 30.4114 16.8163 30.6638 17.1433 30.9249L17.1434 30.925C17.376 31.1104 17.604 31.2909 17.83 31.4697C18.3475 31.8793 18.8542 32.2803 19.3806 32.7134L21.9105 31.3395Z" fill="#FC133D" stroke="#FC133D" stroke-width="0.5"/>
</svg>
