<svg xmlns="http://www.w3.org/2000/svg" width="20" height="20" viewBox="0 0 20 20" fill="none">
    <path fill-rule="evenodd" clip-rule="evenodd" d="M17.5 10C17.5 14.1421 14.1421 17.5 10 17.5C5.85786 17.5 2.5 14.1421 2.5 10C2.5 5.85786 5.85786 2.5 10 2.5C14.1421 2.5 17.5 5.85786 17.5 10ZM10.7589 14.2308C10.7589 14.6556 10.4203 15 10.0025 15C9.58475 15 9.24609 14.6556 9.24609 14.2308C9.24609 13.8059 9.58475 13.4615 10.0025 13.4615C10.4203 13.4615 10.7589 13.8059 10.7589 14.2308ZM10.0143 4.09231C8.26738 4.09231 6.82277 5.50709 6.82277 7.26923V7.30768H8.63816V7.26923C8.63816 6.52485 9.25477 5.90769 10.0143 5.90769C10.7578 5.90769 11.3612 6.51183 11.3612 7.24015V7.64811C11.3612 7.97528 11.1528 8.26608 10.8429 8.37111C9.79624 8.72591 9.09201 9.70823 9.09201 10.8134V12.6923H10.9074V10.8134C10.9074 10.4862 11.1159 10.1954 11.4257 10.0904C12.4724 9.7356 13.1766 8.75329 13.1766 7.64811V7.24015C13.1766 5.49407 11.7452 4.09231 10.0143 4.09231Z" fill="#D4D4D4"/>
</svg>