<svg width="120" height="120" viewBox="0 0 120 120" fill="none" xmlns="http://www.w3.org/2000/svg">
<rect width="120" height="120" rx="8" fill="#F4F4F4"/>
<path fill-rule="evenodd" clip-rule="evenodd" d="M36.6405 73.9111V49.5548C36.6405 47.937 37.763 46.6247 39.4646 46.389C40.9787 46.1796 46.1333 46.3065 48.3203 46.3072C49.594 46.3074 50.1149 46.4338 50.595 45.5358C51.0979 44.5956 49.9355 41.6389 52.7888 41.6389H67.4139C69.891 41.6389 69.1867 44.7658 69.4085 45.4305C69.7054 46.3196 70.3728 46.3101 71.4762 46.3074C73.3629 46.3025 79.1735 46.1907 80.2718 46.3477C81.2475 46.4868 81.8117 46.6533 82.3723 47.1919C82.803 47.6055 83.3591 48.3645 83.3591 49.1489V73.9113C83.3591 74.8892 83.0827 75.6518 82.575 76.1725C82.0974 76.6623 81.4346 77.2603 80.5152 77.2603H39.4842C38.0965 77.2603 36.6404 75.8356 36.6404 73.9113L36.6405 73.9111ZM47.914 43.6685C45.6191 43.6685 39.9971 43.4371 38.3423 43.8467C37.2206 44.1244 36.6976 44.5611 35.9988 45.1585C35.7941 45.3336 35.8534 45.2464 35.6723 45.4411C35.5783 45.5421 35.5021 45.6514 35.3947 45.7724C34.7097 46.5429 34 47.8378 34 49.2503V74.4186C34 77.464 36.8913 80.0002 39.9922 80.0002H79.9062C81.7989 80.0002 83.1351 79.3686 84.0972 78.4033C85.1368 77.3602 86 76.074 86 74.4186V49.1487C86 48.2581 85.7384 47.607 85.4257 46.9824C84.4387 45.0116 82.5149 43.6683 80.211 43.6683H71.9843C71.9843 40.8135 69.7964 39 66.9063 39H53.1954C50.545 39 48.7313 40.1789 48.1008 42.5356C48.0146 42.8574 47.9975 43.3111 47.9142 43.6683L47.914 43.6685Z" fill="#828282"/>
<path fill-rule="evenodd" clip-rule="evenodd" d="M50.5549 62.1391C50.5549 52.8015 61.2098 49.642 66.6276 55.1107C70.4054 58.924 70.3404 64.9579 66.7834 68.5111C66.5416 68.7527 66.4193 68.8023 66.1728 69.0173C65.9303 69.2287 65.8263 69.3202 65.5586 69.5198C61.5425 72.5146 55.4707 71.7545 52.2217 67.2728C51.2445 65.9245 50.5549 63.9497 50.5549 62.1389V62.1391ZM47.8127 61.6317C47.8127 68.578 53.2792 74.0128 60.0001 74.0128C63.5864 74.0128 66.7053 72.3516 68.5062 70.5371C72.0996 66.9167 73.2783 61.482 71.1387 56.8951C70.4518 55.4226 69.7875 54.4121 68.7092 53.3352L67.1391 51.9609C66.5272 51.4981 65.9335 51.2019 65.2142 50.8396C62.1056 49.274 57.9691 49.2463 54.8529 50.8055C53.7999 51.3322 52.9869 51.7845 52.1077 52.5275C49.6227 54.628 47.8125 58.1238 47.8125 61.6317H47.8127Z" fill="#828282"/>
<path fill-rule="evenodd" clip-rule="evenodd" d="M75.133 51.9904C75.133 53.2552 76.0394 54.322 77.4223 54.475C78.6806 54.614 80.0078 53.5398 80.0078 52.2949V51.7876C80.0078 50.2043 78.0121 49.1208 76.6002 49.8032C75.8131 50.1835 75.1328 51.0338 75.1328 51.9904H75.133Z" fill="#828282"/>
</svg>
