<svg width="80" height="80" viewBox="0 0 80 80" fill="none" xmlns="http://www.w3.org/2000/svg">
<circle cx="40" cy="40" r="40" fill="#F4F4F4"/>
<path d="M16.127 54.0332L15.002 53.7578L15.4648 49.4688H20.0645V50.6641H16.6367L16.4023 52.7559C16.5352 52.6777 16.7188 52.6016 16.9531 52.5273C17.1875 52.4492 17.4551 52.4102 17.7559 52.4102C18.1582 52.4102 18.5176 52.4766 18.834 52.6094C19.1543 52.7383 19.4258 52.9277 19.6484 53.1777C19.8711 53.4238 20.041 53.7246 20.1582 54.0801C20.2754 54.4316 20.334 54.8281 20.334 55.2695C20.334 55.6641 20.2754 56.0332 20.1582 56.377C20.0449 56.7207 19.873 57.0234 19.6426 57.2852C19.4121 57.5469 19.1211 57.752 18.7695 57.9004C18.4219 58.0449 18.0098 58.1172 17.5332 58.1172C17.1777 58.1172 16.8359 58.0664 16.5078 57.9648C16.1836 57.8594 15.8926 57.7051 15.6348 57.502C15.377 57.2949 15.1699 57.041 15.0137 56.7402C14.8574 56.4355 14.7676 56.0859 14.7441 55.6914H16.127C16.1621 55.9688 16.2383 56.2051 16.3555 56.4004C16.4766 56.5918 16.6367 56.7383 16.8359 56.8398C17.0352 56.9414 17.2656 56.9922 17.5273 56.9922C17.7656 56.9922 17.9707 56.9512 18.1426 56.8691C18.3145 56.7832 18.457 56.6621 18.5703 56.5059C18.6875 56.3457 18.7734 56.1582 18.8281 55.9434C18.8867 55.7285 18.916 55.4902 18.916 55.2285C18.916 54.9785 18.8828 54.75 18.8164 54.543C18.7539 54.3359 18.6582 54.1562 18.5293 54.0039C18.4043 53.8516 18.2461 53.7344 18.0547 53.6523C17.8633 53.5664 17.6426 53.5234 17.3926 53.5234C17.0566 53.5234 16.7988 53.5723 16.6191 53.6699C16.4434 53.7676 16.2793 53.8887 16.127 54.0332ZM22.5252 49.4688H23.8377L26.3045 56.0488L28.7654 49.4688H30.0779L26.8201 58H25.7771L22.5252 49.4688ZM21.9275 49.4688H23.1755L23.3923 55.1641V58H21.9275V49.4688ZM29.4275 49.4688H30.6814V58H29.2107V55.1641L29.4275 49.4688ZM35.8667 54.1445H33.6929L33.6812 53.0723H35.5796C35.8999 53.0723 36.1714 53.0254 36.3941 52.9316C36.6206 52.834 36.7925 52.6953 36.9097 52.5156C37.0269 52.332 37.0855 52.1113 37.0855 51.8535C37.0855 51.5684 37.0308 51.3359 36.9214 51.1562C36.812 50.9766 36.6441 50.8457 36.4175 50.7637C36.1948 50.6816 35.9097 50.6406 35.562 50.6406H34.1382V58H32.6675V49.4688H35.562C36.0308 49.4688 36.4487 49.5137 36.8159 49.6035C37.187 49.6934 37.5015 49.834 37.7593 50.0254C38.021 50.2129 38.2183 50.4512 38.3511 50.7402C38.4878 51.0293 38.5562 51.373 38.5562 51.7715C38.5562 52.123 38.4722 52.4453 38.3042 52.7383C38.1362 53.0273 37.8882 53.2637 37.5601 53.4473C37.232 53.6309 36.8237 53.7402 36.3355 53.7754L35.8667 54.1445ZM35.8023 58H33.23L33.8921 56.834H35.8023C36.1343 56.834 36.4116 56.7793 36.6343 56.6699C36.857 56.5566 37.023 56.4023 37.1323 56.207C37.2456 56.0078 37.3023 55.7754 37.3023 55.5098C37.3023 55.2324 37.2534 54.9922 37.1558 54.7891C37.0581 54.582 36.9038 54.4238 36.6929 54.3145C36.482 54.2012 36.2066 54.1445 35.8667 54.1445H34.2144L34.2261 53.0723H36.3765L36.7105 53.4766C37.1792 53.4922 37.564 53.5957 37.8648 53.7871C38.1695 53.9785 38.396 54.2266 38.5445 54.5312C38.6929 54.8359 38.7671 55.1641 38.7671 55.5156C38.7671 56.0586 38.648 56.5137 38.4097 56.8809C38.1753 57.248 37.8374 57.5273 37.396 57.7188C36.9546 57.9062 36.4234 58 35.8023 58ZM43.3077 54.9004V54.7656C43.3077 54.3086 43.3741 53.8848 43.5069 53.4941C43.6397 53.0996 43.8311 52.7578 44.0811 52.4688C44.335 52.1758 44.6436 51.9492 45.0069 51.7891C45.3741 51.625 45.7881 51.543 46.2491 51.543C46.7139 51.543 47.128 51.625 47.4912 51.7891C47.8584 51.9492 48.169 52.1758 48.4229 52.4688C48.6768 52.7578 48.8702 53.0996 49.003 53.4941C49.1358 53.8848 49.2022 54.3086 49.2022 54.7656V54.9004C49.2022 55.3574 49.1358 55.7812 49.003 56.1719C48.8702 56.5625 48.6768 56.9043 48.4229 57.1973C48.169 57.4863 47.8604 57.7129 47.4971 57.877C47.1338 58.0371 46.7217 58.1172 46.2608 58.1172C45.7959 58.1172 45.3799 58.0371 45.0127 57.877C44.6495 57.7129 44.3409 57.4863 44.087 57.1973C43.833 56.9043 43.6397 56.5625 43.5069 56.1719C43.3741 55.7812 43.3077 55.3574 43.3077 54.9004ZM44.7198 54.7656V54.9004C44.7198 55.1855 44.7491 55.4551 44.8077 55.709C44.8662 55.9629 44.958 56.1855 45.083 56.377C45.208 56.5684 45.3682 56.7188 45.5635 56.8281C45.7588 56.9375 45.9912 56.9922 46.2608 56.9922C46.5225 56.9922 46.7491 56.9375 46.9405 56.8281C47.1358 56.7188 47.2959 56.5684 47.4209 56.377C47.5459 56.1855 47.6377 55.9629 47.6963 55.709C47.7588 55.4551 47.7901 55.1855 47.7901 54.9004V54.7656C47.7901 54.4844 47.7588 54.2188 47.6963 53.9688C47.6377 53.7148 47.544 53.4902 47.4151 53.2949C47.2901 53.0996 47.1299 52.9473 46.9346 52.8379C46.7432 52.7246 46.5147 52.668 46.2491 52.668C45.9834 52.668 45.753 52.7246 45.5577 52.8379C45.3662 52.9473 45.208 53.0996 45.083 53.2949C44.958 53.4902 44.8662 53.7148 44.8077 53.9688C44.7491 54.2188 44.7198 54.4844 44.7198 54.7656ZM52.0262 53.0137V58H50.6141V51.6602H51.9441L52.0262 53.0137ZM51.7742 54.5957L51.3172 54.5898C51.3211 54.1406 51.3836 53.7285 51.5047 53.3535C51.6297 52.9785 51.8016 52.6562 52.0203 52.3867C52.243 52.1172 52.5086 51.9102 52.8172 51.7656C53.1258 51.6172 53.4695 51.543 53.8484 51.543C54.1531 51.543 54.4285 51.5859 54.6746 51.6719C54.9246 51.7539 55.1375 51.8887 55.3133 52.0762C55.493 52.2637 55.6297 52.5078 55.7234 52.8086C55.8172 53.1055 55.8641 53.4707 55.8641 53.9043V58H54.4461V53.8984C54.4461 53.5938 54.4012 53.3535 54.3113 53.1777C54.2254 52.998 54.0984 52.8711 53.9305 52.7969C53.7664 52.7188 53.5613 52.6797 53.3152 52.6797C53.073 52.6797 52.8563 52.7305 52.6648 52.832C52.4734 52.9336 52.3113 53.0723 52.1785 53.248C52.0496 53.4238 51.95 53.627 51.8797 53.8574C51.8094 54.0879 51.7742 54.334 51.7742 54.5957ZM59.0572 49V58H57.6392V49H59.0572ZM62.6839 57.3086L64.4066 51.6602H65.9183L63.3753 58.9668C63.3167 59.123 63.2405 59.293 63.1468 59.4766C63.053 59.6602 62.93 59.834 62.7777 59.998C62.6292 60.166 62.4437 60.3008 62.221 60.4023C61.9984 60.5078 61.7288 60.5605 61.4124 60.5605C61.2874 60.5605 61.1663 60.5488 61.0491 60.5254C60.9359 60.5059 60.8284 60.4844 60.7269 60.4609L60.721 59.3828C60.7601 59.3867 60.807 59.3906 60.8616 59.3945C60.9202 59.3984 60.9671 59.4004 61.0023 59.4004C61.2366 59.4004 61.432 59.3711 61.5882 59.3125C61.7445 59.2578 61.8714 59.168 61.9691 59.043C62.0706 58.918 62.1566 58.75 62.2269 58.5391L62.6839 57.3086ZM61.7113 51.6602L63.2171 56.4062L63.4691 57.8945L62.4905 58.1465L60.1878 51.6602H61.7113Z" fill="#FC133D"/>
<path fill-rule="evenodd" clip-rule="evenodd" d="M28.3203 39.0297V27.1487C28.3203 26.3595 28.8815 25.7193 29.7323 25.6044C30.4893 25.5022 33.0666 25.5641 34.1601 25.5645C34.797 25.5646 35.0574 25.6262 35.2975 25.1882C35.5489 24.7295 34.9677 23.2873 36.3944 23.2873H43.7069C44.9455 23.2873 44.5934 24.8126 44.7043 25.1368C44.8527 25.5705 45.1864 25.5659 45.7381 25.5646C46.6815 25.5622 49.5868 25.5077 50.1359 25.5842C50.6238 25.6521 50.9058 25.7333 51.1861 25.996C51.4015 26.1978 51.6796 26.568 51.6796 26.9507V39.0298C51.6796 39.5069 51.5414 39.8789 51.2875 40.1328C51.0487 40.3718 50.7173 40.6635 50.2576 40.6635H29.7421C29.0483 40.6635 28.3202 39.9685 28.3202 39.0298L28.3203 39.0297ZM33.957 24.2773C32.8096 24.2773 29.9986 24.1645 29.1711 24.3642C28.6103 24.4997 28.3488 24.7127 27.9994 25.0041C27.897 25.0895 27.9267 25.047 27.8361 25.142C27.7892 25.1913 27.751 25.2446 27.6973 25.3036C27.3549 25.6794 27 26.3111 27 27.0001V39.2773C27 40.7628 28.4457 42 29.9961 42H49.9531C50.8995 42 51.5676 41.6919 52.0486 41.221C52.5684 40.7122 53 40.0848 53 39.2773V26.9506C53 26.5161 52.8692 26.1985 52.7129 25.8939C52.2194 24.9325 51.2575 24.2772 50.1055 24.2772H45.9922C45.9922 22.8847 44.8982 22 43.4532 22H36.5977C35.2725 22 34.3657 22.5751 34.0504 23.7247C34.0073 23.8816 33.9988 24.103 33.9571 24.2772L33.957 24.2773Z" fill="#FC133D"/>
<path fill-rule="evenodd" clip-rule="evenodd" d="M35.2774 33.2874C35.2774 28.7326 40.6049 27.1913 43.3138 29.859C45.2027 31.7191 45.1702 34.6625 43.3917 36.3957C43.2708 36.5136 43.2096 36.5378 43.0864 36.6427C42.9651 36.7458 42.9132 36.7904 42.7793 36.8878C40.7712 38.3487 37.7354 37.9779 36.1109 35.7917C35.6222 35.134 35.2774 34.1707 35.2774 33.2874V33.2874ZM33.9063 33.04C33.9063 36.4284 36.6396 39.0795 40.0001 39.0795C41.7932 39.0795 43.3527 38.2691 44.2531 37.384C46.0498 35.618 46.6392 32.9669 45.5693 30.7294C45.2259 30.0111 44.8938 29.5182 44.3546 28.9929L43.5696 28.3225C43.2636 28.0968 42.9668 27.9523 42.6071 27.7756C41.0528 27.0118 38.9846 26.9983 37.4265 27.7589C36.8999 28.0158 36.4934 28.2365 36.0538 28.5989C34.8114 29.6235 33.9062 31.3288 33.9062 33.04H33.9063Z" fill="#FC133D"/>
<path fill-rule="evenodd" clip-rule="evenodd" d="M47.5626 28.3368C47.5626 28.9538 48.0158 29.4742 48.7073 29.5488C49.3364 29.6166 50 29.0926 50 28.4854V28.2379C50 27.4656 49.0021 26.937 48.2962 27.2699C47.9026 27.4554 47.5625 27.8702 47.5625 28.3368H47.5626Z" fill="#FC133D"/>
</svg>
