<svg width="56" height="56" viewBox="0 0 56 56" fill="none" xmlns="http://www.w3.org/2000/svg">
<g filter="url(#filter0_d_6411_14338)">
<circle cx="28" cy="24" r="16" fill="white"/>
</g>
<path d="M25.8714 24C25.8714 24.5467 26.088 25.071 26.4734 25.4576C26.8588 25.8442 27.3815 26.0613 27.9266 26.0613C28.4717 26.0613 28.9944 25.8442 29.3798 25.4576C29.7652 25.071 29.9818 24.5467 29.9818 24C29.9818 23.4533 29.7652 22.929 29.3798 22.5424C28.9944 22.1558 28.4717 21.9387 27.9266 21.9387C27.3815 21.9387 26.8588 22.1558 26.4734 22.5424C26.088 22.929 25.8714 23.4533 25.8714 24ZM35.894 23.5252C34.1545 19.8497 31.525 18 28 18C24.4732 18 21.8455 19.8497 20.106 23.527C20.0362 23.6752 20 23.837 20 24.0009C20 24.1648 20.0362 24.3267 20.106 24.4748C21.8455 28.1503 24.475 30 28 30C31.5268 30 34.1545 28.1503 35.894 24.473C36.0353 24.1748 36.0353 23.8288 35.894 23.5252ZM27.9266 27.2393C26.143 27.2393 24.6971 25.789 24.6971 24C24.6971 22.211 26.143 20.7607 27.9266 20.7607C29.7102 20.7607 31.1561 22.211 31.1561 24C31.1561 25.789 29.7102 27.2393 27.9266 27.2393Z" fill="#FC133D"/>
<defs>
<filter id="filter0_d_6411_14338" x="0" y="0" width="56" height="56" filterUnits="userSpaceOnUse" color-interpolation-filters="sRGB">
<feFlood flood-opacity="0" result="BackgroundImageFix"/>
<feColorMatrix in="SourceAlpha" type="matrix" values="0 0 0 0 0 0 0 0 0 0 0 0 0 0 0 0 0 0 127 0" result="hardAlpha"/>
<feOffset dy="4"/>
<feGaussianBlur stdDeviation="6"/>
<feComposite in2="hardAlpha" operator="out"/>
<feColorMatrix type="matrix" values="0 0 0 0 0 0 0 0 0 0 0 0 0 0 0 0 0 0 0.14 0"/>
<feBlend mode="normal" in2="BackgroundImageFix" result="effect1_dropShadow_6411_14338"/>
<feBlend mode="normal" in="SourceGraphic" in2="effect1_dropShadow_6411_14338" result="shape"/>
</filter>
</defs>
</svg>
