<svg width="40" height="14" viewBox="0 0 40 14" fill="none" xmlns="http://www.w3.org/2000/svg">
<path d="M17.342 13.2493H14.0781L16.1182 0.759521H19.3822L17.342 13.2493Z" fill="#0060AA"/>
<path d="M11.3305 0.759419L8.21864 9.34965L7.8504 7.4997L7.85083 7.50041L6.75236 1.88428C6.75236 1.88428 6.61973 0.759419 5.2041 0.759419H0.0602851L0 0.970684C0 0.970684 1.57351 1.2967 3.41412 2.39867L6.24994 13.2491H9.65045L14.8436 0.759277H11.3306L11.3305 0.759419Z" fill="#0060AA"/>
<path d="M33.4095 8.83113L35.1249 4.15701L36.0896 8.83113H33.4095ZM37.0011 13.2493H39.9982L37.3851 0.759521H34.7609C33.549 0.759521 33.2542 1.69022 33.2542 1.69022L28.3867 13.2492H31.7885L32.4692 11.394H36.6185L37.0011 13.2492V13.2493Z" fill="#0060AA"/>
<path d="M28.6441 3.76295L29.1098 1.08037C29.1098 1.08037 27.6725 0.535889 26.1743 0.535889C24.5545 0.535889 20.708 1.24161 20.708 4.67061C20.708 7.89753 25.2225 7.93767 25.2225 9.63189C25.2225 11.3263 21.1735 11.0234 19.8372 9.95465L19.3516 12.7585C19.3516 12.7585 20.8088 13.4642 23.036 13.4642C25.2631 13.4642 28.6238 12.3149 28.6238 9.1883C28.6238 5.94117 24.0687 5.63862 24.0687 4.22703C24.0687 2.81501 27.2474 2.99632 28.6441 3.76309V3.76295Z" fill="#0060AA"/>
<path d="M7.85083 7.50051L6.75236 1.88439C6.75236 1.88439 6.61974 0.759521 5.2041 0.759521H0.0602852L0 0.970787C0 0.970787 2.47254 1.48136 4.84466 3.39391C7.11138 5.22181 7.85097 7.50051 7.85097 7.50051H7.85083Z" fill="#F7A82D"/>
</svg>
