<svg width="24" height="24" viewBox="0 0 24 24" fill="none" xmlns="http://www.w3.org/2000/svg">
<path d="M9.15378 19.0013C9.30318 19.0018 9.45079 18.9688 9.58577 18.9048C9.72075 18.8407 9.83967 18.7473 9.93378 18.6313L14.7638 12.6313C14.9109 12.4523 14.9913 12.2279 14.9913 11.9963C14.9913 11.7646 14.9109 11.5402 14.7638 11.3613L9.76378 5.36125C9.59405 5.15704 9.35013 5.02861 9.08571 5.00423C8.82128 4.97985 8.558 5.06151 8.35378 5.23125C8.14957 5.40099 8.02114 5.6449 7.99676 5.90933C7.97238 6.17375 8.05405 6.43704 8.22378 6.64125L12.6938 12.0013L8.37378 17.3613C8.2515 17.508 8.17382 17.6868 8.14994 17.8763C8.12607 18.0659 8.15698 18.2583 8.23904 18.4308C8.32109 18.6034 8.45085 18.7488 8.61296 18.8499C8.77507 18.9509 8.96275 19.0035 9.15378 19.0013Z" fill="black"/>
</svg>
