<svg width="36" height="36" viewBox="0 0 36 36" fill="none" xmlns="http://www.w3.org/2000/svg">
<path fill-rule="evenodd" clip-rule="evenodd" d="M9.39349 11.3102C9.14141 11.0556 9 10.7118 9 10.3535C9 9.99526 9.14141 9.65146 9.39349 9.39687C9.51728 9.27118 9.66483 9.17136 9.82755 9.10322C9.99028 9.03509 10.1649 9 10.3414 9C10.5178 9 10.6924 9.03509 10.8551 9.10322C11.0179 9.17136 11.1654 9.27118 11.2892 9.39687L17.8374 16.0784L24.3856 9.39687C24.5094 9.27118 24.6569 9.17136 24.8197 9.10322C24.9824 9.03509 25.157 9 25.3335 9C25.5099 9 25.6845 9.03509 25.8472 9.10322C26.01 9.17136 26.1575 9.27118 26.2813 9.39687C26.5334 9.65146 26.6748 9.99526 26.6748 10.3535C26.6748 10.7118 26.5334 11.0556 26.2813 11.3102L20.1 18L26.2813 24.6898C26.5334 24.9444 26.6748 25.2882 26.6748 25.6465C26.6748 26.0047 26.5334 26.3485 26.2813 26.6031C26.1575 26.7288 26.01 26.8286 25.8472 26.8968C25.6845 26.9649 25.5099 27 25.3335 27C25.157 27 24.9824 26.9649 24.8197 26.8968C24.6569 26.8286 24.5094 26.7288 24.3856 26.6031L17.8374 19.9216L11.2892 26.6031C11.1654 26.7288 11.0179 26.8286 10.8551 26.8968C10.6924 26.9649 10.5178 27 10.3414 27C10.1649 27 9.99028 26.9649 9.82756 26.8968C9.66483 26.8286 9.51728 26.7288 9.39349 26.6031C9.14141 26.3485 9 26.0047 9 25.6465C9 25.2882 9.14141 24.9444 9.39349 24.6898L15.5748 18L9.39349 11.3102Z" fill="black"/>
</svg>
