<svg width="25" height="16" viewBox="0 0 25 16" fill="none" xmlns="http://www.w3.org/2000/svg">
<g clip-path="url(#clip0_225_1853)">
<path d="M24.3625 3.30179C24.5542 3.83512 23.9292 5.06012 22.4875 6.97679C22.2875 7.24345 22.0167 7.59762 21.675 8.03929C21.3417 8.46429 21.1125 8.76429 20.9875 8.93929C20.8625 9.11429 20.7354 9.32054 20.6063 9.55804C20.4771 9.79554 20.4271 9.97054 20.4563 10.083C20.4854 10.1955 20.5396 10.3393 20.6188 10.5143C20.6979 10.6893 20.8333 10.8685 21.025 11.0518C21.2167 11.2351 21.4542 11.456 21.7375 11.7143C21.7708 11.731 21.7917 11.7476 21.8 11.7643C22.975 12.856 23.7708 13.7768 24.1875 14.5268C24.2125 14.5685 24.2396 14.6205 24.2688 14.683C24.2979 14.7455 24.3271 14.856 24.3563 15.0143C24.3854 15.1726 24.3833 15.3143 24.35 15.4393C24.3167 15.5643 24.2125 15.6789 24.0375 15.783C23.8625 15.8872 23.6167 15.9393 23.3 15.9393L20.1 15.9893C19.9 16.031 19.6667 16.0101 19.4 15.9268C19.1333 15.8435 18.9167 15.7518 18.75 15.6518L18.5 15.5018C18.25 15.3268 17.9583 15.0601 17.625 14.7018C17.2917 14.3435 17.0063 14.0205 16.7688 13.733C16.5313 13.4455 16.2771 13.2039 16.0063 13.008C15.7354 12.8122 15.5 12.7476 15.3 12.8143C15.275 12.8226 15.2417 12.8372 15.2 12.858C15.1583 12.8789 15.0875 12.9393 14.9875 13.0393C14.8875 13.1393 14.7979 13.2622 14.7188 13.408C14.6396 13.5539 14.5688 13.7705 14.5063 14.058C14.4438 14.3455 14.4167 14.6685 14.425 15.0268C14.425 15.1518 14.4104 15.2664 14.3813 15.3705C14.3521 15.4747 14.3208 15.5518 14.2875 15.6018L14.2375 15.6643C14.0875 15.8226 13.8667 15.9143 13.575 15.9393H12.1375C11.5458 15.9726 10.9375 15.9039 10.3125 15.733C9.68751 15.5622 9.13959 15.3414 8.66876 15.0705C8.19793 14.7997 7.76876 14.5247 7.38126 14.2455C6.99376 13.9664 6.70001 13.7268 6.50001 13.5268L6.18751 13.2268C6.10418 13.1435 5.98959 13.0185 5.84376 12.8518C5.69793 12.6851 5.40001 12.306 4.95001 11.7143C4.50001 11.1226 4.05835 10.4935 3.62501 9.82679C3.19168 9.16012 2.68126 8.28095 2.09376 7.18929C1.50626 6.09762 0.962512 4.96429 0.462512 3.78929C0.412512 3.65595 0.387512 3.54345 0.387512 3.45179C0.387512 3.36012 0.400012 3.29345 0.425012 3.25179L0.475012 3.17679C0.600012 3.01845 0.837512 2.93929 1.18751 2.93929L4.61251 2.91429C4.71251 2.93095 4.80834 2.95804 4.90001 2.99554C4.99168 3.03304 5.05834 3.06845 5.10001 3.10179L5.16251 3.13929C5.29585 3.23095 5.39584 3.36429 5.46251 3.53929C5.62918 3.95595 5.82084 4.3872 6.03751 4.83304C6.25418 5.27887 6.42501 5.61845 6.55001 5.85179L6.75001 6.21429C6.99168 6.71429 7.22501 7.14762 7.45001 7.51429C7.67501 7.88095 7.87709 8.16637 8.05626 8.37054C8.23543 8.5747 8.40834 8.73512 8.57501 8.85179C8.74168 8.96845 8.88334 9.02679 9.00001 9.02679C9.11668 9.02679 9.22918 9.00595 9.33751 8.96429C9.35418 8.95595 9.37501 8.93512 9.40001 8.90179C9.42501 8.86845 9.47501 8.77679 9.55001 8.62679C9.62501 8.47679 9.68126 8.28095 9.71876 8.03929C9.75626 7.79762 9.79584 7.46012 9.83751 7.02679C9.87918 6.59345 9.87918 6.07262 9.83751 5.46429C9.82084 5.13095 9.78334 4.82679 9.72501 4.55179C9.66668 4.27679 9.60834 4.08512 9.55001 3.97679L9.47501 3.82679C9.26668 3.54345 8.91251 3.36429 8.41251 3.28929C8.30418 3.27262 8.32501 3.17262 8.47501 2.98929C8.60834 2.83095 8.76668 2.70595 8.95001 2.61429C9.39168 2.39762 10.3875 2.29762 11.9375 2.31429C12.6208 2.32262 13.1833 2.37679 13.625 2.47679C13.7917 2.51845 13.9313 2.5747 14.0438 2.64554C14.1563 2.71637 14.2417 2.81637 14.3 2.94554C14.3583 3.0747 14.4021 3.20804 14.4313 3.34554C14.4604 3.48304 14.475 3.67262 14.475 3.91429C14.475 4.15595 14.4708 4.38512 14.4625 4.60179C14.4542 4.81845 14.4438 5.1122 14.4313 5.48304C14.4188 5.85387 14.4125 6.19762 14.4125 6.51429C14.4125 6.60595 14.4083 6.78095 14.4 7.03929C14.3917 7.29762 14.3896 7.49762 14.3938 7.63929C14.3979 7.78095 14.4125 7.9497 14.4375 8.14554C14.4625 8.34137 14.5104 8.50387 14.5813 8.63304C14.6521 8.7622 14.7458 8.86429 14.8625 8.93929C14.9292 8.95595 15 8.97262 15.075 8.98929C15.15 9.00595 15.2583 8.96012 15.4 8.85179C15.5417 8.74345 15.7 8.5997 15.875 8.42054C16.05 8.24137 16.2667 7.9622 16.525 7.58304C16.7833 7.20387 17.0667 6.75595 17.375 6.23929C17.875 5.37262 18.3208 4.43512 18.7125 3.42679C18.7458 3.34345 18.7875 3.27054 18.8375 3.20804C18.8875 3.14554 18.9333 3.10179 18.975 3.07679L19.025 3.03929L19.0875 3.00804L19.25 2.97054L19.5 2.96429L23.1 2.93929C23.425 2.89762 23.6917 2.90804 23.9 2.97054C24.1083 3.03304 24.2375 3.10179 24.2875 3.17679L24.3625 3.30179Z" fill="black"/>
</g>
<defs>
<clipPath id="clip0_225_1853">
<rect width="24.4" height="16" fill="white"/>
</clipPath>
</defs>
</svg>
