<svg width="18" height="18" viewBox="0 0 18 18" fill="none" xmlns="http://www.w3.org/2000/svg">
<path d="M16.88 7.46188C16.9825 8.01104 17.0383 8.58521 17.0383 9.18437C17.0383 13.871 13.9016 17.2035 9.16415 17.2035C8.08678 17.2039 7.0199 16.9919 6.02448 16.5798C5.02906 16.1676 4.1246 15.5634 3.36278 14.8016C2.60097 14.0398 1.99673 13.1353 1.58459 12.1399C1.17245 11.1445 0.960487 10.0776 0.960816 9.00021C0.960487 7.92284 1.17245 6.85596 1.58459 5.86054C1.99673 4.86512 2.60097 3.96066 3.36278 3.19884C4.1246 2.43703 5.02906 1.83279 6.02448 1.42065C7.0199 1.00851 8.08678 0.796547 9.16415 0.796875C11.3791 0.796875 13.23 1.61188 14.65 2.93521L12.3375 5.24771V5.24188C11.4766 4.42188 10.3841 4.00104 9.16415 4.00104C6.45748 4.00104 4.25748 6.28771 4.25748 8.99521C4.25748 11.7019 6.45748 13.9935 9.16415 13.9935C11.62 13.9935 13.2916 12.5894 13.635 10.661H9.16415V7.46188H16.8808H16.88Z" fill="black"/>
</svg>
