<svg width="56" height="56" viewBox="0 0 56 56" fill="none" xmlns="http://www.w3.org/2000/svg">
<path d="M47.04 15.9612C40.32 5.60122 26.6 2.52122 15.96 8.96122C5.59999 15.4012 2.23999 29.4012 8.95999 39.7612L9.51999 40.6012L7.27999 49.0012L15.68 46.7612L16.52 47.3212C20.16 49.2812 24.08 50.4012 28 50.4012C32.2 50.4012 36.4 49.2812 40.04 47.0412C50.4 40.3212 53.48 26.6012 47.04 15.9612ZM41.16 37.5212C40.04 39.2012 38.64 40.3212 36.68 40.6012C35.56 40.6012 34.16 41.1612 28.56 38.9212C23.8 36.6812 19.88 33.0412 17.08 28.8412C15.4 26.8812 14.56 24.3612 14.28 21.8412C14.28 19.6012 15.12 17.6412 16.52 16.2412C17.08 15.6812 17.64 15.4012 18.2 15.4012H19.6C20.16 15.4012 20.72 15.4012 21 16.5212C21.56 17.9212 22.96 21.2812 22.96 21.5612C23.24 21.8412 23.24 22.4012 22.96 22.6812C23.24 23.2412 22.96 23.8012 22.68 24.0812C22.4 24.3612 22.12 24.9212 21.84 25.2012C21.28 25.4812 21 26.0412 21.28 26.6012C22.4 28.2812 23.8 29.9612 25.2 31.3612C26.88 32.7612 28.56 33.8812 30.52 34.7212C31.08 35.0012 31.64 35.0012 31.92 34.4412C32.2 33.8812 33.6 32.4812 34.16 31.9212C34.72 31.3612 35 31.3612 35.56 31.6412L40.04 33.8812C40.6 34.1612 41.16 34.4412 41.44 34.7212C41.72 35.5612 41.72 36.6812 41.16 37.5212Z" fill="black"/>
</svg>
